<svg xmlns="http://www.w3.org/2000/svg" xmlns:xlink="http://www.w3.org/1999/xlink" width="1920" height="1080" viewBox="0 0 1920 1080"><defs><clipPath id="b"><rect width="1920" height="1080"/></clipPath></defs><g id="a" clip-path="url(#b)"><rect width="1920" height="1080" fill="#fff"/><g transform="translate(423 117.96)"><path d="M840.625,475.572l9.026-3.2c.865-.308,1.716-.639,2.62-.959-34.407-11.452-55.441-42.928-50.643-75.787s34.145-58.324,70.661-61.314L866,362.973l23.87-28.327h.209c42.906,5.332,72.911,41.091,67.024,79.878-.2,1.338-.511,2.641-.786,3.955,7.349-5.246,14.24-11.037,19.4-17.764,10.481-13.666,14.031-30.506,17.647-51.124,7.166-40.833,13.625-82.116,19.442-123.376-36.9-10.063-60.229-42.882-55.023-77.4.327-2.155.786-4.251,1.31-6.324.131-.521.262-1.042.406-1.551.563-2,1.192-3.967,1.926-5.921.118-.32.275-.616.393-.924a40.528,40.528,0,0,1,2.162-4.737c.288-.592.576-1.184.878-1.741.9-1.694,1.86-3.351,2.908-4.962.354-.533.734-1.042,1.087-1.575.812-1.184,1.664-2.369,2.542-3.47.472-.592.93-1.184,1.415-1.765l.354-.462h0c22.953-27.157,64.085-35.626,97.785-20.132l-8.175,37.292,23.581-28c26.034,19.938,34.7,52.865,21.381,81.264h.092c-.223.474-.5.924-.721,1.4-.432.876-.878,1.741-1.31,2.605-.6,1.1-1.31,2.179-1.9,3.245-.5.805-.983,1.611-1.52,2.369-.773,1.184-1.612,2.25-2.45,3.351-.5.639-.956,1.3-1.467,1.93a60.633,60.633,0,0,1-4.271,4.737c-.524.533-1.087,1.018-1.638,1.54-1.061,1.018-2.122,2.025-3.249,2.984-.694.592-1.428,1.184-2.149,1.729-1.035.829-2.1,1.634-3.184,2.368-.773.557-1.559,1.09-2.345,1.611-1.14.746-2.293,1.445-3.459,2.143-.786.462-1.572.924-2.371,1.362-1.31.722-2.686,1.385-4.061,2.037-.694.32-1.31.675-2.083.983-2.07.912-4.193,1.753-6.354,2.5-.406.142-.839.249-1.245.379-1.808.592-3.629,1.184-5.476,1.6-.8.2-1.611.367-2.423.545-1.507.332-3.026.64-4.559.9q-1.31.213-2.712.391c-1.506.2-3.026.355-4.559.474-.9.071-1.795.142-2.712.189-1.651.071-3.314.083-4.978.071a3,3,0,0,0-.327,0q-3.695,26.054-7.756,52.107c12.841-15.67,32.259-25.863,53.68-28.176s42.949,3.459,59.511,15.954L1119.2,300.61l33.027-19.647c12.488,14.94,17.906,33.749,15.066,52.3a64.525,64.525,0,0,1-5.9,18.877c-12.9,26.624-42.481,43.426-74.615,42.381s-60.3-19.724-71.053-47.118c-.3,1.753-.59,3.553-.891,5.282-3.2,18.178-7.166,40.81-21.263,59.213-9.55,12.506-22.7,21.743-35.49,29.867q-12.472,7.935-25.52,15.123a80.992,80.992,0,0,1-32.136,16.272q-20.962,9.7-42.827,17.539l-9.105,3.221c-8.188,2.89-16.572,5.85-24.892,9,1.31.107,2.62.2,3.93.355,33.824,4.2,60.764,27.684,66.631,58.088l-55.43,27.368L894,586.489A67,67,0,0,1,879.036,616.9c-25.983,30.4-74.027,36.569-108.344,13.9l2.751,4.63c1.834,3.055,3.642,6.1,5.4,9.119,24.014,41.141,25.756,76.669,4.913,100.058l-17.031-12.375c20.293-22.761,4.192-58.941-7.206-78.481-1.729-2.961-3.511-5.921-5.24-8.953-15.419-25.852-32.909-55.151-25.9-86.332C738.858,511.455,795.257,491.56,840.625,475.572Z" transform="translate(165.099 -83.839)" fill="#f2f2f2"/><path d="M376.137,650.557l-7.048-2.5c-.681-.237-1.31-.509-2.018-.746,26.861-8.955,43.275-33.535,39.527-59.192s-26.658-45.543-55.17-47.888l4.913,22.383-18.629-22.122h-.17c-33.533,4.139-57,32.076-52.4,62.387.157,1.054.406,2.061.616,3.091a69.927,69.927,0,0,1-15.145-13.891c-8.162-10.658-10.965-23.827-13.8-39.921-5.542-31.892-10.572-64.128-15.092-96.316,28.806-7.872,47.008-33.5,42.931-60.456-.262-1.682-.616-3.316-1.035-4.938l-.314-1.184c-.445-1.563-.93-3.1-1.507-4.595-.092-.249-.21-.486-.314-.722-.511-1.267-1.074-2.511-1.677-3.73-.236-.45-.459-.912-.694-1.362-.707-1.315-1.454-2.605-2.266-3.861-.275-.426-.576-.829-.852-1.184-.642-.924-1.31-1.836-1.991-2.712-.367-.462-.721-.936-1.1-1.386l-.275-.355h0c-17.925-21.2-50.03-27.837-76.365-15.774l6.393,29.133-18.433-21.861c-20.33,15.572-27.1,41.285-16.7,63.464h-.065c.17.367.38.722.563,1.09.341.687.681,1.362,1.048,2.037q.707,1.279,1.494,2.522c.38.639.76,1.267,1.179,1.883.6.888,1.31,1.753,1.913,2.617.393.5.747,1.018,1.153,1.5,1.048,1.279,2.162,2.51,3.328,3.707.406.414.852.793,1.31,1.184.825.793,1.664,1.575,2.542,2.368.537.474,1.114.912,1.677,1.35q1.218.983,2.476,1.883c.6.426,1.218.841,1.834,1.255.891.58,1.795,1.184,2.7,1.67.616.367,1.231.722,1.86,1.066,1.035.568,2.1,1.078,3.17,1.587.55.261,1.074.533,1.624.782,1.625.711,3.275,1.362,4.965,1.942.314.118.655.19.969.3,1.4.462,2.83.888,4.284,1.255.616.154,1.31.284,1.887.414,1.179.26,2.358.509,3.563.711l2.109.308c1.179.154,2.371.272,3.563.367.707.059,1.4.107,2.122.142,1.31.059,2.62.071,3.93.059h.249q2.882,20.393,6.053,40.75c-10.01-12.256-25.169-20.238-41.9-22.062a65.775,65.775,0,0,0-46.5,12.422l15.9,24.443-25.782-15.336a51.287,51.287,0,0,0-11.791,40.845,50.3,50.3,0,0,0,4.625,14.756c10.077,20.792,33.178,33.912,58.273,33.1s47.094-15.4,55.495-36.792c.236,1.362.458,2.747.694,4.121,2.489,14.211,5.594,31.88,16.6,46.281,7.467,9.758,17.738,16.97,27.721,23.318Q294.1,630.365,304.279,636a63.437,63.437,0,0,0,25.1,12.719c10.9,5.045,22.062,9.64,33.46,13.69l7.1,2.522c6.393,2.25,12.944,4.559,19.4,7.023-1.022.083-2.057.154-3.092.284-26.4,3.27-47.44,21.593-52.036,45.322l43.233,21.317-43.154-1.741c3.862,18.7,18.072,34.309,37.637,41.328a66.751,66.751,0,0,0,58.746-6.748c-.72,1.184-1.428,2.369-2.148,3.612-1.428,2.369-2.843,4.737-4.219,7.106-18.747,32.129-20.11,59.888-3.825,78.161l13.271-9.664c-15.852-17.764-3.275-46.032,5.633-61.3,1.31-2.309,2.738-4.642,4.14-6.987,12.04-20.132,25.691-43.071,20.254-67.432C455.646,678.577,411.562,663.086,376.137,650.557Z" transform="translate(-22.939 -35.924)" fill="#f2f2f2"/><ellipse cx="725.786" cy="27.83" rx="725.786" ry="27.83" transform="translate(0 810.237)" fill="#3f3d56"/><ellipse cx="725.786" cy="27.83" rx="725.786" ry="27.83" transform="translate(0 810.237)" opacity="0.1"/><ellipse cx="725.786" cy="27.83" rx="725.786" ry="27.83" transform="translate(0 794.842)" fill="#3f3d56"/><path d="M139.171,793.084c-3.93-6.525.524-14.519,5.607-20.346s11.28-11.842,11.149-19.291c-.183-10.659-12.708-16.947-22.7-22.6a109.859,109.859,0,0,1-20.385-14.815,27.649,27.649,0,0,1-6.262-7.579c-2.07-4.168-2-8.906-1.873-13.477q.655-22.809,2.489-45.57" transform="translate(-27.814 19.687)" fill="none" stroke="#3f3d56" stroke-miterlimit="10" stroke-width="4"/><path d="M92.114,651.165a16.45,16.45,0,0,1,9.171-13.607l4.114,7.354-.118-8.906a19.974,19.974,0,0,1,6.053-.663c10.107.447,17.9,8.209,17.425,17.346s-9.055,16.2-19.164,15.776-17.93-8.162-17.48-17.3Z" transform="translate(-31.706 17.092)" fill="#6c63ff"/><path d="M117.621,747.483c3.758,6.762,12.1,10.365,20.285,8.758s14.119-8.017,14.433-15.579a14.951,14.951,0,0,0-1.192-6.738c-2.7-6.5-9.595-10.794-17.276-10.754s-14.523,4.4-17.139,10.931l11.489,8.444-12.629-2.653a15.187,15.187,0,0,0,2.031,7.591Z" transform="translate(-24.421 33.278)" fill="#6c63ff"/><path d="M128.208,721.619c9.5.649,17.966-5.382,19.489-13.882s-4.406-16.639-13.646-18.733l.092,6.857-4.166-7.449h0c-10.148-.428-18.758,6.66-19.232,15.834s7.368,16.956,17.516,17.385Z" transform="translate(-25.93 26.87)" fill="#6c63ff"/><path d="M94.148,698.943c10.13.431,18.728-6.641,19.206-15.8s-7.347-16.93-17.476-17.361a19.758,19.758,0,0,0-9.852,2.108l3.249,8.053-6.695-5.8a15.974,15.974,0,0,0-5.935,11.476,14.327,14.327,0,0,0,.472,4.559C79,693.4,85.951,698.61,94.148,698.942Z" transform="translate(-36.505 22.7)" fill="#6c63ff"/><path d="M94.493,654.178c4.245.426,8.371,1.622,12.629,1.859s8.935-.687,11.634-3.671c1.454-1.622,2.175-3.66,3.393-5.412a12.76,12.76,0,0,1,4.638-3.944,15.3,15.3,0,0,1-2.18,17.463,19.443,19.443,0,0,1-18.32,5.882c-6.848-1.367-12.235-6.144-13.877-12.307C93.1,654.071,93.8,654.119,94.493,654.178Z" transform="translate(-31.609 18.508)" opacity="0.1"/><path d="M94.022,697.465a19.023,19.023,0,0,0,16.184-7.354,15.23,15.23,0,0,0,1.305-16.331,13.049,13.049,0,0,0-3.694,3.351c-1.31,1.788-2.109,3.849-3.642,5.495-2.869,3.044-7.756,4.038-12.2,3.849s-8.725-1.315-13.1-1.682c-.616,0-1.231-.095-1.847-.106,1.87,7.213,8.806,12.429,16.992,12.778Z" transform="translate(-36.378 24.178)" opacity="0.1"/><path d="M128.02,720.091a19.045,19.045,0,0,0,16.1-7.219,15.236,15.236,0,0,0,1.551-16.182,14.362,14.362,0,0,0-3.93,3.375c-1.428,1.824-2.319,3.92-3.93,5.6-3.092,3.127-8.306,4.228-13.009,4.121s-8.935-1.1-13.468-1.409C113.6,715.078,120.278,719.767,128.02,720.091Z" transform="translate(-25.742 28.399)" opacity="0.1"/><path d="M117.14,745.81c3.758,6.762,12.1,10.365,20.285,8.758s14.119-8.018,14.433-15.579a14.953,14.953,0,0,0-1.192-6.739,17.877,17.877,0,0,0-4.035,3.245c-1.756,1.93-2.9,4.109-4.926,5.921-3.76,3.34-9.826,4.737-15.223,4.844a90.315,90.315,0,0,1-9.341-.45Z" transform="translate(-23.941 34.951)" opacity="0.1"/><path d="M164.973,765.493s-14.516-.4-18.878-3.221-22.271-6.182-23.411-1.658-21.813,22.5-5.424,22.572,38.071-2.368,42.434-4.737S164.973,765.493,164.973,765.493Z" transform="translate(-25.855 39.769)" fill="#656380"/><path d="M116.946,780.515c16.389.118,38.071-2.368,42.447-4.737,3.314-1.824,4.638-8.4,5.083-11.428h.485s-.917,10.576-5.24,13.027-26.058,4.832-42.434,4.737c-4.729,0-6.367-1.551-6.275-3.813C111.627,779.639,113.435,780.515,116.946,780.515Z" transform="translate(-25.842 40.866)" opacity="0.2"/><path d="M1109.172,802.084c-3.93-6.526.524-14.519,5.607-20.346s11.28-11.843,11.149-19.292c-.184-10.658-12.708-16.947-22.7-22.6a109.837,109.837,0,0,1-20.385-14.815,27.657,27.657,0,0,1-6.262-7.579c-2.07-4.169-2-8.906-1.874-13.477q.642-22.809,2.489-45.57" transform="translate(272.966 21.346)" fill="none" stroke="#3f3d56" stroke-miterlimit="10" stroke-width="4"/><path d="M1062.118,660.165a16.451,16.451,0,0,1,9.171-13.607l4.113,7.354-.118-8.906a19.983,19.983,0,0,1,6.053-.663c10.105.453,17.9,8.218,17.412,17.353s-9.061,16.19-19.167,15.768-17.926-8.163-17.476-17.3Z" transform="translate(269.07 18.75)" fill="#6c63ff"/><path d="M1087.62,756.483c3.759,6.762,12.1,10.365,20.285,8.758s14.119-8.017,14.433-15.579a14.954,14.954,0,0,0-1.192-6.738c-2.7-6.5-9.595-10.793-17.277-10.754s-14.522,4.4-17.139,10.932l11.49,8.443-12.629-2.653A15.183,15.183,0,0,0,1087.62,756.483Z" transform="translate(276.358 34.936)" fill="#6c63ff"/><path d="M1098.208,730.619c9.5.649,17.966-5.382,19.488-13.882s-4.406-16.639-13.645-18.732l.092,6.857-4.166-7.449h0c-10.148-.428-18.758,6.66-19.233,15.834s7.368,16.956,17.516,17.385Z" transform="translate(274.85 28.529)" fill="#6c63ff"/><path d="M1064.148,707.942c10.13.432,18.729-6.641,19.206-15.8s-7.347-16.929-17.476-17.361a19.76,19.76,0,0,0-9.852,2.108l3.249,8.053-6.694-5.8a15.973,15.973,0,0,0-5.935,11.475,14.312,14.312,0,0,0,.472,4.559C1049,702.4,1055.952,707.61,1064.148,707.942Z" transform="translate(264.275 24.359)" fill="#6c63ff"/><path d="M1064.493,663.178c4.245.426,8.371,1.622,12.629,1.859s8.934-.687,11.634-3.671c1.454-1.622,2.175-3.659,3.393-5.412a12.759,12.759,0,0,1,4.638-3.944,15.3,15.3,0,0,1-2.18,17.463,19.443,19.443,0,0,1-18.32,5.882c-6.848-1.367-12.235-6.144-13.877-12.307C1063.1,663.071,1063.8,663.118,1064.493,663.178Z" transform="translate(269.171 20.166)" opacity="0.1"/><path d="M1064.022,706.465a19.022,19.022,0,0,0,16.184-7.354,15.229,15.229,0,0,0,1.306-16.331,13.047,13.047,0,0,0-3.694,3.351c-1.31,1.788-2.109,3.849-3.642,5.5-2.869,3.044-7.756,4.038-12.2,3.849s-8.725-1.315-13.1-1.682c-.615,0-1.231-.095-1.847-.107C1048.9,700.9,1055.836,706.115,1064.022,706.465Z" transform="translate(264.402 25.836)" opacity="0.1"/><path d="M1098.021,729.091a19.046,19.046,0,0,0,16.1-7.219,15.236,15.236,0,0,0,1.551-16.182,14.369,14.369,0,0,0-3.93,3.375c-1.427,1.824-2.319,3.92-3.93,5.6-3.092,3.126-8.306,4.228-13.009,4.121s-8.934-1.1-13.468-1.409C1083.6,724.078,1090.278,728.767,1098.021,729.091Z" transform="translate(275.038 30.057)" opacity="0.1"/><path d="M1087.14,754.81c3.759,6.762,12.1,10.365,20.285,8.758s14.118-8.017,14.433-15.579a14.953,14.953,0,0,0-1.192-6.738,17.883,17.883,0,0,0-4.035,3.245c-1.755,1.93-2.9,4.109-4.926,5.921-3.76,3.339-9.826,4.737-15.223,4.844A90.318,90.318,0,0,1,1087.14,754.81Z" transform="translate(276.839 36.609)" opacity="0.1"/><path d="M1134.973,774.493s-14.516-.4-18.879-3.221-22.271-6.182-23.411-1.658-21.813,22.5-5.424,22.572,38.071-2.369,42.433-4.737S1134.973,774.493,1134.973,774.493Z" transform="translate(274.925 41.428)" fill="#656380"/><path d="M1086.946,789.515c16.389.118,38.071-2.368,42.447-4.737,3.315-1.824,4.638-8.4,5.083-11.428h.485s-.917,10.576-5.241,13.027-26.057,4.832-42.433,4.737c-4.73,0-6.367-1.551-6.276-3.813C1081.627,788.639,1083.435,789.515,1086.946,789.515Z" transform="translate(274.937 42.524)" opacity="0.2"/><path d="M950.01,448.58q-13-4.026-26.2-7.461,2.175-8.041,4.048-16.165c19.835-87.055,6.865-157.186-37.429-180.267-42.473-22.146-111.933.947-182.1,56.122Q697.95,309,688.059,317.625q-6.642-5.744-13.494-11.262c-73.509-59.012-147.149-83.869-191.456-60.717-42.434,22.2-55.023,88.132-37.141,170.639q2.62,12.257,6.013,24.372c-10.415,2.676-20.49,5.531-30.132,8.574-86.19,27.108-141.24,69.741-141.24,113.9,0,45.606,59.1,91.353,148.878,119.089q10.926,3.351,22.009,6.229-3.59,13.027-6.393,26.267c-17.031,81.074-3.721,145.45,38.595,167.513,43.717,22.809,117.082-.64,188.508-57.081,5.646-4.465,11.306-9.2,17.031-14.152q10.717,9.344,22,18.143c69.2,53.824,137.559,75.567,179.822,53.434,43.665-22.844,57.853-92,39.433-176.134q-2.1-9.64-4.887-19.67,7.743-2.061,15.145-4.275c93.33-27.948,154.066-73.14,154.066-119.361,0-44.327-56.831-87.185-144.764-114.553Z" transform="translate(26.748 -56.421)" fill="#53c1de"/><path d="M921.536,647.771c-4.454,1.338-9.013,2.617-13.677,3.873a696.52,696.52,0,0,0-41.228-93.236,696.9,696.9,0,0,0,39.63-91.875c8.319,2.179,16.415,4.476,24.2,6.9,75.343,23.436,121.3,58.1,121.3,84.816C1051.759,586.675,1002.12,623.636,921.536,647.771ZM888.1,707.67c8.149,37.2,9.3,70.83,3.93,97.109-4.847,23.626-14.594,39.376-26.647,45.689-25.664,13.418-80.531-4.026-139.707-50.059Q715.5,792.487,705.2,783.534a755.974,755.974,0,0,0,68.242-78.327,892.923,892.923,0,0,0,110.27-15.4q2.489,9.1,4.415,17.764Zm-338.158,140.5c-25.075,8.006-45.041,8.231-57.107,1.942-25.677-13.394-36.355-65.134-21.787-134.413q2.62-12.281,5.935-24.431a901.683,901.683,0,0,0,109.72,14.365A784.391,784.391,0,0,0,656.6,783.676q-7.585,6.644-15.511,12.92c-31.586,24.964-63.251,42.633-91.142,51.574ZM432.509,647.593C392.8,635.324,360.022,619.384,337.541,602c-20.188-15.632-30.381-31.158-30.381-43.746,0-26.8,44.2-60.989,117.907-84.212q13.887-4.37,28.023-7.97a712.027,712.027,0,0,0,39.682,92.94,722.206,722.206,0,0,0-40.167,94.267Q442.465,650.66,432.509,647.593Zm39.368-242.228c-15.3-70.688-5.149-124.015,20.424-137.374,27.237-14.211,87.461,6.063,150.948,57.022,4.061,3.257,8.136,6.667,12.21,10.185a772.953,772.953,0,0,0-69.342,77.592,933.467,933.467,0,0,0-108.645,15.265q-3.131-11.274-5.594-22.678Zm351.246,78.386q-11.935-18.64-24.747-36.807c25.979,2.972,50.858,6.9,74.229,11.736a630.335,630.335,0,0,1-26.058,63.37q-11.28-19.363-23.424-38.3ZM679.852,357.663a694.586,694.586,0,0,1,47.91,52.273q-48.093-2.049-96.226,0a711.475,711.475,0,0,1,48.316-52.261Zm-144.109,126.3q-11.987,18.794-22.992,38.062a651.249,651.249,0,0,1-25.861-63.677c23.228-4.737,48-8.538,73.81-11.464q-13,18.285-24.983,37.079Zm25.691,187.882q-37.786-3.708-75-10.907a663.59,663.59,0,0,1,26.4-64.969q11.044,19.292,23.071,38.086,12.236,19.173,25.507,37.789Zm119.4,89.21a696.651,696.651,0,0,1-48.984-53q23.385.841,47.635.841,24.892,0,49.141-.995a686.139,686.139,0,0,1-47.818,53.15Zm165.974-166.21a628.632,628.632,0,0,1,27.407,64.731q-37.627,7.653-75.985,11.712,12.9-18.51,25-37.458Q835.516,614.576,846.809,594.846ZM793.1,618.129q-18.5,29.038-39.054,56.963c-24.158,1.563-49.115,2.368-74.557,2.368s-49.98-.711-73.718-2.108q-21.079-27.83-39.813-57.045T531.223,559q16.075-30.234,34.625-59.331h0q18.525-29.085,39.473-56.844c24.223-1.658,49.036-2.522,74.138-2.522s50.071.876,74.268,2.534q20.712,27.676,39.3,56.619t35.1,59.059q-16.311,30.341-34.992,59.568Zm71.753-351.085c27.263,14.211,37.861,71.529,20.739,146.694q-1.69,7.331-3.668,14.626a915.012,915.012,0,0,0-108.855-15.549,758.992,758.992,0,0,0-68.819-77.64q9.171-7.982,18.721-15.526C783.074,272.362,839.25,253.7,864.849,267.044Z" transform="translate(34.981 -51.541)" fill="#fff"/><path d="M608.55,456.79c40.156,0,72.71,29.427,72.71,65.726s-32.553,65.726-72.71,65.726-72.71-29.427-72.71-65.726,32.563-65.739,72.723-65.726" transform="translate(105.891 -15.804)" fill="#53c1de"/><path d="M615.555,107.869c0,10.857-9.737,19.659-21.747,19.659s-21.747-8.8-21.747-19.659S581.8,88.21,593.807,88.21a22.872,22.872,0,0,1,15.409,5.73A18.653,18.653,0,0,1,615.555,107.869Z" transform="translate(117.122 -83.717)" fill="#3f3d56"/><path d="M576.855,113.524a18.026,18.026,0,0,1-.353-18.458,21.835,21.835,0,0,1,16.716-10.6c-8.168-.259-15.807,3.644-19.774,10.1a18.073,18.073,0,0,0,.968,20.514c4.561,6.13,12.54,9.432,20.654,8.545A22.131,22.131,0,0,1,576.855,113.524Z" transform="translate(116.703 -84.41)" fill="#3f3d56"/><rect width="58.259" height="82.152" transform="translate(683.745 51.531)" fill="#3f3d56"/><rect width="58.259" height="82.152" transform="translate(683.745 51.531)" opacity="0.1"/><path d="M508.138,379.61s-6.223,15.455-20.961,17.562-23.306,5.613-23.306,5.613l34.953,20.357,18.643-2.108s2.332-21.767,10.1-26.681S508.138,379.61,508.138,379.61Z" transform="translate(83.574 -30.025)" fill="#a0616a"/><path d="M695.269,379.61s6.223,15.455,20.961,17.562,23.306,5.613,23.306,5.613l-34.953,20.357-18.643-2.108s-2.332-21.767-10.1-26.681S695.269,379.61,695.269,379.61Z" transform="translate(148.87 -30.025)" fill="#a0616a"/><path d="M583.834,264.59s-9.315,4.216-12.419,12.648c0,0-17.031,4.915-26.411,18.249,0,0-11.66,11.239-13.206,16.852s-19.363,39.317-19.363,39.317-17.87,52.664-27.184,58.277c0,0,29.516-5.613,34.953,21.068,0,0,6.983,0,14.752-24.573s26.411-54.772,26.411-54.772,6.21-21.056,11.647-24.573,13.979-19.659,21.747-15.4,59.032-.71,59.032-.71,30.263,12.6,31.023,21.021,6.21,9.131,6.983,16.153,29.516,62.481,29.516,62.481,5.437,15.4,7,18.948c0,0,17.031-37.209,39.617-16.142,0,0-.786-14.045-7.769-22.5s-37.285-74.419-37.285-74.419-3.105-9.829-6.21-12.636-27.2-25.284-35.739-25.284c0,0-4.651-10.528-10.087-11.937Z" transform="translate(90.204 -51.218)" fill="#3f3d56"/><path d="M524.857,412.978a41.184,41.184,0,0,1-36.97-4.488,76.083,76.083,0,0,0-16.494-8.645c-8.241-3.008-18.092-5.234-21.092-.2-5.437,9.131,66.015,31.6,66.015,31.6S525.643,426.325,524.857,412.978Z" transform="translate(79.275 -26.883)" fill="#3f3d56"/><path d="M680.871,412.978a41.184,41.184,0,0,0,36.97-4.488,76.092,76.092,0,0,1,16.494-8.645c8.241-3.008,18.092-5.234,21.092-.2,5.437,9.131-66.015,31.6-66.015,31.6S680.085,426.325,680.871,412.978Z" transform="translate(150.848 -26.883)" fill="#3f3d56"/><path d="M585.038,168.265c-.288,2.44-1.179,5.08-3.485,6.371-1.887,1.066-4.271.983-6.446,1.386a14.659,14.659,0,0,0-10.245,8.017,18.875,18.875,0,0,0-.983,12.494,43.172,43.172,0,0,0,1.992,5.992c2.28,5.827,5.031,11.606,9.288,16.449a74.715,74.715,0,0,0,12.184,10.386c2.764,2.037,5.62,4.109,9.027,5.069a31.346,31.346,0,0,0,7.074.853c2.948.118,6.092.2,8.647-1.125,3.93-2.049,5.1-6.573,7.232-10.208,1.808-3.079,4.507-5.7,6.2-8.835a32.483,32.483,0,0,0,2.62-7.721l3.629-14.566c1.31-5.294,2.515-11.262-.773-15.8a2.843,2.843,0,0,0-.969-.912,4.019,4.019,0,0,0-1.991-.178,23.42,23.42,0,0,1-11.987-2.475,5.111,5.111,0,0,1-1.507-1.066,5.233,5.233,0,0,1-.917-2.511,24.39,24.39,0,0,0-1.677-5.27,3.539,3.539,0,0,0-1.14-1.587,4.432,4.432,0,0,0-1.847-.557,165.38,165.38,0,0,0-16.939-1.6c-1.86-.083-4.664-.758-5.948.734S585.2,166.488,585.038,168.265Z" transform="translate(114.389 -70.369)" fill="#a0616a"/><path d="M585.038,168.265c-.288,2.44-1.179,5.08-3.485,6.371-1.887,1.066-4.271.983-6.446,1.386a14.659,14.659,0,0,0-10.245,8.017,18.875,18.875,0,0,0-.983,12.494,43.172,43.172,0,0,0,1.992,5.992c2.28,5.827,5.031,11.606,9.288,16.449a74.715,74.715,0,0,0,12.184,10.386c2.764,2.037,5.62,4.109,9.027,5.069a31.346,31.346,0,0,0,7.074.853c2.948.118,6.092.2,8.647-1.125,3.93-2.049,5.1-6.573,7.232-10.208,1.808-3.079,4.507-5.7,6.2-8.835a32.483,32.483,0,0,0,2.62-7.721l3.629-14.566c1.31-5.294,2.515-11.262-.773-15.8a2.843,2.843,0,0,0-.969-.912,4.019,4.019,0,0,0-1.991-.178,23.42,23.42,0,0,1-11.987-2.475,5.111,5.111,0,0,1-1.507-1.066,5.233,5.233,0,0,1-.917-2.511,24.39,24.39,0,0,0-1.677-5.27,3.539,3.539,0,0,0-1.14-1.587,4.432,4.432,0,0,0-1.847-.557,165.38,165.38,0,0,0-16.939-1.6c-1.86-.083-4.664-.758-5.948.734S585.2,166.488,585.038,168.265Z" transform="translate(114.389 -70.369)" opacity="0.1"/><path d="M579.555,174.619a38.74,38.74,0,0,0-9.341-1.326c-7.494-.166-15.511,2.167-19.835,7.7a16.76,16.76,0,0,0-3,13.583,26.928,26.928,0,0,0,6.813,12.624,38.579,38.579,0,0,1,5.24,6.206c2.07,3.553,2.136,7.8,2.7,11.843,1.31,9.616,5.843,18.652,7.638,28.209s.249,20.63-8.1,26.7c-1.4,1.018-3.1,2.1-3.223,3.719-.183,2.594,3.551,3.695,6.419,3.944,8.581.734,17.385,1.457,25.717-.545,3.446-.829,6.773-2.12,10.284-2.712,8.908-1.5,17.869,1.587,26.791,3.067a131.032,131.032,0,0,0,19.533,1.433,11.43,11.43,0,0,0,4.494-.533,3.255,3.255,0,0,0,2.279-3.245,5.549,5.549,0,0,0-1.546-2.368c-4.507-5.033-5.882-11.724-7.113-18.107l-4.127-21.447c-2.214-11.464-4.271-23.922,1.729-34.213,4.31-7.4,12.262-12.612,16.808-19.9a10.793,10.793,0,0,0,2.031-7.437c-.681-3.659-4.337-6.277-8.083-7.8a33.4,33.4,0,0,0-22.822-.758c.131,5.128-1.31,10.315-2.24,15.4l-1.585,8.29a96.637,96.637,0,0,1-3.55,14.448,14.68,14.68,0,0,1-2.843,5.234,15,15,0,0,1-5.018,3.3,32.564,32.564,0,0,1-13.284,2.748,19.476,19.476,0,0,1-5.869-.817,25.051,25.051,0,0,1-8.083-5.14,12.533,12.533,0,0,1-2.135-2.1,11.164,11.164,0,0,1-1.454-3.162,60.535,60.535,0,0,1-2.5-8.858c-.393-2.3-.524-4.63-.708-6.952C581.062,188.794,581.062,181.215,579.555,174.619Z" transform="translate(109.352 -68.351)" fill="#6c63ff"/><path d="M565.883,288.9s-3.1,37.221,16.31,43.533,2.332-30.9,2.332-30.9L578.3,290.309Z" transform="translate(115.15 -46.739)" fill="#a0616a"/><path d="M622.287,288.9s3.1,37.221-16.31,43.533-2.332-30.9-2.332-30.9l6.223-11.227Z" transform="translate(124.762 -46.739)" fill="#a0616a"/><path d="M554.26,184.335l-6.21,9.131s5.437,31.6,6.21,37.209a67.8,67.8,0,0,0,3.118,11.937s.773,16.852.773,23.176,3.93,16.852,3.93,16.852a70.358,70.358,0,0,0,3.93,17.551c3.1,7.721,6.21,16.852,6.21,16.852s3.93-9.829,19.416,4.915a7.934,7.934,0,0,0,0-11.937s-4.651-18.948-4.651-28.789-8.555-56.844-8.555-56.844S572.876,170.953,554.26,184.335Z" transform="translate(109.677 -66.402)" opacity="0.1"/><path d="M553.08,183.7l-6.21,9.131s5.437,31.6,6.21,37.209a67.4,67.4,0,0,0,3.131,11.937s.773,16.852.773,23.164S560.914,282,560.914,282a70.037,70.037,0,0,0,3.93,17.551c3.1,7.733,6.223,16.852,6.223,16.852s3.93-9.829,19.416,4.915a7.933,7.933,0,0,0,0-11.925s-4.664-18.948-4.664-28.789-8.542-56.844-8.542-56.844S571.722,170.357,553.08,183.7Z" transform="translate(109.311 -66.517)" fill="#6c63ff"/><path d="M639.545,179.842l3.93,4.18s4.572,23.9-5.529,54.1l-3.1,27.38s-5.437,23.176-6.21,28.789-.773,6.312-2.332,8.42a2.518,2.518,0,0,0,0,3.553l-4.664,15.4s-6.983-7.721-20.961,2.108c0,0-3.93-5.613-.786-10.528s3.1-7.023,2.332-8.432,3.105-8.42,3.105-9.829,5.476-33.68,5.476-33.68,2.332-31.6,4.664-42.124c1.428-6.478,1.4-20.914,1.153-31.075-.249-10.587,13.926-16.319,22.271-8.882A8.211,8.211,0,0,1,639.545,179.842Z" transform="translate(125.373 -67.57)" opacity="0.1"/><path d="M641.318,178.857l3.93,4.18s4.572,23.91-5.528,54.1l-3.105,27.38s-5.437,23.176-6.21,28.789-.786,6.324-2.332,8.432a2.508,2.508,0,0,0,0,3.553l-4.638,15.443s-6.983-7.733-20.961,2.1c0,0-3.93-5.613-.773-10.528s3.1-7.023,2.332-8.42,3.1-8.432,3.1-9.829,5.437-33.7,5.437-33.7,2.332-31.6,4.664-42.136.773-42.124.773-42.124S630.444,168.365,641.318,178.857Z" transform="translate(125.932 -68.03)" fill="#6c63ff"/><ellipse cx="31.075" cy="28.091" rx="31.075" ry="28.091" transform="translate(684.125 44.864)" fill="#a0616a"/><path d="M613.931,110.655c-3.059,7.718-11.1,12.91-20.166,13.026S576.5,118.814,573.2,111.176c12.132-4.417,24.525-.486,24.525-.486C603.922,108.725,609.293,108.9,613.931,110.655Z" transform="translate(117.476 -79.872)" opacity="0.1"/><path d="M603.135,111.881S543.33,92.933,558.095,184.9c0,0,13.206,7.721,23.293,2.807,0,0-6.983-63.891,20.2-61.084s22.52,59.686,22.52,59.686,15.537,4.2,20.2-3.553S642.752,99.292,603.135,111.881Z" transform="translate(112.065 -79.653)" fill="#3f3d56"/><path d="M595.706,120.534c-18.656-1.918-21.223,27.558-20.961,46.245.223-18.581,3.681-43.817,20.961-42.029,19.4,2,22.586,31.572,22.808,48.318C618.737,157.7,616.877,122.725,595.706,120.534Z" transform="translate(117.949 -77.778)" opacity="0.1"/><path d="M558.09,173.513a171.1,171.1,0,0,1-2.319-24.313,163.18,163.18,0,0,0,2.319,28.529s13.206,7.721,23.293,2.807c0,0-.157-1.516-.341-4.062C570.994,181.057,558.09,173.513,558.09,173.513Z" transform="translate(112.07 -72.479)" opacity="0.1"/><path d="M628.131,169.231c-4.349,7.2-18.119,4.038-19.979,3.553-.092,2.605-.223,4.169-.223,4.169s15.537,4.2,20.2-3.553c.956-1.587,1.454-6.075,1.31-12.079C629.311,165.169,628.852,168.047,628.131,169.231Z" transform="translate(128.245 -70.246)" opacity="0.1"/><path d="M879.053,793c6.21-10.4-.839-23.14-8.935-32.413s-17.987-18.948-17.778-30.791c.3-16.994,20.241-27.013,36.185-36.025A174.632,174.632,0,0,0,921,670.172c3.93-3.612,7.69-7.473,9.983-12.091,3.3-6.632,3.21-14.211,3-21.459q-1.035-36.369-3.93-72.642" transform="translate(204.031 3.946)" fill="none" stroke="#3f3d56" stroke-miterlimit="10" stroke-width="4"/><path d="M948.609,566.832c-.455-9.014-5.968-17.2-14.62-21.7l-6.55,11.724.2-14.211c-12.227-3.27-25.389.982-32.555,10.515a24.471,24.471,0,0,0,1.177,31.232c7.866,9.071,21.318,12.5,33.271,8.489s19.662-14.553,19.069-26.066Z" transform="translate(215.714 -0.185)" fill="#6c63ff"/><path d="M907.96,720.294c-6.335,11.136-20.433,16.738-33.792,13.429s-22.329-14.625-21.5-27.125S863.9,683.834,877.6,681.993s26.957,5.245,31.773,16.985l-18.341,13.465,20.136-4.228A24.323,24.323,0,0,1,907.96,720.294Z" transform="translate(204.117 25.637)" fill="#6c63ff"/><path d="M891.041,679.09c-14.839.568-27.8-8.987-30.172-22.24s6.6-26.014,20.883-29.7l-.157,10.919,6.629-11.843h.078c16.168-.684,29.888,10.609,30.644,25.225s-11.738,27.017-27.905,27.7Z" transform="translate(206.559 15.41)" fill="#6c63ff"/><path d="M945.371,642.969c-12.428.526-23.87-6.1-28.537-16.525s-1.543-22.379,7.793-29.815a31.786,31.786,0,0,1,33.7-3.233l-5.241,12.826,10.651-9.237c8.72,7.23,11.774,18.491,7.743,28.547s-14.356,16.934-26.175,17.437Z" transform="translate(223.366 8.743)" fill="#6c63ff"/><path d="M944.674,571.639c-6.773.675-13.35,2.582-20.136,2.961s-14.241-1.09-18.525-5.921c-2.319-2.57-3.472-5.815-5.424-8.621a20.255,20.255,0,0,0-7.376-6.277,24.432,24.432,0,0,0,3.023,28.315c7,8.107,18.566,11.817,29.656,9.515s19.7-10.2,22.095-20.256C946.875,571.461,945.775,571.532,944.674,571.639Z" transform="translate(215.718 2.067)" opacity="0.1"/><path d="M945.371,640.61c-10.273.426-20.042-4.042-25.748-11.776a24.356,24.356,0,0,1-2.131-26.013,20.537,20.537,0,0,1,5.9,5.341c2.083,2.842,3.354,6.135,5.8,8.752,4.559,4.844,12.367,6.43,19.442,6.146s13.887-2.108,20.961-2.7c.982-.071,1.965-.13,2.961-.154-3,11.53-14.1,19.861-27.185,20.4Z" transform="translate(223.367 11.103)" opacity="0.1"/><path d="M891.071,676.662c-10.168.43-19.854-3.941-25.586-11.544a24.345,24.345,0,0,1-2.528-25.748,22.506,22.506,0,0,1,6.2,5.388c2.279,2.9,3.695,6.241,6.367,8.929,4.939,4.974,13.245,6.727,20.739,6.561,7.258-.142,14.241-1.753,21.459-2.25C914.082,668.679,903.42,676.147,891.071,676.662Z" transform="translate(206.53 17.837)" opacity="0.1"/><path d="M907.992,717.66c-7.055,12.645-23.865,18.038-38.16,12.242s-21.019-20.73-15.265-33.9A28.428,28.428,0,0,1,861,701.187c2.791,3.067,4.625,6.549,7.86,9.4,5.987,5.317,15.656,7.508,24.263,7.709A140.645,140.645,0,0,0,907.992,717.66Z" transform="translate(204.085 28.272)" opacity="0.1"/><path d="M839,749.017s23.123-.639,30.132-5.128,35.582-9.841,37.311-2.653,34.757,35.788,8.647,35.978-60.67-3.671-67.627-7.508S839,749.017,839,749.017Z" transform="translate(199.895 35.96)" fill="#656380"/><path d="M915.509,773c-26.11.189-60.67-3.683-67.627-7.508-5.24-2.925-7.4-13.382-8.109-18.214H839s1.468,16.864,8.424,20.689,41.517,7.7,67.627,7.508c7.533,0,10.14-2.475,10-6.063C924,771.557,921.129,772.907,915.509,773Z" transform="translate(199.895 37.72)" opacity="0.2"/><path d="M411.249,134.672l-23.909,13.7,14.516-23.863a25.174,25.174,0,0,0-14.411-4.666h-.393a31.215,31.215,0,0,1-4.952-.332l-8.109,4.642,3.472-5.708a28.772,28.772,0,0,1-14.175-9.723l-14.5,8.29,9.171-15.064c-8.489-9.2-19.913-14.851-32.5-14.851-15.079,0-28.507,8.112-37.18,20.748-5.221,7.691-14.6,12.264-24.577,11.985h-.812c-16.651,0-30.132,17.065-30.132,38.121s13.494,38.109,30.132,38.109a24.467,24.467,0,0,0,10.481-2.369c10.861-5.1,25.114-5.2,36.486-.639a41.694,41.694,0,0,0,31.023.059c11.293-4.465,25.376-4.37,36.171.639a24.505,24.505,0,0,0,10.389,2.368c16.651,0,30.132-17.065,30.132-38.109a44.706,44.706,0,0,0-6.314-23.342Z" transform="translate(11.908 -83.922)" fill="#f2f2f2"/><path d="M366.184,182.718a48.926,48.926,0,0,0-25.835,2.534,41.7,41.7,0,0,1-31.01-.059c-11.385-4.559-25.638-4.465-36.5.64A24.467,24.467,0,0,1,262.36,188.2c-14.791,0-27.093-13.477-29.66-31.241a26.779,26.779,0,0,0,7.389-7.2c8.725-12.624,22.1-20.76,37.18-20.76s28.35,8.017,37.023,20.511c5.264,7.678,14.585,12.309,24.577,12.21h.341C351,161.733,361.219,170.271,366.184,182.718Z" transform="translate(11.892 -76.201)" opacity="0.03"/><path d="M867.149,154.519l-11.882,6.833,7.245-11.843a12.578,12.578,0,0,0-7.219-2.368h-.183a15.615,15.615,0,0,1-2.476-.166l-4.048,2.368,1.7-2.913a14.351,14.351,0,0,1-7.075-4.844l-7.232,4.145,4.572-7.508a22,22,0,0,0-16.206-7.413c-7.533,0-14.228,4.05-18.551,10.35a14.281,14.281,0,0,1-12.262,5.921h-.406c-8.306,0-15.039,8.515-15.039,18.948s6.734,19.007,15.039,19.007a12.261,12.261,0,0,0,5.24-1.184,23.8,23.8,0,0,1,18.2-.32,20.877,20.877,0,0,0,15.472,0,23.828,23.828,0,0,1,18.04.32,12.248,12.248,0,0,0,5.24,1.184c8.306,0,15.04-8.5,15.04-19.007a22.214,22.214,0,0,0-3.21-11.511Z" transform="translate(181.008 -75.868)" fill="#f2f2f2"/><path d="M844.685,178.473a24.463,24.463,0,0,0-12.878,1.267,20.877,20.877,0,0,1-15.472,0,23.825,23.825,0,0,0-18.21.32,12.162,12.162,0,0,1-5.24,1.184c-7.389,0-13.52-6.715-14.8-15.573a13.592,13.592,0,0,0,3.695-3.553c4.323-6.3,11.031-10.339,18.551-10.339s14.136,3.991,18.459,10.22a14.627,14.627,0,0,0,12.262,6.087h.2C837.126,168,842.169,172.268,844.685,178.473Z" transform="translate(181.005 -72.004)" opacity="0.03"/><path d="M251.54,306.186l19.206,10.99-11.634-19.126a20.259,20.259,0,0,1,11.594-3.73h.3a24.725,24.725,0,0,0,3.93-.26l6.485,3.718-2.817-4.571a23.189,23.189,0,0,0,11.358-7.792l11.62,6.656L294.328,280c6.8-7.366,15.957-11.843,26.031-11.843,12.092,0,22.848,6.49,29.8,16.58a22.944,22.944,0,0,0,19.651,9.6h.655c13.337,0,24.145,13.666,24.145,30.53s-10.808,30.542-24.145,30.542a19.717,19.717,0,0,1-8.424-1.907A38.207,38.207,0,0,0,332.818,353a33.471,33.471,0,0,1-24.892,0,38.286,38.286,0,0,0-28.979.509,19.78,19.78,0,0,1-8.319,1.859c-13.35,0-24.158-13.666-24.158-30.542a35.87,35.87,0,0,1,5.07-18.64Z" transform="translate(16.162 -50.56)" fill="#f2f2f2"/><path d="M277.89,344.679a39.372,39.372,0,0,1,20.7,2.037,33.47,33.47,0,0,0,24.892,0,38.237,38.237,0,0,1,29.241.509,19.658,19.658,0,0,0,8.411,1.907c11.856,0,21.708-10.788,23.765-25.023a21.637,21.637,0,0,1-5.922-5.779c-6.956-10.114-17.712-16.58-29.8-16.58s-22.7,6.419-29.66,16.437a23.508,23.508,0,0,1-19.651,9.77h-.3C290.048,327.875,281.873,334.72,277.89,344.679Z" transform="translate(25.905 -44.371)" opacity="0.03"/></g></g></svg>