<svg xmlns="http://www.w3.org/2000/svg" xmlns:xlink="http://www.w3.org/1999/xlink" width="1920" height="1080" viewBox="0 0 1920 1080"><defs><clipPath id="b"><rect width="1920" height="1080"/></clipPath></defs><g id="a" clip-path="url(#b)"><rect width="1920" height="1080" fill="#fff"/><g transform="translate(1036 347.96)"><path d="M771.274,259.248l3.528-1.415c.338-.136.671-.283,1.024-.424a31.442,31.442,0,0,1-19.792-33.536,30.972,30.972,0,0,1,27.615-27.132l-2.458,12.682,9.328-12.535h.082c16.768,2.359,28.494,18.183,26.193,35.346-.077.592-.2,1.169-.307,1.75a37.354,37.354,0,0,0,7.583-7.861c4.1-6.047,5.483-13.5,6.9-22.623,2.8-18.069,5.325-36.337,7.6-54.594a31.378,31.378,0,0,1-21.5-34.251c.128-.954.307-1.881.512-2.8.051-.231.1-.461.159-.686.22-.886.466-1.756.753-2.62.046-.141.108-.272.154-.409a19.166,19.166,0,0,1,.845-2.1c.113-.262.225-.524.343-.77.353-.749.727-1.483,1.137-2.2.138-.236.287-.461.425-.7.317-.524.65-1.048.993-1.535.184-.262.364-.524.553-.781l.138-.2h0a30.172,30.172,0,0,1,38.215-8.909l-3.195,16.5,9.216-12.388a31.671,31.671,0,0,1,8.356,35.959h.036c-.087.21-.195.409-.282.618-.169.388-.343.77-.512,1.153-.236.487-.512.964-.742,1.436-.195.356-.384.713-.594,1.048-.3.524-.63,1-.957,1.483-.195.283-.374.576-.573.854a26.024,26.024,0,0,1-1.669,2.1c-.2.236-.425.451-.64.681-.415.451-.829.9-1.27,1.321-.271.262-.558.524-.84.765-.4.367-.819.723-1.244,1.048-.3.246-.609.482-.916.713-.445.33-.9.639-1.352.949-.307.2-.614.409-.927.6-.512.32-1.05.613-1.587.9-.271.141-.512.3-.814.435-.809.4-1.638.776-2.483,1.106-.159.063-.328.11-.486.168a21.326,21.326,0,0,1-2.14.707c-.312.089-.63.162-.947.241-.589.147-1.183.283-1.782.4q-.512.094-1.06.173c-.589.089-1.183.157-1.782.21-.353.031-.7.063-1.06.084-.645.031-1.3.037-1.946.031a1.04,1.04,0,0,0-.128,0q-1.444,11.529-3.031,23.058a30.492,30.492,0,0,1,20.979-12.468,30.145,30.145,0,0,1,23.257,7.06l-8.028,13.929,12.907-8.694a31.823,31.823,0,0,1,5.888,23.141,31.353,31.353,0,0,1-2.3,8.353,30.38,30.38,0,0,1-56.928-2.1c-.118.776-.23,1.572-.348,2.337-1.249,8.044-2.8,18.058-8.31,26.2-3.732,5.534-8.873,9.621-13.87,13.216q-4.874,3.511-9.974,6.692a30.461,30.461,0,0,1-12.559,7.2q-8.192,4.292-16.737,7.761l-3.558,1.425c-3.2,1.279-6.477,2.589-9.728,3.983.512.047,1.024.089,1.536.157a31,31,0,0,1,26.04,25.7l-21.662,12.11,21.6-.99a31.362,31.362,0,0,1-5.847,13.457,30.184,30.184,0,0,1-42.342,6.152l1.075,2.049c.717,1.352,1.423,2.7,2.109,4.035,9.385,18.2,10.066,33.926,1.92,44.276l-6.656-5.476c7.931-10.072,1.638-26.081-2.816-34.728-.676-1.31-1.372-2.62-2.048-3.962-6.026-11.44-12.861-24.4-10.122-38.2C731.5,275.127,753.544,266.323,771.274,259.248Z" transform="translate(-378.229 -85.884)" fill="#f2f2f2"/><path d="M220.326,481.657l-2.755-1.106c-.266-.1-.512-.225-.788-.33a24.56,24.56,0,0,0,15.448-26.193,24.194,24.194,0,0,0-21.561-21.191l1.92,9.9-7.281-9.789h-.067c-13.105,1.832-22.276,14.194-20.48,27.606.061.466.159.912.241,1.368a28.951,28.951,0,0,1-5.919-6.147c-3.19-4.716-4.285-10.544-5.391-17.665-2.166-14.112-4.132-28.376-5.9-42.62a24.5,24.5,0,0,0,16.778-26.752c-.1-.744-.241-1.467-.4-2.185l-.123-.524c-.174-.692-.364-1.373-.589-2.033-.036-.11-.082-.215-.123-.32-.2-.561-.42-1.111-.655-1.651-.092-.2-.179-.4-.271-.6-.276-.582-.568-1.153-.886-1.708-.108-.189-.225-.367-.333-.524-.251-.409-.512-.812-.778-1.2-.143-.2-.282-.414-.43-.613l-.108-.157h0a23.589,23.589,0,0,0-29.844-6.98l2.5,12.891-7.2-9.674a24.74,24.74,0,0,0-6.528,28.083h-.026c.067.162.148.32.22.482.133.3.266.6.41.9q.276.566.584,1.116c.148.283.3.561.461.833.236.393.512.776.748,1.158.154.22.292.451.451.666.41.566.845,1.111,1.3,1.64.159.183.333.351.512.524.323.351.65.7.993,1.048.21.21.435.4.655.6q.476.435.968.833c.236.189.476.372.717.555.348.257.7.524,1.055.739.241.162.481.32.727.472.4.252.819.477,1.239.7.215.115.42.236.635.346.635.314,1.28.6,1.94.859.123.052.256.084.379.131.548.2,1.106.393,1.674.555.241.068.512.126.737.183.461.115.922.225,1.393.314l.824.136c.461.068.927.121,1.393.162.276.026.548.047.829.063.512.026,1.024.031,1.536.026h.1q1.126,9.024,2.365,18.032a23.811,23.811,0,0,0-16.375-9.763,23.538,23.538,0,0,0-18.174,5.5l6.216,10.816L125.2,414.387a24.832,24.832,0,0,0-4.608,18.074,24.437,24.437,0,0,0,1.807,6.53,23.728,23.728,0,0,0,44.461-1.635c.092.6.179,1.216.271,1.824.973,6.288,2.186,14.107,6.487,20.479,2.918,4.318,6.932,7.509,10.834,10.318q3.809,2.746,7.787,5.24a23.861,23.861,0,0,0,9.81,5.628A143.958,143.958,0,0,0,215.13,486.9l2.775,1.116c2.5,1,5.058,2.018,7.583,3.108-.4.037-.8.068-1.208.126a24.206,24.206,0,0,0-20.336,20.055l16.9,9.433-16.865-.77a24.388,24.388,0,0,0,14.709,18.288,23.494,23.494,0,0,0,22.958-2.986c-.282.524-.558,1.048-.84,1.6-.558,1.048-1.111,2.1-1.649,3.144-7.327,14.217-7.859,26.5-1.5,34.586l5.186-4.276c-6.2-7.86-1.28-20.369,2.2-27.124.512-1.022,1.07-2.054,1.618-3.092,4.705-8.909,10.04-19.059,7.915-29.839C251.4,494.056,234.17,487.2,220.326,481.657Z" transform="translate(-82.293 -209.659)" fill="#f2f2f2"/><ellipse cx="283.643" cy="12.315" rx="283.643" ry="12.315" transform="translate(0 358.553)" fill="#3f3d56"/><ellipse cx="283.643" cy="12.315" rx="283.643" ry="12.315" transform="translate(0 358.553)" opacity="0.1"/><ellipse cx="283.643" cy="12.315" rx="283.643" ry="12.315" transform="translate(0 351.741)" fill="#3f3d56"/><path d="M118.14,712.986c-1.536-2.887.2-6.425,2.191-9s4.408-5.24,4.357-8.536c-.072-4.716-4.966-7.5-8.873-10a43.606,43.606,0,0,1-7.967-6.556,12.036,12.036,0,0,1-2.447-3.354,13.908,13.908,0,0,1-.732-5.964q.256-10.093.973-20.165" transform="translate(-74.621 -353.311)" fill="none" stroke="#3f3d56" stroke-miterlimit="10" stroke-width="4"/><path d="M92.1,642.333a7.361,7.361,0,0,1,3.584-6.021l1.608,3.254-.046-3.941a6.94,6.94,0,0,1,2.365-.293,7.338,7.338,0,1,1-7.511,7Z" transform="translate(-68.495 -346.607)" fill="#6c63ff"/><path d="M116.384,733.928a7.118,7.118,0,0,0,7.927,3.875,7.292,7.292,0,0,0,5.64-6.894,7.4,7.4,0,0,0-.466-2.982,7.112,7.112,0,0,0-13.45.079l4.49,3.736-4.936-1.174a7.417,7.417,0,0,0,.794,3.359Z" transform="translate(-79.961 -388.418)" fill="#6c63ff"/><path d="M117.557,703.1a7.205,7.205,0,0,0,7.616-6.143,7.336,7.336,0,0,0-5.333-8.289l.036,3.034-1.628-3.3h0a7.359,7.359,0,0,0-.671,14.7Z" transform="translate(-77.586 -371.867)" fill="#6c63ff"/><path d="M83.471,680.445a7.346,7.346,0,0,0,.676-14.673,6.975,6.975,0,0,0-3.85.933l1.27,3.563L78.95,667.7a7.409,7.409,0,0,0-2.319,5.078,7.335,7.335,0,0,0,6.84,7.667Z" transform="translate(-60.944 -361.095)" fill="#6c63ff"/><path d="M93.224,647.952c1.659.189,3.272.718,4.936.823a5.311,5.311,0,0,0,4.546-1.624,23.04,23.04,0,0,0,1.326-2.395,5.212,5.212,0,0,1,1.812-1.745,7.477,7.477,0,0,1-.852,7.727,7.079,7.079,0,0,1-7.159,2.6,7.25,7.25,0,0,1-5.423-5.446C92.681,647.9,92.953,647.926,93.224,647.952Z" transform="translate(-68.649 -350.265)" opacity="0.1"/><path d="M83.671,684.261A7.117,7.117,0,0,0,90,681.007a7.484,7.484,0,0,0,.51-7.227,5.39,5.39,0,0,0-1.444,1.483,24.775,24.775,0,0,1-1.423,2.432,5.786,5.786,0,0,1-4.767,1.7c-1.736-.084-3.41-.582-5.12-.744-.241,0-.481-.042-.722-.047a7.214,7.214,0,0,0,6.641,5.654Z" transform="translate(-61.143 -364.911)" opacity="0.1"/><path d="M117.853,707.045a7.115,7.115,0,0,0,6.29-3.194,7.484,7.484,0,0,0,.606-7.16,5.876,5.876,0,0,0-1.536,1.493c-.558.807-.906,1.735-1.536,2.479a6.528,6.528,0,0,1-5.084,1.824c-1.838-.047-3.492-.487-5.263-.624A7.2,7.2,0,0,0,117.853,707.045Z" transform="translate(-77.882 -375.815)" opacity="0.1"/><path d="M117.14,738.25a7.118,7.118,0,0,0,7.927,3.875,7.292,7.292,0,0,0,5.64-6.894,7.4,7.4,0,0,0-.466-2.982,7.225,7.225,0,0,0-1.577,1.436,29.972,29.972,0,0,1-1.925,2.62,8.82,8.82,0,0,1-5.949,2.143,31.206,31.206,0,0,1-3.65-.2Z" transform="translate(-80.717 -392.74)" opacity="0.1"/><path d="M132.073,761.54s-5.673-.178-7.378-1.425-8.7-2.735-9.149-.734-8.525,9.957-2.12,9.988,14.878-1.048,16.583-2.1S132.073,761.54,132.073,761.54Z" transform="translate(-77.704 -405.188)" fill="#656380"/><path d="M113.328,771.5c6.405.052,14.878-1.048,16.589-2.1,1.3-.807,1.812-3.715,1.987-5.057h.189s-.358,4.68-2.048,5.764-10.184,2.138-16.583,2.1c-1.848,0-2.488-.686-2.452-1.687C111.249,771.115,111.956,771.5,113.328,771.5Z" transform="translate(-77.724 -408.019)" opacity="0.2"/><path d="M1088.14,721.986c-1.536-2.887.2-6.425,2.191-9s4.408-5.24,4.357-8.536c-.072-4.716-4.966-7.5-8.873-10a43.605,43.605,0,0,1-7.967-6.556,12.038,12.038,0,0,1-2.447-3.354,13.913,13.913,0,0,1-.732-5.964q.251-10.093.973-20.165" transform="translate(-547.99 -357.595)" fill="none" stroke="#3f3d56" stroke-miterlimit="10" stroke-width="4"/><path d="M1062.1,651.334a7.361,7.361,0,0,1,3.584-6.021l1.608,3.254-.046-3.941a6.941,6.941,0,0,1,2.365-.293,7.338,7.338,0,1,1-7.516,7Z" transform="translate(-541.859 -350.891)" fill="#6c63ff"/><path d="M1086.384,742.928a7.118,7.118,0,0,0,7.927,3.875,7.292,7.292,0,0,0,5.64-6.894,7.4,7.4,0,0,0-.466-2.982,7.112,7.112,0,0,0-13.45.079l4.49,3.736-4.936-1.174A7.415,7.415,0,0,0,1086.384,742.928Z" transform="translate(-553.33 -392.702)" fill="#6c63ff"/><path d="M1087.557,712.1a7.2,7.2,0,0,0,7.616-6.143,7.336,7.336,0,0,0-5.333-8.289l.036,3.034-1.628-3.3h0a7.359,7.359,0,0,0-.671,14.7Z" transform="translate(-550.955 -376.15)" fill="#6c63ff"/><path d="M1053.471,689.445a7.346,7.346,0,0,0,.676-14.673,6.976,6.976,0,0,0-3.85.933l1.27,3.563-2.616-2.568a7.409,7.409,0,0,0-2.319,5.078,7.138,7.138,0,0,0,.184,2.018A7.213,7.213,0,0,0,1053.471,689.445Z" transform="translate(-534.313 -365.379)" fill="#6c63ff"/><path d="M1063.224,656.952c1.659.189,3.272.718,4.936.823a5.311,5.311,0,0,0,4.547-1.625,23.028,23.028,0,0,0,1.326-2.395,5.211,5.211,0,0,1,1.813-1.745,7.478,7.478,0,0,1-.852,7.727,7.079,7.079,0,0,1-7.159,2.6,7.25,7.25,0,0,1-5.423-5.446C1062.681,656.9,1062.953,656.925,1063.224,656.952Z" transform="translate(-542.017 -354.549)" opacity="0.1"/><path d="M1053.67,693.261a7.117,7.117,0,0,0,6.325-3.254,7.484,7.484,0,0,0,.51-7.227,5.391,5.391,0,0,0-1.444,1.483,24.748,24.748,0,0,1-1.423,2.432,5.786,5.786,0,0,1-4.767,1.7c-1.736-.084-3.41-.582-5.12-.744-.241,0-.481-.042-.722-.047A7.214,7.214,0,0,0,1053.67,693.261Z" transform="translate(-534.512 -369.194)" opacity="0.1"/><path d="M1087.853,716.045a7.115,7.115,0,0,0,6.29-3.194,7.484,7.484,0,0,0,.606-7.16,5.875,5.875,0,0,0-1.536,1.493c-.558.807-.906,1.735-1.536,2.479a6.528,6.528,0,0,1-5.084,1.824c-1.838-.047-3.492-.487-5.263-.624A7.2,7.2,0,0,0,1087.853,716.045Z" transform="translate(-551.251 -380.099)" opacity="0.1"/><path d="M1087.14,747.25a7.118,7.118,0,0,0,7.927,3.875,7.292,7.292,0,0,0,5.64-6.894,7.4,7.4,0,0,0-.466-2.982,7.224,7.224,0,0,0-1.577,1.436,29.984,29.984,0,0,1-1.925,2.62,8.82,8.82,0,0,1-5.949,2.143,31.206,31.206,0,0,1-3.651-.2Z" transform="translate(-554.086 -397.024)" opacity="0.1"/><path d="M1102.073,770.54s-5.673-.178-7.378-1.425-8.7-2.735-9.149-.734-8.525,9.957-2.12,9.988,14.878-1.048,16.583-2.1S1102.073,770.54,1102.073,770.54Z" transform="translate(-551.073 -409.471)" fill="#656380"/><path d="M1083.328,780.5c6.405.052,14.879-1.048,16.589-2.1,1.3-.807,1.813-3.715,1.987-5.057h.189s-.358,4.68-2.048,5.764-10.183,2.138-16.583,2.1c-1.848,0-2.488-.687-2.453-1.687C1081.249,780.115,1081.956,780.5,1083.328,780.5Z" transform="translate(-551.093 -412.303)" opacity="0.2"/><path d="M542.217,330.263q-5.079-1.782-10.24-3.3.85-3.558,1.582-7.153c7.752-38.522,2.683-69.555-14.628-79.769-16.6-9.8-43.744.419-71.167,24.834q-4.055,3.626-7.92,7.441-2.6-2.542-5.273-4.984c-28.728-26.113-57.507-37.112-74.822-26.867-16.583,9.826-21.5,39-14.515,75.508q1.024,5.424,2.35,10.785c-4.07,1.184-8.008,2.447-11.776,3.794-33.684,12-55.2,30.86-55.2,50.4,0,20.181,23.1,40.424,58.183,52.7q4.27,1.483,8.6,2.756-1.4,5.764-2.5,11.623c-6.656,35.875-1.454,64.362,15.083,74.125,17.085,10.093,45.757-.283,73.67-25.259,2.207-1.976,4.418-4.072,6.656-6.262q4.188,4.135,8.6,8.028c27.043,23.817,53.759,33.439,70.276,23.644,17.065-10.109,22.609-40.712,15.411-77.94q-.819-4.266-1.91-8.7,3.026-.912,5.919-1.892c36.474-12.367,60.21-32.364,60.21-52.817,0-19.615-22.21-38.579-56.575-50.69Z" transform="translate(-160.492 -156.71)" fill="#53c1de"/><path d="M547.263,433.172c-1.741.592-3.522,1.158-5.345,1.714a330.249,330.249,0,0,0-16.112-41.257,331.178,331.178,0,0,0,15.488-40.655c3.251.964,6.415,1.981,9.456,3.055,29.445,10.371,47.405,25.709,47.405,37.531C598.155,406.137,578.756,422.492,547.263,433.172ZM534.2,459.678c3.185,16.46,3.635,31.343,1.536,42.971-1.894,10.454-5.7,17.424-10.414,20.217-10.03,5.937-31.472-1.782-54.6-22.151q-3.978-3.506-8-7.467a326.123,326.123,0,0,0,26.67-34.66,310.77,310.77,0,0,0,43.094-6.812q.973,4.025,1.725,7.86ZM402.042,521.849c-9.8,3.542-17.6,3.642-22.318.859-10.035-5.927-14.208-28.822-8.514-59.478q1.024-5.434,2.319-10.811a313.525,313.525,0,0,0,42.879,6.357,336.715,336.715,0,0,0,27.315,34.534q-2.964,2.94-6.062,5.717c-12.344,11.047-24.719,18.865-35.619,22.822Zm-45.895-88.756c-15.518-5.429-28.328-12.482-37.114-20.175-7.89-6.917-11.873-13.787-11.873-19.358,0-11.859,17.275-26.988,46.079-37.264q5.427-1.934,10.951-3.527A338.676,338.676,0,0,0,379.7,393.9,343.584,343.584,0,0,0,364,435.609Q360.038,434.451,356.147,433.093Zm15.385-107.186c-5.98-31.28-2.012-54.877,7.982-60.788,10.644-6.288,34.181,2.683,58.992,25.232,1.587,1.441,3.179,2.95,4.772,4.507a331.929,331.929,0,0,0-27.1,34.335,324.914,324.914,0,0,0-42.459,6.755q-1.224-4.989-2.186-10.035ZM508.8,360.593q-4.664-8.248-9.672-16.287A292.643,292.643,0,0,1,528.14,349.5q-4.4,14.275-10.184,28.041-4.408-8.568-9.154-16.947ZM452.811,304.8a296.926,296.926,0,0,1,18.724,23.131q-18.8-.907-37.606,0c6.18-8.343,12.513-16.1,18.882-23.126Zm-56.319,55.888q-4.685,8.316-8.985,16.842c-3.958-9.606-7.342-19.054-10.107-28.177,9.078-2.1,18.759-3.778,28.846-5.073q-5.079,8.091-9.764,16.408Zm10.04,83.138A282.966,282.966,0,0,1,377.221,439c2.811-9.281,6.272-18.933,10.317-28.749q4.316,8.537,9.016,16.853,4.782,8.484,9.968,16.722ZM453.2,483.3a297.281,297.281,0,0,1-19.143-23.451q9.139.372,18.616.372,9.728,0,19.2-.44A294.286,294.286,0,0,1,453.185,483.3Zm64.864-73.548A299.251,299.251,0,0,1,528.77,438.4a281.378,281.378,0,0,1-29.7,5.183q5.043-8.191,9.769-16.575Q513.646,418.483,518.059,409.753Zm-20.992,10.3q-7.229,12.849-15.262,25.206c-9.441.692-19.195,1.048-29.137,1.048s-19.532-.314-28.81-.933q-8.238-12.315-15.559-25.243T394.726,393.89q6.282-13.379,13.532-26.254h0q7.24-12.87,15.426-25.154c9.467-.734,19.164-1.116,28.974-1.116s19.568.388,29.025,1.121q8.095,12.247,15.36,25.054t13.716,26.134q-6.374,13.426-13.675,26.359ZM525.109,264.7c10.655,6.288,14.8,31.652,8.1,64.912q-.66,3.244-1.434,6.472a318.575,318.575,0,0,0-42.541-6.881,326.413,326.413,0,0,0-26.895-34.356q3.584-3.532,7.316-6.87C493.151,267.053,515.105,258.794,525.109,264.7Z" transform="translate(-173.448 -169.317)" fill="#fff"/><path d="M564.255,456.79c15.693,0,28.416,13.021,28.416,29.084s-12.722,29.084-28.416,29.084-28.415-13.021-28.415-29.084,12.726-29.09,28.421-29.084" transform="translate(-285.046 -261.631)" fill="#53c1de"/><path d="M589.058,96.909a8.5,8.5,0,1,1-8.5-8.7,8.36,8.36,0,0,1,6.022,2.535A8.762,8.762,0,0,1,589.058,96.909Z" transform="translate(-302.722 -86.2)" fill="#3f3d56"/><path d="M573.111,97.315a8.89,8.89,0,0,1-.138-8.168,8.518,8.518,0,0,1,6.533-4.692,8.462,8.462,0,0,0-7.728,4.471A8.873,8.873,0,0,0,572.156,98a8.425,8.425,0,0,0,8.072,3.781A8.478,8.478,0,0,1,573.111,97.315Z" transform="translate(-302.063 -84.41)" fill="#3f3d56"/><rect width="22.768" height="36.352" transform="translate(267.213 22.825)" fill="#3f3d56"/><rect width="22.768" height="36.352" transform="translate(267.213 22.825)" opacity="0.1"/><path d="M481.17,379.61s-2.432,6.839-8.192,7.771a38.191,38.191,0,0,0-9.108,2.484l13.66,9.008,7.286-.933s.911-9.632,3.947-11.807S481.17,379.61,481.17,379.61Z" transform="translate(-249.924 -224.896)" fill="#a0616a"/><path d="M682.583,379.61s2.432,6.839,8.192,7.771a38.191,38.191,0,0,1,9.108,2.484l-13.66,9.008-7.286-.933s-.911-9.632-3.948-11.807S682.583,379.61,682.583,379.61Z" transform="translate(-352.687 -224.896)" fill="#a0616a"/><path d="M523.777,264.59a10.743,10.743,0,0,0-4.854,5.6s-6.656,2.175-10.322,8.075c0,0-4.557,4.973-5.161,7.457s-7.567,17.4-7.567,17.4-6.984,23.3-10.624,25.788c0,0,11.535-2.484,13.66,9.323,0,0,2.729,0,5.765-10.874S515,303.117,515,303.117s2.427-9.317,4.552-10.874,5.463-8.7,8.5-6.812,23.07-.314,23.07-.314,11.827,5.576,12.124,9.3,2.427,4.04,2.729,7.148,11.535,27.648,11.535,27.648,2.125,6.812,2.734,8.385c0,0,6.656-16.465,15.483-7.143,0,0-.307-6.215-3.036-9.957s-14.571-32.93-14.571-32.93-1.213-4.349-2.427-5.591-10.629-11.188-13.967-11.188c0,0-1.818-4.659-3.942-5.282Z" transform="translate(-260.358 -170.15)" fill="#3f3d56"/><path d="M479.257,403.883a14.513,14.513,0,0,1-14.448-1.986,28.708,28.708,0,0,0-6.446-3.825c-3.22-1.331-7.071-2.316-8.243-.089-2.125,4.04,25.8,13.981,25.8,13.981S479.565,409.788,479.257,403.883Z" transform="translate(-243.158 -233.013)" fill="#3f3d56"/><path d="M680.842,403.883a14.513,14.513,0,0,0,14.448-1.986,28.71,28.71,0,0,1,6.446-3.825c3.22-1.331,7.071-2.316,8.243-.089,2.125,4.04-25.8,13.981-25.8,13.981S680.535,409.788,680.842,403.883Z" transform="translate(-355.8 -233.013)" fill="#3f3d56"/><path d="M571.762,164.02a3.682,3.682,0,0,1-1.362,2.819,7.244,7.244,0,0,1-2.519.613,5.911,5.911,0,0,0-4,3.548,9.379,9.379,0,0,0-.384,5.529,20.919,20.919,0,0,0,.778,2.652,25.058,25.058,0,0,0,3.63,7.279,30.513,30.513,0,0,0,4.761,4.6,8.163,8.163,0,0,0,6.292,2.62,6.06,6.06,0,0,0,3.379-.5c1.536-.907,1.992-2.908,2.826-4.517.707-1.362,1.761-2.521,2.422-3.909a15.716,15.716,0,0,0,1.024-3.417l1.418-6.446c.512-2.342.983-4.984-.3-6.991a1.183,1.183,0,0,0-.379-.4,1.4,1.4,0,0,0-.778-.079,8.26,8.26,0,0,1-4.685-1.1,2.02,2.02,0,0,1-.589-.472,2.513,2.513,0,0,1-.358-1.111,11.841,11.841,0,0,0-.655-2.332,1.2,1.2,0,0,0-1.167-.949,57.305,57.305,0,0,0-6.62-.707c-.727-.037-1.823-.335-2.324.325S571.824,163.234,571.762,164.02Z" transform="translate(-298.42 -120.679)" fill="#a0616a"/><path d="M571.762,164.02a3.682,3.682,0,0,1-1.362,2.819,7.244,7.244,0,0,1-2.519.613,5.911,5.911,0,0,0-4,3.548,9.379,9.379,0,0,0-.384,5.529,20.919,20.919,0,0,0,.778,2.652,25.058,25.058,0,0,0,3.63,7.279,30.513,30.513,0,0,0,4.761,4.6,8.163,8.163,0,0,0,6.292,2.62,6.06,6.06,0,0,0,3.379-.5c1.536-.907,1.992-2.908,2.826-4.517.707-1.362,1.761-2.521,2.422-3.909a15.716,15.716,0,0,0,1.024-3.417l1.418-6.446c.512-2.342.983-4.984-.3-6.991a1.183,1.183,0,0,0-.379-.4,1.4,1.4,0,0,0-.778-.079,8.26,8.26,0,0,1-4.685-1.1,2.02,2.02,0,0,1-.589-.472,2.513,2.513,0,0,1-.358-1.111,11.841,11.841,0,0,0-.655-2.332,1.2,1.2,0,0,0-1.167-.949,57.305,57.305,0,0,0-6.62-.707c-.727-.037-1.823-.335-2.324.325S571.824,163.234,571.762,164.02Z" transform="translate(-298.42 -120.679)" opacity="0.1"/><path d="M559.724,172.94a13.5,13.5,0,0,0-3.65-.587c-2.929-.073-6.062.959-7.752,3.406a8.193,8.193,0,0,0-1.172,6.011,12.471,12.471,0,0,0,2.662,5.586,16.735,16.735,0,0,1,2.048,2.746c.809,1.572.835,3.453,1.055,5.24.512,4.255,2.284,8.254,2.985,12.482s.1,9.129-3.164,11.817c-.548.451-1.213.928-1.26,1.645-.072,1.148,1.388,1.635,2.509,1.745,3.354.325,6.794.645,10.05-.241,1.347-.367,2.647-.938,4.019-1.2,3.481-.666,6.984.7,10.47,1.357a45.348,45.348,0,0,0,7.634.634,3.979,3.979,0,0,0,1.756-.236,1.443,1.443,0,0,0,.891-1.436,2.508,2.508,0,0,0-.6-1.048c-1.761-2.227-2.3-5.188-2.78-8.012l-1.613-9.49c-.865-5.073-1.669-10.585.676-15.139,1.684-3.275,4.792-5.581,6.569-8.8a5.25,5.25,0,0,0,.794-3.291,5.086,5.086,0,0,0-3.159-3.453,11.632,11.632,0,0,0-8.919-.335,38.059,38.059,0,0,1-.875,6.812l-.62,3.668a47.493,47.493,0,0,1-1.388,6.393,6.8,6.8,0,0,1-1.111,2.316,5.86,5.86,0,0,1-1.961,1.462,11.467,11.467,0,0,1-5.192,1.216,6.786,6.786,0,0,1-2.294-.362,9.731,9.731,0,0,1-3.159-2.274,4,4,0,0,1-1.4-2.327,29.59,29.59,0,0,1-.978-3.92c-.154-1.017-.2-2.049-.276-3.076A73.238,73.238,0,0,0,559.724,172.94Z" transform="translate(-290.494 -125.894)" fill="#6c63ff"/><path d="M565.772,288.9s-1.213,16.47,6.374,19.264.911-13.672.911-13.672l-2.432-4.968Z" transform="translate(-299.619 -181.721)" fill="#a0616a"/><path d="M606.7,288.9s1.213,16.47-6.374,19.264-.911-13.672-.911-13.672l2.432-4.968Z" transform="translate(-314.746 -181.721)" fill="#a0616a"/><path d="M550.477,183.135l-2.427,4.04s2.125,13.981,2.427,16.465a33.248,33.248,0,0,0,1.219,5.282s.3,7.457.3,10.255a31.853,31.853,0,0,0,1.536,7.457,34.671,34.671,0,0,0,1.536,7.766c1.213,3.417,2.427,7.457,2.427,7.457s1.536-4.349,7.588,2.175a3.826,3.826,0,0,0,0-5.282s-1.818-8.385-1.818-12.739-3.343-25.154-3.343-25.154S557.752,177.214,550.477,183.135Z" transform="translate(-291.005 -130.928)" opacity="0.1"/><path d="M549.3,182.509l-2.427,4.04s2.125,13.981,2.427,16.465a33.045,33.045,0,0,0,1.224,5.282s.3,7.457.3,10.25A31.923,31.923,0,0,0,552.359,226a34.512,34.512,0,0,0,1.536,7.766c1.213,3.422,2.432,7.457,2.432,7.457s1.536-4.349,7.588,2.175a3.826,3.826,0,0,0,0-5.277s-1.823-8.385-1.823-12.739-3.338-25.154-3.338-25.154S556.583,176.6,549.3,182.509Z" transform="translate(-290.429 -130.632)" fill="#6c63ff"/><path d="M614.644,177.614l1.536,1.85a58.446,58.446,0,0,1-2.161,23.938l-1.213,12.116s-2.125,10.255-2.427,12.739-.3,2.793-.911,3.726a1.221,1.221,0,0,0,0,1.572l-1.823,6.812s-2.729-3.417-8.192.933c0,0-1.536-2.484-.307-4.659s1.213-3.108.911-3.731,1.213-3.726,1.213-4.349,2.14-14.9,2.14-14.9.911-13.981,1.823-18.64c.558-2.866.548-9.254.451-13.751-.1-4.685,5.442-7.221,8.7-3.93A3.437,3.437,0,0,1,614.644,177.614Z" transform="translate(-315.708 -127.911)" opacity="0.1"/><path d="M616.435,175.786l1.536,1.85a58.446,58.446,0,0,1-2.161,23.938L614.6,213.689s-2.125,10.255-2.427,12.739-.307,2.8-.911,3.731a1.216,1.216,0,0,0,0,1.572l-1.812,6.833s-2.729-3.422-8.192.928c0,0-1.536-2.484-.3-4.659s1.213-3.108.911-3.726,1.213-3.731,1.213-4.349,2.125-14.914,2.125-14.914.911-13.981,1.823-18.645.3-18.64.3-18.64A6.893,6.893,0,0,1,616.435,175.786Z" transform="translate(-316.588 -126.723)" fill="#6c63ff"/><ellipse cx="12.144" cy="12.43" rx="12.144" ry="12.43" transform="translate(267.362 19.875)" fill="#a0616a"/><path d="M589.118,109.776a8.432,8.432,0,0,1-15.918.231,14.713,14.713,0,0,1,9.584-.215A8.4,8.4,0,0,1,589.118,109.776Z" transform="translate(-303.278 -96.133)" opacity="0.1"/><path d="M574.269,110.982s-23.372-8.385-17.6,32.312c0,0,5.161,3.417,9.1,1.242,0,0-2.729-28.272,7.895-27.03s8.8,26.411,8.8,26.411,6.072,1.86,7.895-1.572S589.752,105.411,574.269,110.982Z" transform="translate(-294.763 -96.698)" fill="#3f3d56"/><path d="M582.926,120.484c-7.291-.849-8.294,12.194-8.192,20.464.087-8.222,1.439-19.389,8.192-18.6,7.583.886,8.827,13.971,8.914,21.381C591.926,136.928,591.2,121.454,582.926,120.484Z" transform="translate(-304.024 -101.542)" opacity="0.1"/><path d="M556.675,159.958a85.457,85.457,0,0,1-.906-10.758,81.555,81.555,0,0,0,.906,12.624s5.161,3.417,9.1,1.242c0,0-.061-.671-.133-1.8C561.718,163.3,556.675,159.958,556.675,159.958Z" transform="translate(-294.771 -115.229)" opacity="0.1"/><path d="M615.825,164.821c-1.7,3.186-7.081,1.787-7.808,1.572-.036,1.153-.087,1.845-.087,1.845s6.072,1.86,7.895-1.572c.374-.7.568-2.688.512-5.345A9.946,9.946,0,0,1,615.825,164.821Z" transform="translate(-320.227 -120.998)" opacity="0.1"/><path d="M862.778,665.323c2.427-4.6-.328-10.24-3.492-14.343s-7.03-8.385-6.948-13.625c.118-7.52,7.91-11.953,14.141-15.941a69.317,69.317,0,0,0,12.692-10.444,18.894,18.894,0,0,0,3.9-5.35c1.29-2.935,1.254-6.288,1.172-9.5q-.4-16.093-1.536-32.144" transform="translate(-439.5 -312.65)" fill="none" stroke="#3f3d56" stroke-miterlimit="10" stroke-width="4"/><path d="M912.913,552.743a11.731,11.731,0,0,0-5.714-9.6l-2.56,5.188.077-6.288a11.32,11.32,0,0,0-12.723,4.653,11.945,11.945,0,0,0,.46,13.82,11.292,11.292,0,0,0,13,3.756,11.729,11.729,0,0,0,7.452-11.534Z" transform="translate(-457.887 -301.978)" fill="#6c63ff"/><path d="M874.244,698.78a11.354,11.354,0,0,1-13.206,5.942,11.775,11.775,0,0,1,1.342-22.891,11.42,11.42,0,0,1,12.417,7.516l-7.168,5.958,7.869-1.871A11.883,11.883,0,0,1,874.244,698.78Z" transform="translate(-439.635 -368.682)" fill="#6c63ff"/><path d="M872.43,649.6a11.523,11.523,0,0,1-11.791-9.841,11.734,11.734,0,0,1,8.161-13.143l-.061,4.832,2.591-5.24h.031a11.725,11.725,0,0,1,1.07,23.419Z" transform="translate(-443.479 -342.262)" fill="#6c63ff"/><path d="M926.682,613.447a11.443,11.443,0,0,1-11.153-7.312,11.91,11.91,0,0,1,3.045-13.193,11.247,11.247,0,0,1,13.171-1.431l-2.048,5.675,4.162-4.088a11.911,11.911,0,0,1,3.026,12.632,11.485,11.485,0,0,1-10.23,7.716Z" transform="translate(-469.93 -325.041)" fill="#6c63ff"/><path d="M911.385,561.682c-2.647.3-5.217,1.142-7.869,1.31s-5.565-.482-7.24-2.62a36.054,36.054,0,0,1-2.12-3.815,8.274,8.274,0,0,0-2.883-2.777,11.949,11.949,0,0,0,1.182,12.529,11.311,11.311,0,0,0,11.59,4.21,11.6,11.6,0,0,0,8.635-8.963C912.245,561.6,911.815,561.635,911.385,561.682Z" transform="translate(-457.894 -307.795)" opacity="0.1"/><path d="M926.683,619.542a11.384,11.384,0,0,1-10.063-5.211,11.97,11.97,0,0,1-.833-11.511,8.484,8.484,0,0,1,2.3,2.363,38.606,38.606,0,0,0,2.268,3.873c1.782,2.143,4.833,2.846,7.6,2.72s5.427-.933,8.192-1.195c.384-.031.768-.058,1.157-.068a11.527,11.527,0,0,1-10.624,9.029Z" transform="translate(-469.931 -331.136)" opacity="0.1"/><path d="M872.383,655.872a11.37,11.37,0,0,1-10-5.108,11.958,11.958,0,0,1-.988-11.394,9.227,9.227,0,0,1,2.422,2.384,40.374,40.374,0,0,0,2.488,3.951c1.93,2.2,5.176,2.977,8.1,2.9,2.836-.063,5.565-.776,8.386-1A11.5,11.5,0,0,1,872.383,655.872Z" transform="translate(-443.432 -348.533)" opacity="0.1"/><path d="M874.193,705.585A11.336,11.336,0,0,1,859.28,711a11.828,11.828,0,0,1-5.966-15,11.5,11.5,0,0,1,2.514,2.3,45.511,45.511,0,0,0,3.072,4.161c2.34,2.353,6.118,3.322,9.482,3.411A48.588,48.588,0,0,0,874.193,705.585Z" transform="translate(-439.585 -375.487)" opacity="0.1"/><path d="M839,742.721s9.037-.283,11.776-2.269,13.906-4.355,14.581-1.174,13.583,15.836,3.379,15.92-23.71-1.625-26.429-3.322S839,742.721,839,742.721Z" transform="translate(-432.991 -395.345)" fill="#656380"/><path d="M868.9,758.662c-10.2.084-23.71-1.63-26.429-3.322-2.048-1.294-2.893-5.922-3.169-8.06H839s.573,7.462,3.292,9.155,16.225,3.406,26.429,3.322c2.944,0,3.963-1.1,3.906-2.683C872.218,758.023,871.1,758.62,868.9,758.662Z" transform="translate(-432.991 -399.894)" opacity="0.2"/><path d="M302.509,108.15l-9.344,6.063,5.673-10.559a9.086,9.086,0,0,0-5.632-2.065h-.154a10.8,10.8,0,0,1-1.935-.147l-3.169,2.054,1.357-2.526a11.327,11.327,0,0,1-5.54-4.3l-5.668,3.668,3.584-6.666c-3.318-4.072-7.782-6.571-12.7-6.571-5.893,0-11.141,3.59-14.53,9.181a10.815,10.815,0,0,1-9.6,5.3h-.317c-6.507,0-11.776,7.551-11.776,16.869s5.274,16.863,11.776,16.863a8.645,8.645,0,0,0,4.1-1.048,16.646,16.646,0,0,1,14.259-.283,14.537,14.537,0,0,0,12.124.026,16.669,16.669,0,0,1,14.136.283,8.661,8.661,0,0,0,4.06,1.048c6.507,0,11.776-7.551,11.776-16.863a21.818,21.818,0,0,0-2.468-10.329Z" transform="translate(-137.136 -85.671)" fill="#f2f2f2"/><path d="M284.867,152.77a17.039,17.039,0,0,0-10.1,1.121,14.537,14.537,0,0,1-12.119-.026,16.657,16.657,0,0,0-14.264.283,8.645,8.645,0,0,1-4.1,1.048c-5.78,0-10.588-5.964-11.591-13.824a11.211,11.211,0,0,0,2.888-3.186C239,132.6,244.225,129,250.118,129s11.079,3.548,14.469,9.076a11.1,11.1,0,0,0,9.6,5.4h.133C278.933,143.484,282.926,147.263,284.867,152.77Z" transform="translate(-137.111 -105.614)" opacity="0.03"/><path d="M812.9,141.3l-4.644,3.024,2.831-5.24a4.544,4.544,0,0,0-2.821-1.048h-.072a5.4,5.4,0,0,1-.968-.073l-1.582,1.048.666-1.289a5.648,5.648,0,0,1-2.765-2.143l-2.826,1.834,1.787-3.322a8.217,8.217,0,0,0-6.333-3.28c-2.944,0-5.56,1.792-7.25,4.58a5.381,5.381,0,0,1-4.792,2.62h-.159c-3.246,0-5.878,3.768-5.878,8.385s2.632,8.411,5.878,8.411a4.333,4.333,0,0,0,2.048-.524,8.3,8.3,0,0,1,7.112-.141,7.278,7.278,0,0,0,6.047,0,8.312,8.312,0,0,1,7.05.142,4.328,4.328,0,0,0,2.048.524c3.246,0,5.878-3.763,5.878-8.411A10.827,10.827,0,0,0,812.9,141.3Z" transform="translate(-403.267 -106.476)" fill="#f2f2f2"/><path d="M804.11,163.592a8.519,8.519,0,0,0-5.033.561,7.278,7.278,0,0,1-6.047,0,8.312,8.312,0,0,0-7.117.142,4.3,4.3,0,0,1-2.048.524c-2.888,0-5.284-2.971-5.786-6.891a5.676,5.676,0,0,0,1.444-1.572c1.69-2.788,4.311-4.575,7.25-4.575s5.524,1.766,7.214,4.522A5.526,5.526,0,0,0,798.78,159h.077C801.155,158.959,803.127,160.846,804.11,163.592Z" transform="translate(-403.262 -116.457)" opacity="0.03"/><path d="M248.451,284.987l7.506,4.863-4.546-8.463a7.309,7.309,0,0,1,4.531-1.651h.118a8.548,8.548,0,0,0,1.536-.115l2.534,1.645-1.1-2.023a9.13,9.13,0,0,0,4.439-3.448l4.541,2.945-2.836-5.34a13.177,13.177,0,0,1,10.173-5.24c4.726,0,8.929,2.872,11.648,7.336a8.656,8.656,0,0,0,7.68,4.25h.256c5.212,0,9.436,6.047,9.436,13.51s-4.224,13.515-9.436,13.515a6.967,6.967,0,0,1-3.292-.844,13.331,13.331,0,0,0-11.423-.225,11.669,11.669,0,0,1-9.728,0,13.355,13.355,0,0,0-11.325.225,6.986,6.986,0,0,1-3.251.823c-5.217,0-9.441-6.047-9.441-13.515a17.5,17.5,0,0,1,1.981-8.248Z" transform="translate(-143.831 -171.85)" fill="#f2f2f2"/><path d="M277.89,320.746a13.711,13.711,0,0,1,8.089.9,11.669,11.669,0,0,0,9.728,0,13.341,13.341,0,0,1,11.428.225,6.947,6.947,0,0,0,3.287.844c4.634,0,8.484-4.774,9.288-11.073a9.061,9.061,0,0,1-2.314-2.557c-2.719-4.475-6.922-7.336-11.648-7.336s-8.873,2.84-11.591,7.274a8.883,8.883,0,0,1-7.68,4.323h-.118C282.641,313.31,279.446,316.339,277.89,320.746Z" transform="translate(-159.164 -187.837)" opacity="0.03"/></g></g></svg>