<svg xmlns="http://www.w3.org/2000/svg" xmlns:xlink="http://www.w3.org/1999/xlink" width="621.721" height="620.163" viewBox="0 0 621.721 620.163">
  <defs>
    <linearGradient id="linear-gradient" x1="0.514" y1="0.779" x2="0.461" y2="-0.279" gradientUnits="objectBoundingBox">
      <stop offset="0" stop-color="#fff" stop-opacity="0"/>
      <stop offset="0.95" stop-color="#fff"/>
    </linearGradient>
    <linearGradient id="linear-gradient-2" x1="0.528" y1="0.507" x2="1.184" y2="0.668" xlink:href="#linear-gradient"/>
    <linearGradient id="linear-gradient-3" x1="0.521" y1="1.133" x2="0.467" y2="-0.473" xlink:href="#linear-gradient"/>
    <linearGradient id="linear-gradient-4" x1="2.944" y1="98.494" x2="2.889" y2="58.447" gradientUnits="objectBoundingBox">
      <stop offset="0" stop-color="#fff" stop-opacity="0"/>
      <stop offset="0.99" stop-color="#fff"/>
    </linearGradient>
    <linearGradient id="linear-gradient-5" x1="4.508" y1="103.127" x2="4.417" y2="60.38" xlink:href="#linear-gradient-4"/>
    <linearGradient id="linear-gradient-6" x1="1.774" y1="101.862" x2="1.745" y2="59.469" xlink:href="#linear-gradient-4"/>
    <linearGradient id="linear-gradient-7" x1="2.762" y1="101.402" x2="2.711" y2="59.017" xlink:href="#linear-gradient-4"/>
    <linearGradient id="linear-gradient-8" x1="3.419" y1="95.688" x2="3.353" y2="55.164" xlink:href="#linear-gradient-4"/>
    <linearGradient id="linear-gradient-9" x1="2.952" y1="92.542" x2="2.896" y2="52.494" xlink:href="#linear-gradient-4"/>
    <linearGradient id="linear-gradient-10" x1="3.424" y1="83.093" x2="3.358" y2="47.036" xlink:href="#linear-gradient-4"/>
    <linearGradient id="linear-gradient-11" x1="3.679" y1="96.751" x2="3.607" y2="54.004" xlink:href="#linear-gradient-4"/>
    <linearGradient id="linear-gradient-12" x1="2.04" y1="86.878" x2="2.005" y2="48.357" xlink:href="#linear-gradient-4"/>
    <linearGradient id="linear-gradient-13" x1="2.944" y1="77.791" x2="2.889" y2="37.743" xlink:href="#linear-gradient-4"/>
    <linearGradient id="linear-gradient-14" x1="4.508" y1="81.034" x2="4.417" y2="38.283" xlink:href="#linear-gradient-4"/>
    <linearGradient id="linear-gradient-15" x1="1.774" y1="79.946" x2="1.745" y2="37.552" xlink:href="#linear-gradient-4"/>
    <linearGradient id="linear-gradient-16" x1="2.762" y1="79.494" x2="2.711" y2="37.1" xlink:href="#linear-gradient-4"/>
    <linearGradient id="linear-gradient-17" x1="3.419" y1="74.752" x2="3.353" y2="34.224" xlink:href="#linear-gradient-4"/>
    <linearGradient id="linear-gradient-18" x1="2.952" y1="71.838" x2="2.896" y2="31.791" xlink:href="#linear-gradient-4"/>
    <linearGradient id="linear-gradient-19" x1="3.424" y1="64.456" x2="3.358" y2="28.399" xlink:href="#linear-gradient-4"/>
    <linearGradient id="linear-gradient-20" x1="3.679" y1="74.654" x2="3.607" y2="31.907" xlink:href="#linear-gradient-4"/>
    <linearGradient id="linear-gradient-21" x1="2.04" y1="66.969" x2="2.005" y2="28.445" xlink:href="#linear-gradient-4"/>
    <linearGradient id="linear-gradient-22" x1="2.944" y1="57.095" x2="2.889" y2="17.051" xlink:href="#linear-gradient-4"/>
    <linearGradient id="linear-gradient-23" x1="4.508" y1="58.941" x2="4.417" y2="16.19" xlink:href="#linear-gradient-4"/>
    <linearGradient id="linear-gradient-24" x1="1.774" y1="58.038" x2="1.745" y2="15.649" xlink:href="#linear-gradient-4"/>
    <linearGradient id="linear-gradient-25" x1="2.762" y1="57.586" x2="2.711" y2="15.192" xlink:href="#linear-gradient-4"/>
    <linearGradient id="linear-gradient-26" x1="3.419" y1="53.808" x2="3.353" y2="13.28" xlink:href="#linear-gradient-4"/>
    <linearGradient id="linear-gradient-27" x1="2.952" y1="51.146" x2="2.896" y2="11.099" xlink:href="#linear-gradient-4"/>
    <linearGradient id="linear-gradient-28" x1="3.424" y1="45.822" x2="3.358" y2="9.765" xlink:href="#linear-gradient-4"/>
    <linearGradient id="linear-gradient-29" x1="3.679" y1="52.561" x2="3.607" y2="9.81" xlink:href="#linear-gradient-4"/>
    <linearGradient id="linear-gradient-30" x1="2.04" y1="47.057" x2="2.005" y2="8.532" xlink:href="#linear-gradient-4"/>
    <linearGradient id="linear-gradient-31" x1="0.002" y1="0.501" x2="1" y2="0.501" gradientUnits="objectBoundingBox">
      <stop offset="0" stop-color="#e5c6d6"/>
      <stop offset="0.42" stop-color="#ead4d0"/>
      <stop offset="1" stop-color="#f0e9cb"/>
    </linearGradient>
    <linearGradient id="linear-gradient-32" x1="-0.001" y1="0.5" x2="1.001" y2="0.5" xlink:href="#linear-gradient-31"/>
    <linearGradient id="linear-gradient-33" x1="-0.003" y1="0.499" x2="0.998" y2="0.499" xlink:href="#linear-gradient-31"/>
    <linearGradient id="linear-gradient-34" x1="-0.004" y1="0.498" x2="0.998" y2="0.498" xlink:href="#linear-gradient-31"/>
    <linearGradient id="linear-gradient-35" x1="0" y1="0.5" x2="1.001" y2="0.5" xlink:href="#linear-gradient-31"/>
    <linearGradient id="linear-gradient-36" y1="0.5" x2="1.001" y2="0.5" gradientUnits="objectBoundingBox">
      <stop offset="0" stop-color="#010101" stop-opacity="0"/>
      <stop offset="0.95" stop-color="#010101"/>
    </linearGradient>
    <linearGradient id="linear-gradient-37" x1="0" y1="0.5" x2="1" y2="0.5" xlink:href="#linear-gradient-36"/>
    <linearGradient id="linear-gradient-38" x1="0.509" y1="-0.382" x2="0.465" y2="3.651" xlink:href="#linear-gradient-36"/>
    <linearGradient id="linear-gradient-39" x1="0.443" y1="0.912" x2="0.59" y2="-0.427" xlink:href="#linear-gradient-36"/>
    <linearGradient id="linear-gradient-40" x1="0.495" y1="-0.178" x2="0.505" y2="1.198" xlink:href="#linear-gradient-36"/>
    <linearGradient id="linear-gradient-41" x1="0.501" y1="0.622" x2="0.512" y2="1.676" xlink:href="#linear-gradient-36"/>
    <linearGradient id="linear-gradient-42" x1="0.455" y1="0.264" x2="0.766" y2="1.656" xlink:href="#linear-gradient-36"/>
    <linearGradient id="linear-gradient-43" x1="0.596" y1="0.238" x2="-0.09" y2="1.689" xlink:href="#linear-gradient-36"/>
    <linearGradient id="linear-gradient-44" x1="0.603" y1="0.096" x2="-0.102" y2="1.799" xlink:href="#linear-gradient-36"/>
  </defs>
  <g id="coding_" transform="translate(0)">
    <path id="Path_66" data-name="Path 66" d="M679.188,408.034c-17.858,26.414-42.905,46.74-62.716,71.72-29.087,36.623-47.906,84.172-87.29,108.6-18.627,11.536-40.183,16.694-61.31,21.7-33.954,8.057-69.137,16.114-103.358,9.308-26.231-5.2-50.036-18.846-73.353-32.3l-18.449-10.682c-4.069-2.38-8.182-4.715-12.295-7.1l-11.984-6.928c-35.182-20.448-70.143-41.781-99.792-69.966-33.037-31.282-59.3-72.453-64.757-118.43-6.332-53.134,17.9-108.939,60.541-139.473C167.815,217.7,195.7,208.362,218.68,190.95c36.262-27.467,56.221-71.4,81.121-109.992,46.145-71.553,134.886-105.8,209.615-54.935C538.458,45.77,560.429,75.1,576.57,106.9c13.641,26.811,23.672,55.9,41.811,79.7,20.713,27.193,50.865,46.023,68.989,75.123C714.518,305.276,707.949,365.521,679.188,408.034Z" transform="translate(-82.886 -1.758)" fill="#68e1fd" opacity="0.24"/>
    <path id="Path_67" data-name="Path 67" d="M227.077,375.33c-2.175,2.457,1.391,5.875,4.438,7.065A170.044,170.044,0,0,0,293.8,394.3l-3.625,6.363a188.726,188.726,0,0,0,102.085.549l-5.149-8.24,29.9-1.526c4.749-.229,21.408,1.785,24.56-2.564,9.069-12.528-27.844-13.016-31.809-13.184q-59.076-2.548-118.226-1.969-16.126.153-32.253.534C254.2,374.445,230.243,371.85,227.077,375.33Z" transform="translate(-14.067 193.767)" fill="#68e1fd" opacity="0.42"/>
    <path id="Path_68" data-name="Path 68" d="M354.038,313.839q-1.2,24.415-2.855,48.922a143.555,143.555,0,0,1-3.107,24.537,72.954,72.954,0,0,1-4.912,13.9c-.9,1.907-2.19,3.983-4.217,4.2-2.56.275-4.335-2.548-5.252-5.036-4.572-12.208-4.572-25.575-4.868-38.637q-.252-10.132-.784-20.28c-.429-8.164-1.287-17-6.643-23.042-1.627-1.831-3.61-3.327-5.208-5.2-6.525-7.63-4.572-20.494,2.456-27.681,5.459-5.57,21.3-12.925,28.954-8.317C356.686,282.663,354.467,305.034,354.038,313.839Z" transform="translate(27.072 142.352)" fill="#606161"/>
    <path id="Path_69" data-name="Path 69" d="M324.818,286a21.308,21.308,0,0,1,3.063,12.544c-.37,13.261-8,25-11.836,37.676-5.74,19.151-2.545,39.675-1.968,59.772a19.287,19.287,0,0,1-.976,8.179,6.651,6.651,0,0,1-6.229,4.395,8.273,8.273,0,0,1-4.956-3.052c-9.41-10.377-9.1-26.2-10.652-40.3-1.746-15.7-6.465-30.87-10.49-46.115-1.82-6.882-3.521-13.932-3.092-21.043s3.329-14.42,9.025-18.449C297.048,272.315,317.436,275.092,324.818,286Z" transform="translate(10.486 142.248)" fill="#606161"/>
    <rect id="Rectangle_3" data-name="Rectangle 3" width="197.572" height="224.683" rx="12.14" transform="translate(269.911 285.267) rotate(180)" fill="#68e1fd" opacity="0.52"/>
    <rect id="Rectangle_4" data-name="Rectangle 4" width="197.572" height="224.683" rx="12.14" transform="translate(269.911 285.267) rotate(180)" fill="url(#linear-gradient)"/>
    <rect id="Rectangle_5" data-name="Rectangle 5" width="219.557" height="138.878" rx="11.56" transform="translate(603.522 241.93) rotate(180)" fill="#68e1fd" opacity="0.52"/>
    <rect id="Rectangle_6" data-name="Rectangle 6" width="219.557" height="138.878" rx="11.56" transform="translate(603.522 241.93) rotate(180)" fill="url(#linear-gradient-2)"/>
    <rect id="Rectangle_9" data-name="Rectangle 9" width="333.907" height="16.511" transform="translate(492.9 406.17) rotate(180)" fill="#68e1fd" opacity="0.52"/>
    <rect id="Rectangle_10" data-name="Rectangle 10" width="255.583" height="194.606" rx="12.56" transform="translate(461.165 368.417) rotate(180)" fill="#68e1fd"/>
    <rect id="Rectangle_11" data-name="Rectangle 11" width="255.583" height="194.606" rx="12.56" transform="translate(461.165 368.417) rotate(180)" fill="url(#linear-gradient-3)"/>
    <rect id="Rectangle_12" data-name="Rectangle 12" width="50.969" height="3.861" transform="translate(237.007 204.284)" fill="url(#linear-gradient-4)"/>
    <rect id="Rectangle_13" data-name="Rectangle 13" width="31.114" height="3.617" transform="translate(237.007 211.746)" fill="url(#linear-gradient-5)"/>
    <rect id="Rectangle_14" data-name="Rectangle 14" width="97.898" height="3.647" transform="translate(280.667 211.746)" fill="url(#linear-gradient-6)"/>
    <rect id="Rectangle_15" data-name="Rectangle 15" width="55.096" height="3.647" transform="translate(387.723 211.746)" fill="url(#linear-gradient-7)"/>
    <rect id="Rectangle_16" data-name="Rectangle 16" width="42.772" height="3.815" transform="translate(253.193 219.239)" fill="url(#linear-gradient-8)"/>
    <rect id="Rectangle_17" data-name="Rectangle 17" width="50.969" height="3.861" transform="translate(266.922 226.686)" fill="url(#linear-gradient-9)"/>
    <rect id="Rectangle_18" data-name="Rectangle 18" width="42.728" height="4.288" transform="translate(321.22 226.686)" fill="url(#linear-gradient-10)"/>
    <rect id="Rectangle_19" data-name="Rectangle 19" width="39.355" height="3.617" transform="translate(266.848 234.148)" fill="url(#linear-gradient-11)"/>
    <rect id="Rectangle_20" data-name="Rectangle 20" width="81.224" height="4.013" transform="translate(309.976 234.148)" fill="url(#linear-gradient-12)"/>
    <rect id="Rectangle_21" data-name="Rectangle 21" width="50.969" height="3.861" transform="translate(237.007 244.25)" fill="url(#linear-gradient-13)"/>
    <rect id="Rectangle_22" data-name="Rectangle 22" width="31.114" height="3.617" transform="translate(237.007 251.712)" fill="url(#linear-gradient-14)"/>
    <rect id="Rectangle_23" data-name="Rectangle 23" width="97.898" height="3.647" transform="translate(280.667 251.712)" fill="url(#linear-gradient-15)"/>
    <rect id="Rectangle_24" data-name="Rectangle 24" width="55.096" height="3.647" transform="translate(387.723 251.712)" fill="url(#linear-gradient-16)"/>
    <rect id="Rectangle_25" data-name="Rectangle 25" width="42.772" height="3.815" transform="translate(253.193 259.173)" fill="url(#linear-gradient-17)"/>
    <rect id="Rectangle_26" data-name="Rectangle 26" width="50.969" height="3.861" transform="translate(266.922 266.651)" fill="url(#linear-gradient-18)"/>
    <rect id="Rectangle_27" data-name="Rectangle 27" width="42.728" height="4.288" transform="translate(321.22 266.651)" fill="url(#linear-gradient-19)"/>
    <rect id="Rectangle_28" data-name="Rectangle 28" width="39.355" height="3.617" transform="translate(266.848 274.113)" fill="url(#linear-gradient-20)"/>
    <rect id="Rectangle_29" data-name="Rectangle 29" width="81.224" height="4.013" transform="translate(309.976 274.113)" fill="url(#linear-gradient-21)"/>
    <rect id="Rectangle_30" data-name="Rectangle 30" width="50.969" height="3.861" transform="translate(237.007 284.199)" fill="url(#linear-gradient-22)"/>
    <rect id="Rectangle_31" data-name="Rectangle 31" width="31.114" height="3.617" transform="translate(237.007 291.661)" fill="url(#linear-gradient-23)"/>
    <rect id="Rectangle_32" data-name="Rectangle 32" width="97.898" height="3.647" transform="translate(280.667 291.661)" fill="url(#linear-gradient-24)"/>
    <rect id="Rectangle_33" data-name="Rectangle 33" width="55.096" height="3.647" transform="translate(387.723 291.661)" fill="url(#linear-gradient-25)"/>
    <rect id="Rectangle_34" data-name="Rectangle 34" width="42.772" height="3.815" transform="translate(253.193 299.123)" fill="url(#linear-gradient-26)"/>
    <rect id="Rectangle_35" data-name="Rectangle 35" width="50.969" height="3.861" transform="translate(266.922 306.585)" fill="url(#linear-gradient-27)"/>
    <rect id="Rectangle_36" data-name="Rectangle 36" width="42.728" height="4.288" transform="translate(321.22 306.585)" fill="url(#linear-gradient-28)"/>
    <rect id="Rectangle_37" data-name="Rectangle 37" width="39.355" height="3.617" transform="translate(266.848 314.062)" fill="url(#linear-gradient-29)"/>
    <rect id="Rectangle_38" data-name="Rectangle 38" width="81.224" height="4.013" transform="translate(309.976 314.062)" fill="url(#linear-gradient-30)"/>
    <path id="Path_70" data-name="Path 70" d="M357.609,256.265c1.05,3.052,2.042,6.257,1.391,9.4a9.311,9.311,0,0,1-1.258,3.052c-2.959,4.73-9.972,5.463-14.795,2.625s-7.545-8.271-8.877-13.734a15.2,15.2,0,0,1-.518-5.646c.429-3.311,2.56-6.1,4.779-8.545,2.959-3.174,8.389-7.325,12.369-3.51C354.28,243.325,356.026,251.7,357.609,256.265Z" transform="translate(37.274 122.697)" fill="url(#linear-gradient-31)"/>
    <path id="Path_71" data-name="Path 71" d="M268.287,254.931a8.049,8.049,0,0,0-.873,4.1,7.28,7.28,0,0,0,1.036,2.564,20.442,20.442,0,0,0,4.9,6,9.956,9.956,0,0,0,7.116,2.274c3.787-.427,6.791-3.525,8.8-6.867a19.238,19.238,0,0,0,3.151-10.773,13.851,13.851,0,0,0-5.444-10.285c-2.855-2.136-8.8-4.074-12.028-1.633S269.9,250.994,268.287,254.931Z" transform="translate(5.589 123.116)" fill="url(#linear-gradient-32)"/>
    <path id="Path_72" data-name="Path 72" d="M329.37,176.1a3.492,3.492,0,0,1,3.107.565,4.331,4.331,0,0,1,1.021,2.609,19.273,19.273,0,0,1,.222,5.906,8.181,8.181,0,0,1-2.619,5.051,11.193,11.193,0,0,1-3.728,1.862,4.1,4.1,0,0,1-3.2.122,3.824,3.824,0,0,1-1.6-2.823C321.41,183.486,323.2,177.26,329.37,176.1Z" transform="translate(31.885 89.864)" fill="url(#linear-gradient-33)"/>
    <path id="Path_73" data-name="Path 73" d="M291.933,174.749a3.561,3.561,0,0,0-1.79,0,3.842,3.842,0,0,0-2.13,3.494,16.736,16.736,0,0,0,.266,4.288,12.028,12.028,0,0,0,2.693,6.394,4.922,4.922,0,0,0,6.14,1.1C303.4,185.538,297.481,176,291.933,174.749Z" transform="translate(15.454 89.17)" fill="url(#linear-gradient-34)"/>
    <path id="Path_74" data-name="Path 74" d="M325.38,208.991a13.952,13.952,0,0,1,.237,4.212c-.547,3.906-4.32,6.638-8.108,7.126s-7.575-.824-11.111-2.274a8.812,8.812,0,0,1-2.959-1.74,6.866,6.866,0,0,1-1.7-3.372,25.244,25.244,0,0,1-.385-6.684l.237-7.874a9.686,9.686,0,0,1,.858-4.471c1.479-2.609,4.868-3.052,7.812-3.25,3.861-.168,9.676,0,12.221,3.632S324.729,204.764,325.38,208.991Z" transform="translate(21.834 97.579)" fill="url(#linear-gradient-35)"/>
    <path id="Path_75" data-name="Path 75" d="M343.726,167.565a24.018,24.018,0,0,1,1.184,10.377,200.222,200.222,0,0,1-2.456,24.156c-.977,6-2.515,12.437-7.116,16.221a29.6,29.6,0,0,0-3.714,3.052c-.8.885-1.361,1.984-2.1,2.945-3.743,4.837-11.289,4.837-16.437,1.618s-8.448-8.744-11.466-14.115c-3.329-5.921-6.628-12.116-7.22-18.937-.488-5.4.74-11.094-1.258-16.114-1.479-3.693-4.542-6.653-5.223-10.575a18.329,18.329,0,0,1,.917-7.813c1.2-4.441,3.033-9.568,7.4-10.773,3.181-.885,6.465.794,9.765.9,4.2.153,8.478-2.274,12.472-.9,5.134,1.77,7.4,7.874,12.517,9.858S341.344,161.95,343.726,167.565Z" transform="translate(15.384 74.731)" fill="#606161"/>
    <path id="Path_76" data-name="Path 76" d="M370.517,215.691c-15-12.833-36.647-12.513-55.955-9.8-7.974,1.114-16.1,2.594-23.11,6.684-11.747,6.867-18.7,20.143-22.355,33.571-1.938,7.126-2.959,15.26.917,21.516,4.069,6.47,12.176,8.7,19.6,9.553a6.407,6.407,0,0,1,3.225.961,5.975,5.975,0,0,1,1.8,3.739c2.071,11.14-2.13,23.652,3.418,33.434,5.371,9.446,17.369,11.933,27.948,12.772,13.685,1.083,28.525.687,39.636-7.63a16.364,16.364,0,0,0,4.6-4.868c1.835-3.235,1.938-7.172,1.983-10.911.118-8.149-2.767-24.537,1.08-31.725,3.225-5.982,12.413-6.012,15.638-12.849C395.062,247.141,379.705,223.534,370.517,215.691Z" transform="translate(5.577 104.811)" fill="#fff"/>
    <path id="Path_77" data-name="Path 77" d="M309.889,291.653l.1,17.35a3.432,3.432,0,0,1-.355,1.938,2.935,2.935,0,0,1-1.982,1.114c-4.557,1.1-9.321.473-14,.488s-9.72.87-13.079,4.242c5.1,3.891,11.688,4.959,18.005,5.722q14.026,1.724,28.11,2.289a70.622,70.622,0,0,0,18.213-.977,33.328,33.328,0,0,0,14.44-6.943c-4.128-4.578-10.963-4.486-17-4.486a150.3,150.3,0,0,1-17.576-1.038,4.737,4.737,0,0,1-3.536-1.526,4.965,4.965,0,0,1-.562-2.976,62.03,62.03,0,0,1,1.406-11.445,7.369,7.369,0,0,1,1.406-3.4,7.682,7.682,0,0,1,4.7-1.923,100.15,100.15,0,0,0,20.047-5.646,22.664,22.664,0,0,0,7.324-4.166c5.829-5.463,5.578-14.878,4.231-22.889a72.745,72.745,0,0,1-35.242,10.346c-8.477.244-26.868-3.51-32.83,4.914-2.959,4.257.192,8.194,3.462,11.139C296.6,285.03,309.889,291.485,309.889,291.653Z" transform="translate(11.908 132.691)" fill="url(#linear-gradient-36)"/>
    <rect id="Rectangle_66" data-name="Rectangle 66" width="84.893" height="62.061" rx="16.79" transform="translate(292.118 345.497)" fill="#68e1fd"/>
    <rect id="Rectangle_67" data-name="Rectangle 67" width="84.893" height="62.061" rx="16.79" transform="translate(292.118 345.497)" fill="url(#linear-gradient-37)"/>
    <rect id="Rectangle_68" data-name="Rectangle 68" width="84.893" height="62.061" rx="16.79" transform="translate(292.118 351.204)" fill="#68e1fd"/>
    <path id="Path_78" data-name="Path 78" d="M328.165,260.877a31.708,31.708,0,0,1-7.96,2.442c-7.4,1.4-16.038,1.1-21.364-4.441a9.8,9.8,0,0,1-2-2.93c-1.479-3.708.459-8.179,3.64-10.529s7.22-2.976,11.111-3.174c4.764-.244,13.818-1.083,17.976,2.228C334.541,248.44,333.772,258.161,328.165,260.877Z" transform="translate(19.464 124.585)" fill="url(#linear-gradient-38)"/>
    <rect id="Rectangle_69" data-name="Rectangle 69" width="11.584" height="98.638" rx="3.91" transform="translate(338.944 474.579) rotate(180)" fill="#fff"/>
    <path id="Path_79" data-name="Path 79" d="M337.091,358.433c2.959,2.518,3.7,6.882,5,10.682,1.8,5.188,5.149,9.9,5.592,15.4a8.846,8.846,0,0,1-.755,4.761A7.353,7.353,0,0,1,340.509,393a13.752,13.752,0,0,1-7.294-2.289,26.028,26.028,0,0,1-9.232-9.781,17.147,17.147,0,0,1-2.1-6.44C321.275,367.6,328.2,351.108,337.091,358.433Z" transform="translate(31.694 184.875)" fill="#68e1fd"/>
    <path id="Path_80" data-name="Path 80" d="M342.286,384.081a2.839,2.839,0,0,1,0,2.609,2.273,2.273,0,0,1-1.287.717,8.074,8.074,0,0,1-5.918-1.114,24.22,24.22,0,0,1-4.764-3.952,35.425,35.425,0,0,1-5.785-6.745,12.513,12.513,0,0,1-1.879-8.622c1.568-8.271,8.64-.855,11.244,2.2A44.6,44.6,0,0,1,342.286,384.081Z" transform="translate(32.018 188.343)" fill="#606161"/>
    <path id="Path_81" data-name="Path 81" d="M296.453,358.55c-2.959,2.518-3.7,6.882-5,10.682-1.8,5.188-5.149,9.919-5.592,15.4a8.909,8.909,0,0,0,.755,4.776,7.352,7.352,0,0,0,6.421,3.708,13.606,13.606,0,0,0,7.294-2.289,25.909,25.909,0,0,0,9.232-9.781,17.052,17.052,0,0,0,2.1-6.44C312.254,367.721,305.33,351.165,296.453,358.55Z" transform="translate(14.41 184.926)" fill="#68e1fd"/>
    <path id="Path_82" data-name="Path 82" d="M288.861,384.474a2.886,2.886,0,0,0,0,2.609,2.316,2.316,0,0,0,1.3.717,8.232,8.232,0,0,0,5.918-1.114,24.791,24.791,0,0,0,4.749-3.952,35.127,35.127,0,0,0,5.8-6.76,12.513,12.513,0,0,0,1.879-8.606c-1.583-8.286-8.64-.87-11.259,2.2A44.783,44.783,0,0,0,288.861,384.474Z" transform="translate(15.729 188.545)" fill="#606161"/>
    <path id="Path_83" data-name="Path 83" d="M322.11,343.824a15.186,15.186,0,0,1-7.649,1.526,32.558,32.558,0,0,1-8.7-.656,6,6,0,0,1-2.633-1.267,6.2,6.2,0,0,1-1.48-2.167c-2.412-5.493-5.134-16.877-1.391-21.5,4.276-5.31,21.246-6.241,26.631-.671C332.112,324.307,328.324,340.055,322.11,343.824Z" transform="translate(20.459 163.166)" fill="#68e1fd"/>
    <path id="Path_84" data-name="Path 84" d="M322.11,343.824a15.186,15.186,0,0,1-7.649,1.526,32.558,32.558,0,0,1-8.7-.656,6,6,0,0,1-2.633-1.267,6.2,6.2,0,0,1-1.48-2.167c-2.412-5.493-5.134-16.877-1.391-21.5,4.276-5.31,21.246-6.241,26.631-.671C332.112,324.307,328.324,340.055,322.11,343.824Z" transform="translate(20.459 163.166)" fill="url(#linear-gradient-39)"/>
    <rect id="Rectangle_70" data-name="Rectangle 70" width="7.723" height="51.395" transform="translate(338.515 558.614) rotate(180)" fill="#fff"/>
    <path id="Path_85" data-name="Path 85" d="M356.007,372.839c1.716,1.45,3.388,3.266,5.592,3.54,1.6.183,3.2-.519,4.823-.519a8.932,8.932,0,0,1,5.7,2.64,9.937,9.937,0,0,1,3.136,4.578c1.2,4.212-2.441,8.82-6.687,9.247s-8.33-2.564-10.194-6.5a14.5,14.5,0,0,0-1.568-3.052,8.638,8.638,0,0,0-2.116-1.709,60.878,60.878,0,0,0-20.461-8.347c-1.258-.259-2.8-.382-3.6.641a3.68,3.68,0,0,0-.607,1.984,71.93,71.93,0,0,0-.4,9.156,3.559,3.559,0,0,0,.311,1.709,6.013,6.013,0,0,0,1.391,1.419,6.1,6.1,0,0,1,.769,7.1,10.583,10.583,0,0,1-5.785,4.578c-2.841,1.083-6.421,1.267-8.537-.977a6.424,6.424,0,0,1-1.11-6.47,9.582,9.582,0,0,1,4.439-4.975,3.862,3.862,0,0,0,1.746-1.373,3.64,3.64,0,0,0,.266-1.831l-.207-6.806a3.339,3.339,0,0,0-1.006-2.823,2.879,2.879,0,0,0-1.923-.29,56.656,56.656,0,0,0-30.034,11.613c1.6,1.282,1.317,4.059-.118,5.524a7.623,7.623,0,0,1-5.652,1.8,11.07,11.07,0,0,1-6.318-1.908,6.32,6.32,0,0,1,.991-11.231,11.5,11.5,0,0,1,6.7-.748,13.253,13.253,0,0,0,3.536.29,10.52,10.52,0,0,0,3.728-1.6,80.851,80.851,0,0,1,33.333-10.682C335.975,365.911,348.062,366.125,356.007,372.839Z" transform="translate(9.183 190.047)" fill="#fff"/>
    <rect id="Rectangle_71" data-name="Rectangle 71" width="126.068" height="96.426" rx="11.02" transform="translate(568.902 357.446) rotate(180)" fill="#fff"/>
    <rect id="Rectangle_72" data-name="Rectangle 72" width="144.946" height="54.843" rx="10.67" transform="translate(222.641 365.426) rotate(180)" fill="#fff"/>
    <path id="Path_86" data-name="Path 86" d="M152.62,89.5,189.5,69.91v5.677L158.434,91.563v.183L189.5,107.8v5.677L152.62,93.883Z" transform="translate(-49.448 34.088)" fill="#68e1fd"/>
    <path id="Path_87" data-name="Path 87" d="M181,121.173,203.192,61.66h5.4L186.4,121.173Z" transform="translate(-35.84 29.749)" fill="#68e1fd"/>
    <path id="Path_88" data-name="Path 88" d="M239.959,94.173l-36.9,19.517v-5.814l31.306-16.053v-.259L203.06,75.51v-5.6l36.9,19.517Z" transform="translate(-25.263 34.088)" fill="#68e1fd"/>
    <rect id="Rectangle_73" data-name="Rectangle 73" width="123.493" height="39.507" rx="12.55" transform="translate(393.389 488.145) rotate(180)" fill="#68e1fd"/>
    <rect id="Rectangle_74" data-name="Rectangle 74" width="123.493" height="39.507" rx="12.55" transform="translate(393.389 488.145) rotate(180)" fill="url(#linear-gradient-40)"/>
    <g id="Group_2" data-name="Group 2" transform="translate(456.83 285.969)" opacity="0.52">
      <rect id="Rectangle_75" data-name="Rectangle 75" width="33.732" height="2.548" fill="#68e1fd"/>
      <rect id="Rectangle_76" data-name="Rectangle 76" width="20.595" height="2.396" transform="translate(0 4.929)" fill="#68e1fd"/>
      <rect id="Rectangle_77" data-name="Rectangle 77" width="64.787" height="2.411" transform="translate(28.895 4.929)" fill="#68e1fd"/>
      <rect id="Rectangle_78" data-name="Rectangle 78" width="28.318" height="2.533" transform="translate(10.712 9.888)" fill="#68e1fd"/>
      <rect id="Rectangle_79" data-name="Rectangle 79" width="33.732" height="2.548" transform="translate(19.796 14.817)" fill="#68e1fd"/>
      <rect id="Rectangle_80" data-name="Rectangle 80" width="28.273" height="2.838" transform="translate(55.718 14.817)" fill="#68e1fd"/>
      <rect id="Rectangle_81" data-name="Rectangle 81" width="26.054" height="2.396" transform="translate(19.736 19.761)" fill="#68e1fd"/>
      <rect id="Rectangle_82" data-name="Rectangle 82" width="53.75" height="2.655" transform="translate(48.291 19.761)" fill="#68e1fd"/>
      <rect id="Rectangle_83" data-name="Rectangle 83" width="33.732" height="2.548" transform="translate(0 26.445)" fill="#68e1fd"/>
      <rect id="Rectangle_84" data-name="Rectangle 84" width="20.595" height="2.396" transform="translate(0 31.374)" fill="#68e1fd"/>
      <rect id="Rectangle_85" data-name="Rectangle 85" width="64.787" height="2.411" transform="translate(28.895 31.374)" fill="#68e1fd"/>
      <rect id="Rectangle_86" data-name="Rectangle 86" width="28.318" height="2.533" transform="translate(10.712 36.318)" fill="#68e1fd"/>
      <rect id="Rectangle_87" data-name="Rectangle 87" width="33.732" height="2.548" transform="translate(19.796 41.262)" fill="#68e1fd"/>
      <rect id="Rectangle_88" data-name="Rectangle 88" width="28.273" height="2.838" transform="translate(55.718 41.262)" fill="#68e1fd"/>
      <rect id="Rectangle_89" data-name="Rectangle 89" width="26.054" height="2.396" transform="translate(19.736 46.206)" fill="#68e1fd"/>
      <rect id="Rectangle_90" data-name="Rectangle 90" width="53.75" height="2.655" transform="translate(48.291 46.206)" fill="#68e1fd"/>
    </g>
    <g id="Group_3" data-name="Group 3" transform="translate(100.065 322.669)" opacity="0.52">
      <rect id="Rectangle_91" data-name="Rectangle 91" width="33.732" height="2.548" fill="#68e1fd"/>
      <rect id="Rectangle_92" data-name="Rectangle 92" width="20.595" height="2.396" transform="translate(0 4.944)" fill="#68e1fd"/>
      <rect id="Rectangle_93" data-name="Rectangle 93" width="64.787" height="2.411" transform="translate(28.895 4.944)" fill="#68e1fd"/>
      <rect id="Rectangle_94" data-name="Rectangle 94" width="28.318" height="2.533" transform="translate(10.712 9.888)" fill="#68e1fd"/>
      <rect id="Rectangle_95" data-name="Rectangle 95" width="33.732" height="2.548" transform="translate(19.796 14.832)" fill="#68e1fd"/>
      <rect id="Rectangle_96" data-name="Rectangle 96" width="28.273" height="2.838" transform="translate(55.733 14.832)" fill="#68e1fd"/>
      <rect id="Rectangle_97" data-name="Rectangle 97" width="26.054" height="2.396" transform="translate(19.751 19.761)" fill="#68e1fd"/>
      <rect id="Rectangle_98" data-name="Rectangle 98" width="53.75" height="2.655" transform="translate(48.291 19.761)" fill="#68e1fd"/>
      <rect id="Rectangle_99" data-name="Rectangle 99" width="33.732" height="2.548" transform="translate(0 26.445)" fill="#68e1fd"/>
      <rect id="Rectangle_100" data-name="Rectangle 100" width="20.595" height="2.396" transform="translate(0 31.389)" fill="#68e1fd"/>
      <rect id="Rectangle_101" data-name="Rectangle 101" width="64.787" height="2.411" transform="translate(28.895 31.389)" fill="#68e1fd"/>
    </g>
    <path id="Path_89" data-name="Path 89" d="M198.5,355.311c-4.9-9.98-10.889-20.341-9.735-31.465.7-6.729,3.995-12.833,7.22-18.739l14.529-26.567c4.438,5.951,11.747,9.568,14.677,16.435,4.7,11.033-4.438,23.24-3.95,35.28.325,9.263,6.288,17.7,5.918,26.964-.237,6.729-10.564,28.78-18.923,27.94C203.813,384.717,201.283,360.957,198.5,355.311Z" transform="translate(-32.185 143.82)" fill="#68e1fd"/>
    <path id="Path_90" data-name="Path 90" d="M198.5,355.311c-4.9-9.98-10.889-20.341-9.735-31.465.7-6.729,3.995-12.833,7.22-18.739l14.529-26.567c4.438,5.951,11.747,9.568,14.677,16.435,4.7,11.033-4.438,23.24-3.95,35.28.325,9.263,6.288,17.7,5.918,26.964-.237,6.729-10.564,28.78-18.923,27.94C203.813,384.717,201.283,360.957,198.5,355.311Z" transform="translate(-32.185 143.82)" fill="url(#linear-gradient-41)"/>
    <path id="Path_91" data-name="Path 91" d="M240.822,326.064c3.3,0,7.4.687,8.344,3.968.769,2.869-1.672,5.509-3.995,7.279-8.093,6.1-18.227,10.789-22.192,20.3-6.584,15.779-25.225,5.661-15.579-8,3.995-5.646,7.4-13.23,12.369-17.945C225.48,326.217,233.469,325.973,240.822,326.064Z" transform="translate(-24.484 168.81)" fill="#68e1fd"/>
    <path id="Path_92" data-name="Path 92" d="M240.822,326.064c3.3,0,7.4.687,8.344,3.968.769,2.869-1.672,5.509-3.995,7.279-8.093,6.1-18.227,10.789-22.192,20.3-6.584,15.779-25.225,5.661-15.579-8,3.995-5.646,7.4-13.23,12.369-17.945C225.48,326.217,233.469,325.973,240.822,326.064Z" transform="translate(-24.484 168.81)" fill="url(#linear-gradient-42)"/>
    <path id="Path_93" data-name="Path 93" d="M203.814,334.112c-3.714-4.364-9.232-6.516-14.5-8.53-2.5-.946-5.711-1.724-7.4.351a4.915,4.915,0,0,0,0,5.539,17,17,0,0,0,4.187,4.044,27.035,27.035,0,0,1,7.767,9.293c1.879,3.952,2.382,8.454,4.054,12.513s5.163,7.889,9.424,7.706a8.561,8.561,0,0,0,7.279-6.18c1.657-5.265-.547-7.63-3.285-11.353C208.311,343.359,207.2,338.064,203.814,334.112Z" transform="translate(-35.81 168.056)" fill="#68e1fd"/>
    <path id="Path_94" data-name="Path 94" d="M203.814,334.112c-3.714-4.364-9.232-6.516-14.5-8.53-2.5-.946-5.711-1.724-7.4.351a4.915,4.915,0,0,0,0,5.539,17,17,0,0,0,4.187,4.044,27.035,27.035,0,0,1,7.767,9.293c1.879,3.952,2.382,8.454,4.054,12.513s5.163,7.889,9.424,7.706a8.561,8.561,0,0,0,7.279-6.18c1.657-5.265-.547-7.63-3.285-11.353C208.311,343.359,207.2,338.064,203.814,334.112Z" transform="translate(-35.81 168.056)" fill="url(#linear-gradient-43)"/>
    <path id="Path_95" data-name="Path 95" d="M230.722,346.82l-4.986,48.114h-5.282c-4.069-2.38-8.182-4.715-12.295-7.1l-11.984-6.928-4.246-34.09Z" transform="translate(-30.599 179.733)" fill="#68e1fd"/>
    <path id="Path_96" data-name="Path 96" d="M230.722,346.82l-4.986,48.114h-5.282c-4.069-2.38-8.182-4.715-12.295-7.1l-11.984-6.928-4.246-34.09Z" transform="translate(-30.599 179.733)" fill="url(#linear-gradient-44)"/>
  </g>
</svg>
