<svg xmlns="http://www.w3.org/2000/svg" width="141.543" height="130.168" viewBox="0 0 141.543 130.168"><g transform="translate(0 0)"><path d="M388.652,271.682q-2.1-.67-4.229-1.242.351-1.339.653-2.691c3.2-14.492,1.108-26.167-6.041-30.009-6.855-3.687-18.066.158-29.391,9.343q-1.675,1.364-3.271,2.8-1.072-.956-2.178-1.875c-11.864-9.824-23.75-13.962-30.9-10.108-6.849,3.7-8.881,14.671-5.995,28.406q.423,2.04.971,4.057c-1.681.446-3.307.921-4.863,1.427-13.911,4.513-22.8,11.61-22.8,18.961,0,7.592,9.538,15.208,24.029,19.825q1.763.558,3.552,1.037-.579,2.169-1.032,4.373c-2.749,13.5-.6,24.213,6.229,27.886,7.056,3.8,18.9-.106,30.425-9.5.911-.743,1.825-1.532,2.749-2.356q1.73,1.555,3.55,3.02c11.169,8.96,22.2,12.58,29.023,8.9,7.048-3.8,9.338-15.316,6.365-29.321q-.338-1.6-.789-3.275,1.25-.343,2.444-.712c15.064-4.653,24.866-12.176,24.866-19.87,0-7.379-9.173-14.514-23.365-19.07Z" transform="translate(-270.479 -215.188)" fill="#53c1de"/><path d="M406.321,326.919c-.719.223-1.455.436-2.208.645a117.841,117.841,0,0,0-6.654-15.521,117.978,117.978,0,0,0,6.4-15.294c1.343.363,2.649.745,3.905,1.149,12.16,3.9,19.578,9.672,19.578,14.119C427.339,316.748,419.327,322.9,406.321,326.919Zm-5.4,9.971a41.446,41.446,0,0,1,.634,16.166c-.782,3.933-2.356,6.555-4.3,7.606-4.142,2.234-13-.67-22.549-8.333q-1.643-1.319-3.3-2.809a124.792,124.792,0,0,0,11.014-13.039,139.992,139.992,0,0,0,17.8-2.563q.4,1.514.713,2.957ZM346.346,360.28c-4.047,1.333-7.27,1.37-9.217.323-4.144-2.23-5.868-10.843-3.516-22.376q.423-2.044.958-4.067a141.34,141.34,0,0,0,17.709,2.391,129.316,129.316,0,0,0,11.281,12.992q-1.224,1.106-2.5,2.151a48.333,48.333,0,0,1-14.71,8.586Zm-18.954-33.39a48.791,48.791,0,0,1-15.328-7.59c-3.258-2.6-4.9-5.187-4.9-7.283,0-4.461,7.134-10.153,19.03-14.019q2.241-.727,4.523-1.327a120.56,120.56,0,0,0,6.4,15.472,122.281,122.281,0,0,0-6.483,15.693Q329,327.4,327.391,326.889Zm6.354-40.324c-2.47-11.768-.831-20.645,3.3-22.869,4.4-2.366,14.116,1.009,24.363,9.492.656.542,1.313,1.11,1.971,1.7A127.447,127.447,0,0,0,352.184,287.8a146.357,146.357,0,0,0-17.535,2.541q-.505-1.877-.9-3.775Zm56.691,13.049q-1.926-3.1-3.994-6.127c4.193.495,8.208,1.149,11.981,1.954a106.821,106.821,0,0,1-4.206,10.549Q392.4,302.767,390.437,299.615Zm-23.124-20.99a114.39,114.39,0,0,1,7.733,8.7q-7.762-.341-15.531,0c2.552-3.139,5.168-6.056,7.8-8.7ZM344.054,299.65q-1.935,3.129-3.711,6.336a110.392,110.392,0,0,1-4.174-10.6c3.749-.789,7.747-1.421,11.913-1.908q-2.1,3.044-4.032,6.172Zm4.146,31.277q-6.1-.617-12.105-1.816a112.494,112.494,0,0,1,4.261-10.815q1.782,3.211,3.724,6.34,1.975,3.192,4.117,6.291Zm19.271,14.851a114.692,114.692,0,0,1-7.906-8.822q3.774.14,7.688.14,4.017,0,7.931-.166a113.106,113.106,0,0,1-7.718,8.848Zm26.788-27.669a106.452,106.452,0,0,1,4.423,10.776q-6.073,1.274-12.264,1.95,2.083-3.081,4.034-6.236Q392.437,321.393,394.26,318.109Zm-8.669,3.876q-2.986,4.834-6.3,9.483c-3.9.26-7.927.394-12.033.394s-8.067-.118-11.9-.351q-3.4-4.633-6.426-9.5t-5.605-9.873q2.595-5.033,5.589-9.877h0q2.99-4.842,6.371-9.463c3.91-.276,7.914-.42,11.966-.42s8.082.146,11.987.422q3.343,4.607,6.343,9.425t5.665,9.832q-2.633,5.051-5.648,9.916Zm11.581-58.445c4.4,2.366,6.111,11.907,3.347,24.42q-.273,1.22-.592,2.435a143.475,143.475,0,0,0-17.569-2.589,125.192,125.192,0,0,0-11.107-12.925q1.48-1.329,3.021-2.585C383.973,264.425,393.04,261.318,397.171,263.539Z" transform="translate(-291.416 -236.454)" fill="#b4effe"/><path d="M547.575,456.79c6.481,0,11.735,4.9,11.735,10.941s-5.254,10.941-11.735,10.941-11.735-4.9-11.735-10.941,5.256-10.944,11.737-10.941" transform="translate(-471.742 -392.168)" fill="#53c1de"/><path d="M254.244,137.942a7.672,7.672,0,0,0-4.17.422,6.54,6.54,0,0,1-5-.01,7.489,7.489,0,0,0-5.891.106,3.85,3.85,0,0,1-1.692.394c-2.387,0-4.373-2.243-4.787-5.2a4.388,4.388,0,0,0,1.193-1.2,6.937,6.937,0,0,1,11.976-.041,4.7,4.7,0,0,0,3.967,2.033h.055A4.929,4.929,0,0,1,254.244,137.942Z" transform="translate(-232.7 -129)" opacity="0.03"/><path d="M792.464,134.757l-1.918,1.138,1.169-1.971a1.989,1.989,0,0,0-1.165-.394h-.03a2.443,2.443,0,0,1-.4-.028l-.653.394.275-.485a2.316,2.316,0,0,1-1.142-.806l-1.167.69.738-1.25a3.507,3.507,0,0,0-2.616-1.234,3.625,3.625,0,0,0-2.994,1.723,2.281,2.281,0,0,1-1.979.986h-.066c-1.34,0-2.427,1.417-2.427,3.154s1.087,3.164,2.427,3.164a1.929,1.929,0,0,0,.846-.2,3.733,3.733,0,0,1,2.937-.053,3.274,3.274,0,0,0,2.5,0,3.738,3.738,0,0,1,2.912.053,1.927,1.927,0,0,0,.846.2c1.341,0,2.427-1.415,2.427-3.164a3.785,3.785,0,0,0-.518-1.916Z" transform="translate(-662.768 -130.453)" fill="#f2f2f2"/><path d="M788.83,156.224a3.836,3.836,0,0,0-2.079.211,3.274,3.274,0,0,1-2.5,0,3.737,3.737,0,0,0-2.939.053,1.914,1.914,0,0,1-.846.2,2.712,2.712,0,0,1-2.39-2.592,2.227,2.227,0,0,0,.6-.591,3.462,3.462,0,0,1,5.973-.02,2.338,2.338,0,0,0,1.979,1.013h.032A2.427,2.427,0,0,1,788.83,156.224Z" transform="translate(-662.76 -147.289)" opacity="0.03"/><path d="M277.89,308.9a6.173,6.173,0,0,1,3.341.339,5.25,5.25,0,0,0,4.018,0,6,6,0,0,1,4.719.085,3.093,3.093,0,0,0,1.358.317c1.914,0,3.5-1.8,3.836-4.166a3.544,3.544,0,0,1-.956-.962,5.564,5.564,0,0,0-9.6-.024,3.757,3.757,0,0,1-3.172,1.626h-.049A3.913,3.913,0,0,0,277.89,308.9Z" transform="translate(-268.335 -267.693)" opacity="0.03"/></g></svg>