<svg xmlns="http://www.w3.org/2000/svg" width="721.571" height="703.585" viewBox="0 0 721.571 703.585">
  <path id="github" d="M241.014,573.707c0,2.905-3.341,5.23-7.554,5.23-4.794.436-8.135-1.889-8.135-5.23,0-2.906,3.341-5.23,7.554-5.23C237.236,568.041,241.014,570.365,241.014,573.707Zm-45.181-6.538c-1.017,2.906,1.889,6.247,6.247,7.119,3.777,1.453,8.135,0,9.007-2.906s-1.889-6.247-6.247-7.554C201.063,562.811,196.85,564.264,195.833,567.169Zm64.212-2.47c-4.213,1.017-7.119,3.777-6.683,7.119.436,2.906,4.213,4.794,8.571,3.777,4.213-1.017,7.119-3.777,6.683-6.683C268.18,566.152,264.258,564.264,260.045,564.7ZM355.637,8C154.138,8,0,160.976,0,362.475c0,161.112,101.4,298.979,246.244,347.5,18.6,3.341,25.133-8.135,25.133-17.578,0-9.007-.436-58.692-.436-89.2,0,0-101.694,21.792-123.049-43.292,0,0-16.562-42.275-40.387-53.171,0,0-33.268-22.808,2.324-22.373,0,0,36.174,2.906,56.077,37.481,31.816,56.077,85.132,39.951,105.907,30.363,3.341-23.244,12.784-39.37,23.244-48.958-81.21-9.007-163.146-20.775-163.146-160.531,0-39.951,11.041-60,34.285-85.568-3.777-9.443-16.126-48.377,3.777-98.643,30.363-9.443,100.241,39.225,100.241,39.225a343.2,343.2,0,0,1,182.467,0s69.878-48.813,100.241-39.225c19.9,50.411,7.554,89.2,3.777,98.643,23.244,25.714,37.481,45.762,37.481,85.568,0,140.192-85.568,151.378-166.777,160.531,13.365,11.477,24.7,33.268,24.7,67.408,0,48.958-.436,109.538-.436,121.451,0,9.443,6.683,20.92,25.133,17.578,145.276-48.232,243.774-186.1,243.774-347.211C720.571,160.976,557.135,8,355.637,8ZM141.209,509.059c-1.889,1.453-1.453,4.794,1.017,7.554,2.324,2.324,5.666,3.341,7.554,1.453,1.889-1.453,1.453-4.794-1.017-7.554C146.439,508.187,143.1,507.17,141.209,509.059Zm-15.69-11.767c-1.017,1.889.436,4.213,3.341,5.666,2.324,1.453,5.23,1.017,6.247-1.017,1.017-1.889-.436-4.213-3.341-5.666C128.86,495.4,126.536,495.838,125.519,497.291Zm47.07,51.718c-2.324,1.889-1.453,6.247,1.889,9.007,3.341,3.341,7.554,3.777,9.443,1.453,1.889-1.889,1.017-6.247-1.889-9.007C178.835,547.121,174.477,546.685,172.588,549.01Zm-16.562-21.356c-2.324,1.453-2.324,5.23,0,8.571s6.247,4.794,8.135,3.341c2.324-1.889,2.324-5.666,0-9.007-2.034-3.341-5.811-4.794-8.135-2.906Z" transform="translate(0.5 -7.5)" fill="#333" stroke="#333" stroke-width="1"/>
</svg>
