<svg xmlns="http://www.w3.org/2000/svg" width="438.612" height="268.48" viewBox="0 0 438.612 268.48">
  <g id="logo" transform="translate(-15.85 -63.208)">
    <path id="Path_2" data-name="Path 2" d="M314.53,331.3a9.719,9.719,0,0,1-4.782-4.624c-.678-1.295-.97-2.828-1.111-5.818-.284-6.053,1.176-9.867,4.454-11.633a10.536,10.536,0,0,1,7.583-.081,6.119,6.119,0,0,1,3.26,4.756c0,1.1-.119,1.173-1.632,1.047-1.471-.123-1.663-.287-1.94-1.653-.789-3.889-5.774-4-7.675-.171-1.264,2.546-1.2,9.7.121,12.554,1.664,3.6,4.819,4.738,8.271,2.978,2.2-1.12,2.236-1.114,2.178.33a1.913,1.913,0,0,1-1.269,1.8,14.649,14.649,0,0,1-7.456.513Zm57.309-.064a8.521,8.521,0,0,1-4.082-4.121c-1.1-2.106-1.569-9.056-.8-11.91,1.159-4.3,4.057-6.769,7.958-6.769,5.709,0,8.8,4.949,8.234,13.193-.35,5.119-1.981,8.2-5.033,9.5a10.12,10.12,0,0,1-6.277.109Zm5.916-2.909c1.68-1.812,2.2-3.854,2.163-8.464-.05-5.927-1.429-8.931-4.351-9.48-3.6-.675-5.524,2.164-5.829,8.6-.226,4.782.294,7.266,1.931,9.211a3.105,3.105,0,0,0,3.047,1.338,3.361,3.361,0,0,0,3.038-1.205Zm26.565,2.38a6.869,6.869,0,0,1-3.255-3.595c-1.208-2.357-1.318-2.942-1.316-7,0-3.852.152-4.745,1.152-6.883,1.57-3.354,3.282-4.513,6.966-4.714,3.7-.2,5.415.842,7.18,4.369,1.085,2.169,1.239,2.977,1.257,6.592.033,6.581-1.3,9.9-4.591,11.388a8.071,8.071,0,0,1-7.393-.16Zm6.321-2.059c1.828-1.438,2.64-4.666,2.414-9.6-.231-5.043-1.082-7.163-3.3-8.214-4.224-2-6.864,1.55-6.864,9.245,0,4.666.578,6.8,2.306,8.532,1.213,1.213,3.919,1.229,5.439.033Zm13.9,2.06c-3.521-1.857-4.957-5.129-4.968-11.321-.005-3.311.152-4.088,1.292-6.353,1.747-3.471,3-4.309,6.752-4.521,4.619-.261,7.508,1.55,8.23,5.16.267,1.334.243,1.355-1.493,1.355-1.654,0-1.781-.092-2.041-1.478-.395-2.1-1.717-3.137-4.013-3.137-3.656,0-5.476,3.105-5.476,9.344,0,6.4,2.1,9.774,6.089,9.774a6.38,6.38,0,0,0,3.043-.684c.878-.615.977-1.059.977-4.373V320.79l-2.527-.132c-2.239-.117-2.543-.245-2.668-1.121-.137-.966-.045-.989,4.065-.989H436v5.257c0,4.761-.086,5.337-.916,6.11C432.983,331.878,427.527,332.289,424.537,330.712ZM283.5,320.966V310.638h-2.668c-2.515,0-2.66-.057-2.527-.989.138-.97.269-.991,6.843-1.11l6.7-.121v1.11c0,1.064-.11,1.11-2.637,1.11h-2.637v20.656H283.5Zm10.987-1.1V308.441h10.987v1.1c0,1.091-.029,1.1-3.956,1.1h-3.955v7.911H301.3c3.692,0,3.736.012,3.736,1.1s-.044,1.1-3.736,1.1h-3.736v8.35h4.175c4.16,0,4.175,0,4.175,1.1v1.1H294.487Zm32.626.11.117-11.317h2.637l.249,9.92,8.409-.251.132-9.669,2.857-.275V331.35l-1.428-.138-1.428-.138-.135-10.108-8.435-.252v10.58H327Zm19.777,0,.117-11.317,1.665-.137,1.665-.137,9.17,18.734.025-18.679h2.637v22.9l-3.47-.27-4.418-8.957-4.418-8.957V331.3h-3.091Zm40.53,10.759c-.118-.307-.161-5.4-.1-11.317l.118-10.759,2.857-.275V329.1h3.956c3.926,0,3.955.008,3.955,1.1v1.1h-5.288c-3.867,0-5.345-.15-5.5-.558ZM444.357,326v-5.291l-3.3-5.736a67.139,67.139,0,0,1-3.3-6.136c0-.22.685-.4,1.523-.4,1.479,0,1.6.134,4.065,4.6a37.269,37.269,0,0,0,2.784,4.615,19.677,19.677,0,0,0,2.159-3.392c2.983-5.3,3.422-5.823,4.88-5.823.709,0,1.287.148,1.286.33s-1.584,2.98-3.516,6.22l-3.513,5.89v10.415h-3.076Zm-331.134,3.731c-13.4-3.361-21.559-15.683-20.781-31.4.415-8.386,3.31-14.915,8.953-20.192,5.6-5.232,11.915-7.508,20.769-7.481,4.586.014,10.2.772,10.9,1.472.247.247-.637,9.969-.934,10.265a25.262,25.262,0,0,1-3.822-.753c-4.6-1.1-7.466-1.123-10.656-.07-11.58,3.82-16.055,19-8.926,30.27a20.7,20.7,0,0,0,7.684,6.636c2.22,1.041,3,1.167,7.109,1.146a19.778,19.778,0,0,0,7.248-.956,16.129,16.129,0,0,1,2.737-.828c.182.182,1.5,10.031,1.356,10.162-.074.068-1.518.571-3.21,1.116-4,1.291-14.359,1.638-18.43.617Zm28.01-.967c.133-.665.773-4.67,1.422-8.9s2.6-16.888,4.337-28.128l3.156-20.437,13.626-.241.919,2.977c.505,1.638,2.93,9.152,5.388,16.7s4.937,15.557,5.508,17.8c1.062,4.17,1.161,4.209,1.983.782.261-1.088,3.175-10.136,6.476-20.107l6-18.129h13.363l.265,1.428c.146.786,1.462,9.142,2.925,18.569s3.063,19.711,3.555,22.854c2.074,13.249,2.406,15.632,2.207,15.832a46.363,46.363,0,0,1-6.021.21h-5.811l-.257-1.428c-.758-4.217-5.5-36.568-5.656-38.566-.094-1.22-.365-.582-1.309,3.076-.924,3.581-6.776,22.56-10.947,35.5L181.9,330l-11.429-.245-4.8-14.5c-2.642-7.977-5.475-17.069-6.3-20.2-1.274-4.87-1.526-5.479-1.725-4.175-.313,2.047-4.7,38.354-4.689,38.773.007.181-2.683.33-5.977.33h-5.988Zm80.059.659c-.116-.3-.159-13.6-.1-29.556l.114-29.007h11.866c11.065,0,12.078.066,15,.984,4.039,1.27,7.058,3.312,8.84,5.978,1.882,2.816,2.416,4.989,2.373,9.656-.029,3.2-.239,4.328-1.2,6.47a17.584,17.584,0,0,1-11.336,9.247l-2.047.515,1.046,1.374c2.691,3.534,17.094,23.755,17.3,24.286.189.492-1.031.6-6.769.6h-7l-8.1-12.069c-4.455-6.638-8.249-12.076-8.43-12.086s-.33,5.421-.33,12.069v12.086h-5.507c-4,0-5.565-.15-5.717-.549Zm19.628-32.859a8.679,8.679,0,0,0,5.7-12.121,6.955,6.955,0,0,0-2.3-2.711c-1.954-1.2-6.6-2.01-9.493-1.649l-2.315.289v16.638l3.406,0a25.007,25.007,0,0,0,5-.444Zm40.382-13.59V271.523h3.091l-.235,22.634-1.428.138-1.428.138Zm8.35-.028V271.523h3.531l8.994,18.239.238-18.239h2.634l-.235,22.634-3.288.272L292.367,275.7l-.079,18.679h-2.637Zm19.887,11.136c-.475-.191-.835-3.225-.383-3.225a15.836,15.836,0,0,1,1.744.659,11.942,11.942,0,0,0,3.809.659c2.671,0,4.389-1.346,4.389-3.437,0-1.818-1.286-3.225-4.477-4.9-4.846-2.542-6.352-4.523-5.871-7.726.594-3.959,4.506-5.737,10.458-4.753,1.525.252,1.648.384,1.648,1.753a5.027,5.027,0,0,1-.11,1.474c-.06,0-.9-.292-1.868-.64-3.865-1.392-7.252-.263-7.252,2.419,0,1.572,1.552,3.1,4.8,4.725a20.516,20.516,0,0,1,4.065,2.774c1.529,1.438,1.679,1.785,1.679,3.867,0,4.759-2.442,6.638-8.57,6.594a24.4,24.4,0,0,1-4.065-.247Zm18.789-9.987V273.765l-2.527-.132c-2.239-.117-2.543-.245-2.668-1.121l-.14-.989h13.747l-.14.989c-.124.876-.429,1-2.66,1.12l-2.519.132-.118,10.2-.118,10.2-1.428.138-1.428.138Zm10.987-1.149V271.467l2.857.275v22.414l-1.428.138-1.428.138ZM350.051,293.8c-.122-.319-.166-4.959-.1-10.31l.127-9.73-2.637-.128c-2.3-.111-2.637-.239-2.637-1.007,0-.835.333-.885,6.7-1l6.7-.121v1.11c0,1.064-.11,1.11-2.637,1.11h-2.637v20.656h-1.332c-.733,0-1.432-.261-1.555-.58Zm13.519-.31c-2.566-1.564-2.9-3.053-2.922-12.954l-.018-8.79h3.076l.22,9.294c.2,8.309.308,9.392,1.049,10.21a4.952,4.952,0,0,0,5.165.907c2.269-.94,2.576-2.374,2.576-12.047v-8.584h3.14l-.142,9.12c-.157,10.117-.358,10.982-2.954,12.729-2.039,1.373-7.026,1.435-9.191.115Zm20.007.617a91.077,91.077,0,0,1-.313-10.348V273.721h-2.637c-2.52,0-2.637-.049-2.637-1.1v-1.1h13.624v1.1c0,1.05-.118,1.1-2.629,1.1h-2.629l-.236,20.437-1.115.13a2.278,2.278,0,0,1-1.428-.183Zm10.66-.044c-.008-.188-.012-5.287-.011-11.33l0-10.987L405.3,271.5l-.142,1c-.135.95-.354,1.009-4.207,1.129l-4.065.126v7.438h3.956c3.909,0,3.955.012,3.955,1.082s-.087,1.085-3.846,1.209l-3.846.127v8.35l4.175.062c4.076.061,4.175.087,4.175,1.1,0,1.028-.044,1.037-5.6,1.159-3.082.068-5.61-.031-5.618-.22Zm27.441-.089c-1.536-.66-4.012-3.923-4.527-5.968a26.812,26.812,0,0,1-.485-5.178c0-5.925,1.877-9.725,5.486-11.1A7.742,7.742,0,0,1,432.2,275.87c.774,1.686.931,2.873.937,7.08.006,4.417-.123,5.317-1.02,7.139-1.469,2.983-3.135,4.025-6.655,4.165a12.914,12.914,0,0,1-3.788-.282Zm6.265-2.768c2.967-2.985,2.912-13.883-.086-16.881a4.5,4.5,0,0,0-5.634-.135c-3.652,2.872-3.159,15.978.673,17.9a4.914,4.914,0,0,0,5.048-.885Zm9.577,2.615c-.118-.307-.161-5.4-.1-11.317l.118-10.759,11.207-.246v1.112c0,1.111,0,1.112-4.175,1.112H440.4v7.471h3.956c3.926,0,3.956.008,3.956,1.1s-.029,1.1-3.956,1.1H440.4v10.987h-1.332c-.733,0-1.429-.251-1.546-.558ZM54.965,257.6c-12.054-.859-23.773-4.86-29.581-10.1s-9.457-12.2-9.518-18.15l-.016-1.516,2.2,2.472c9.3,10.436,25.157,14.892,44.137,12.4,4.926-.646,12.232-2.159,24.2-5.011,11.559-2.755,21.1-3.945,34.907-4.355l9.417-.279-2.256-1.226a84.034,84.034,0,0,0-13.5-4.873c-2.976-.789-12.822-3.1-15.163-3.563-12.733-2.5-31.034-6.93-39.335-9.52-14.344-4.475-23.027-9.049-29.446-15.513-3.409-3.433-5.744-7.17-6.538-10.463-.389-1.613.014-1.528,2.5.529,11.192,9.249,19.781,11.982,53.257,16.945,2.659.394,7.7,1.214,11.207,1.823,9.793,1.7,16.428,2.69,27.679,4.131,5.675.727,11.588,1.616,13.14,1.976a12,12,0,0,0,3,.479c.1-.1-.773-.859-1.932-1.694-5.951-4.286-12.927-7.636-24.962-11.988-7.9-2.858-8.041-2.9-18.9-5.882-12.69-3.484-18.381-5.534-26.368-9.5-9.474-4.7-16.591-10.439-22.223-17.912-3.8-5.041-9.353-17.032-7.889-17.032a11.794,11.794,0,0,1,2.488,2.307c9.11,10,16.32,15.186,27.938,20.093,8.54,3.607,16.513,5.839,32.208,9.018,29.135,5.9,60.625,18.481,80.648,32.219,12.855,8.82,23.51,20.183,29.346,31.294,2.493,4.746,4.773,10.417,4.356,10.833-.154.154-7.058.047-15.343-.237-26.283-.9-46.886-1.071-65.386-.533-17.311.5-45.583,1.84-56.7,2.68a147.658,147.658,0,0,1-17.58.148ZM220,254.493c4.427-17.3,4.929-31.318,1.73-48.357-2.442-13.006-6.863-25.344-13.946-38.919-4.274-8.19-7.984-13.983-15.954-24.906-15.789-21.64-20.482-28.736-24.562-37.138-3.392-6.984-4.3-10.421-4.295-16.261.007-7.885,2.149-13.264,7.357-18.473a22.886,22.886,0,0,1,17.217-7.232,26.4,26.4,0,0,1,19.273,8.01c2.952,3.179,4.412,5.835,6.019,10.951.9,2.856,1.014,4.112,1.014,10.919,0,8.65-.1,9.03-4.308,16.371-1.923,3.355-4.219,10.7-4.945,15.822-.163,1.148-.457,2.088-.654,2.088a5.731,5.731,0,0,1-1.209-2.307c-1.741-4.719-1.988-6.768-1.731-14.374.189-5.575.1-7.849-.386-9.694-.348-1.326-1.038-5.575-1.534-9.443-1.213-9.462-1.921-12.681-3.5-15.917-2.219-4.549-5.818-6.718-11.152-6.718-4.907,0-7.865,1.529-10.577,5.466-3.182,4.621-4.154,11.465-2.6,18.305,2.3,10.1,12.583,23.72,34.474,45.651a118.24,118.24,0,0,1,13.2,15.02c9.956,13.34,16.728,27.747,19.3,41.06,1.711,8.853,1.619,20.166-.228,28.133a73.053,73.053,0,0,1-9.747,22.386c-2.578,3.911-7.885,10.768-8.333,10.768-.127,0-.093-.544.078-1.209Zm-63.722-66.9c-8.447-4.267-13.23-6.152-29.666-11.691-18.679-6.295-20.154-6.82-27.757-9.877-14.359-5.775-21.3-9.956-29.643-17.85a70.8,70.8,0,0,1-17.533-28.017c-1.638-5-2.342-8.206-1.65-7.508.24.242,2.211,2.516,4.38,5.054,16.308,19.082,32.887,30.254,66.139,44.565,18.3,7.877,19.781,8.55,23.409,10.642,7.8,4.5,16.11,11.786,18.268,16.017a6.651,6.651,0,0,1,.787,1.907c-.077.049-3.107-1.409-6.733-3.241Zm12.086-11.4a86.131,86.131,0,0,0-20.372-15.231c-16.934-9.305-30.3-17.307-36.392-21.787a77.31,77.31,0,0,1-12.9-13.353c-4.922-6.883-10.144-19.266-12.3-29.161-.613-2.816-1.973-12.422-1.983-14-.008-1.248.771-.379,2.129,2.375a192.812,192.812,0,0,0,11.174,18.392c8.66,12.427,16.349,20.346,29.037,29.906,12.11,9.125,24.062,18.3,27.975,21.467,8.628,6.992,15.421,15.789,18.015,23.329.486,1.412.883,2.635.883,2.718,0,.55-1.2-.513-5.274-4.65Zm15.256-5.857c-5.891-8.978-17.879-22.552-32.557-36.866-13.4-13.067-19.477-20.372-23.347-28.07s-5.274-14.317-4.96-23.354c.191-5.482,1.3-11.806,2.069-11.806a13.542,13.542,0,0,1,1.34,3.626c4.033,14.111,12.268,27.264,30.056,48.011,12.16,14.182,21.566,27.04,25.509,34.867,2.278,4.523,4.229,10.638,4.527,14.182a9.131,9.131,0,0,1,0,3.035,25.121,25.121,0,0,1-2.635-3.626Z" transform="translate(0 0)" fill="#a1d0f2"/>
    <path id="Path_5" data-name="Path 5" d="M293.742,274.692c-3.708-1.322-5.539-4.466-5.891-10.113-.372-5.963,1.527-10.48,5.02-11.939a8.967,8.967,0,0,1,6.728.17c1.761.885,3.525,3.281,3.525,4.789,0,.879-.22,1.034-1.469,1.034-1.33,0-1.518-.164-1.991-1.742-1.395-4.655-6.967-3.91-8.363,1.117a23.992,23.992,0,0,0,.166,10.122,8.98,8.98,0,0,0,2.007,3.486c1.187,1.137,1.68,1.3,3.92,1.3,1.823,0,2.807-.222,3.412-.769,1.175-1.063,1.44-.97,1.44.508,0,1.128-.24,1.359-2.056,1.978a8.724,8.724,0,0,1-6.446.059Zm57.838.15c-3.6-1.039-5.826-5.308-5.826-11.156,0-7.367,3.068-11.647,8.35-11.647,5.52,0,8.809,5.254,8.215,13.126-.567,7.522-4.847,11.378-10.739,9.676Zm4.051-1.893c2.558-1.069,3.512-3.525,3.513-9.043a26.1,26.1,0,0,0-.571-6.248c-.755-2.16-2.809-3.86-4.663-3.86-3.564,0-5.3,3.8-5,10.938.212,4.943,1.044,7.1,3.134,8.131,1.724.85,1.746.851,3.583.083Zm29.3,2.067c-1.739-.33-4.654-3.63-5.361-6.071-.944-3.254-.745-9.178.39-11.632,1.169-2.527,1.721-3.193,3.6-4.338a7.586,7.586,0,0,1,10.491,3.183c1.336,2.6,1.795,8.659.943,12.466-1.1,4.917-4.948,7.362-10.062,6.391Zm3.6-1.854c2.671-1.016,3.915-4.115,3.867-9.637-.066-7.583-2.928-11.206-7.285-9.221-2.7,1.23-4.108,8.511-2.705,13.977C383.54,272.683,385.56,274.293,388.533,273.162Zm16.154,1.629a9.022,9.022,0,0,1-5.091-5.6c-1.146-3.451-.805-10.1.666-12.994,1.535-3.017,3.958-4.28,7.785-4.059,3.687.213,6.206,2.135,6.962,5.311.288,1.209.255,1.235-1.383,1.1-1.472-.123-1.722-.311-2.038-1.54-1.112-4.322-6.842-4.22-8.779.157-1.163,2.628-1.235,9.149-.133,11.9,1.426,3.565,4.722,5.2,7.848,3.894l1.626-.679-.253-8.162-2.527-.132c-2.168-.113-2.527-.254-2.527-.989,0-.786.327-.857,3.969-.857h3.969l-.246,11.207-1.662.812a13.767,13.767,0,0,1-8.185.624ZM263.032,264.675l-.118-10.218-2.633-.22c-2.052-.171-2.665-.389-2.779-.989-.134-.706.417-.769,6.7-.769,6.551,0,6.844.038,6.844.879,0,.781-.293.879-2.637.879h-2.637v20.656H263.15Zm10.65-.989V252.479h5.494c5.166,0,5.494.051,5.494.862,0,.786-.362.874-4.065.989l-4.065.126v7.471l3.846.127c3.457.114,3.846.212,3.846.972s-.389.858-3.846.972l-3.846.127v8.35l4.285.126c4.227.124,4.285.14,4.285,1.209v1.083H273.682Zm32.523,0V252.479h3.076v9.669h8.79v-9.669h2.637v22.414h-2.637V264.346h-8.79v10.548H306.2Zm20.217,0V252.479l3.3.011,8.936,18.227.037-9.12.037-9.12h2.637v22.414h-3.371l-9.155-18.679-.237,18.679h-2.18Zm40.434,0V252.479h2.637V272.7h3.955c3.926,0,3.956.008,3.956,1.1v1.1H366.855Zm56.7,5.888v-5.319l-3.133-5.558c-1.723-3.057-3.218-5.707-3.322-5.888s.564-.329,1.485-.329c1.572,0,1.748.142,2.886,2.307.666,1.268,1.823,3.372,2.571,4.675l1.36,2.369,2.636-4.676c2.526-4.482,2.7-4.676,4.1-4.676H433.6l-3.488,5.954-3.488,5.954v10.506H423.55ZM92.417,273.334a29.884,29.884,0,0,1-11.152-5.7c-6.62-5.952-10.158-15.407-9.62-25.7.442-8.444,3.313-14.928,8.943-20.192,5.6-5.232,11.915-7.508,20.769-7.481,4.586.014,10.2.772,10.9,1.472.248.248-.638,9.969-.936,10.267a12.73,12.73,0,0,1-2.723-.56c-4.184-1.121-8.376-1.293-11.219-.46-8.582,2.514-14.056,11.692-12.7,21.284,1.047,7.379,4.935,13.011,10.92,15.816,2.226,1.044,2.99,1.166,7.109,1.135a22.218,22.218,0,0,0,7.362-.943,13.22,13.22,0,0,1,2.747-.75c0,.087.307,2.363.683,5.057a44.6,44.6,0,0,1,.549,5.023c-.074.068-1.518.571-3.21,1.116-4,1.291-14.359,1.638-18.43.617Zm28.125-1.627c.178-1.027,2.231-14.229,4.562-29.336l4.238-27.469h13.588l1.021,3.076c4.708,14.186,9.976,30.8,10.832,34.159,1.062,4.17,1.161,4.209,1.983.782.261-1.088,3.18-10.136,6.486-20.107l6.012-18.129h13.351l.47,2.747c.259,1.511,1.664,10.46,3.124,19.887s3.308,21.347,4.108,26.488,1.36,9.443,1.243,9.559c-.278.278-11.932.276-11.932,0,0-.231-1.514-10.216-2.2-14.51-.916-5.732-3.5-23.822-3.615-25.271-.094-1.22-.365-.582-1.309,3.077-.924,3.581-6.776,22.56-10.947,35.5l-.464,1.441-11.429-.245-4.8-14.5c-2.642-7.977-5.475-17.069-6.3-20.2-1.274-4.87-1.526-5.479-1.725-4.175-.313,2.047-4.7,38.354-4.689,38.773.007.181-2.676.33-5.96.33h-5.972l.324-1.868Zm79.945,1.319c-.116-.3-.159-13.6-.1-29.556l.114-29.007,10.649-.118c11.574-.128,14.86.255,19.181,2.233a13.59,13.59,0,0,1,6.671,6.095c1.24,2.238,1.295,2.571,1.295,7.831,0,5.109-.082,5.648-1.172,7.691a18.568,18.568,0,0,1-11.035,8.6l-2.1.523,1.046,1.374c2.691,3.534,17.094,23.755,17.3,24.286.189.492-1.031.6-6.769.6h-7l-8.1-12.069c-4.455-6.638-8.249-12.076-8.43-12.086s-.33,5.421-.33,12.069v12.086H206.2c-4,0-5.565-.15-5.717-.549Zm19.628-32.859a8.679,8.679,0,0,0,5.7-12.121,6.955,6.955,0,0,0-2.3-2.711c-1.954-1.2-6.6-2.01-9.493-1.649l-2.315.289v16.638l3.406,0a25.011,25.011,0,0,0,5-.444Zm41.59-2.534-1.209-.155V215.123h3.077V226.3c0,6.15-.148,11.249-.33,11.333a4.493,4.493,0,0,1-1.538,0Zm7.361-.023c-.121-.121-.22-5.23-.22-11.353V215.122h3.344l4.591,9.321,4.591,9.321.119-9.35.119-9.35,1.2.138,1.2.138.118,10.957c.078,7.243-.037,11.053-.34,11.239a3.669,3.669,0,0,1-1.794.087c-1.254-.184-1.613-.749-5.813-9.164l-4.476-8.968-.22,9.1c-.219,9.048-.225,9.1-1.209,9.168a2.247,2.247,0,0,1-1.209-.147Zm19.887.063c-.541-.141-.769-.641-.769-1.685V234.5l1.648.694a12.786,12.786,0,0,0,3.935.732c2.938.049,4.525-1.236,4.525-3.663,0-1.934-1.215-3.208-5.054-5.3-3.495-1.907-4.539-2.9-5.05-4.8-1.288-4.782,2.837-8.082,9.005-7.2,2.56.365,2.642.418,2.775,1.794l.137,1.418-1.84-.649c-4.217-1.488-7.443-.427-7.443,2.447,0,1.665,1.313,3.033,4.428,4.611,4.841,2.453,6.12,4,6.12,7.418a4.387,4.387,0,0,1-1.355,3.527,7.3,7.3,0,0,1-2.967,1.991,26.532,26.532,0,0,1-8.095.15Zm19.777-.04-1.209-.155v-20.6h-2.637c-2.344,0-2.637-.1-2.637-.879,0-.841.293-.879,6.812-.879,6.464,0,6.812.044,6.812.858,0,.743-.359.876-2.67.989l-2.67.131.047,10.183c.026,5.6-.108,10.256-.3,10.344a4.383,4.383,0,0,1-1.553.006Zm9.779-11.123V215.122h2.637v11.207c0,8.655-.125,11.215-.549,11.241a12.929,12.929,0,0,0-1.319.181c-.716.137-.769-.632-.769-11.241Zm10.885.932-.118-10.342-2.527-.132c-2.168-.113-2.527-.254-2.527-.989,0-.812.349-.857,6.592-.857s6.592.045,6.592.857c0,.735-.36.876-2.527.989l-2.527.132-.44,20.581-2.4.1ZM344,237.665a7.1,7.1,0,0,1-1.69-1.174c-2.118-1.917-2.266-2.72-2.266-12.338v-9.032h2.637l0,8.021c0,8.817.342,10.833,2.05,12.176a5.228,5.228,0,0,0,5,.446c1.9-1.016,2.173-2.509,2.173-11.832v-8.812h3.153l-.148,9.12c-.167,10.264-.487,11.465-3.459,12.964a14.5,14.5,0,0,1-7.457.459Zm19.228-.029c-.706-.151-.769-1.011-.769-10.461v-10.3h-2.637c-2.344,0-2.637-.1-2.637-.879,0-.841.293-.879,6.812-.879s6.812.038,6.812.879c0,.781-.293.879-2.637.879h-2.637v10.277c0,9.424-.064,10.292-.769,10.461a4.151,4.151,0,0,1-1.538.019Zm10.218-11.2V215.122h5.494c5.166,0,5.494.052,5.494.863,0,.786-.362.874-4.065.989l-4.065.126-.127,3.828-.127,3.828,3.862.127c3.626.119,3.871.188,4,1.116.137.963.037.989-3.846.989h-3.986v8.79h4.128c3.046,0,4.187.154,4.354.589.45,1.172-.443,1.389-5.736,1.389h-5.384V226.439Zm27.447,10.919c-3.417-1.488-5.234-5.767-4.952-11.662.339-7.09,3.169-10.779,8.27-10.779,3.373,0,5.308,1.266,6.9,4.513,1.093,2.233,1.225,2.98,1.223,6.9,0,6.129-1.338,9.3-4.634,11a10.075,10.075,0,0,1-6.8.025Zm6.168-2.583c3.689-3.689,2.935-15.919-1.086-17.61-2.873-1.208-5.588.448-6.579,4.014a32.74,32.74,0,0,0,.025,10.829c1.154,4.155,4.9,5.51,7.64,2.766Zm10.884,2.891-.989-.19V215.123h5.494c5.166,0,5.494.052,5.494.863,0,.786-.362.874-4.065.989l-4.065.126-.127,3.828-.127,3.828,3.862.127c3.626.119,3.871.188,4,1.116.137.963.037.989-3.846.989h-3.986v5.494c0,3.022-.148,5.467-.33,5.434s-.775-.146-1.319-.25Z" transform="translate(20.815 56.406)" fill="#9b9b9b"/>
    <path id="Path_6" data-name="Path 6" d="M264.068,274.529l-.989-.14V254.234h-2.637c-2.344,0-2.637-.1-2.637-.879,0-.84.293-.879,6.625-.879,6.072,0,6.613.064,6.478.769-.117.617-.689.8-2.881.9l-2.734.131-.118,10.2-.118,10.2Zm9.742-.043c-.1-.1-.183-5.094-.183-11.1V252.475h5.526c5.026,0,5.513.07,5.379.769-.125.655-.749.788-4.207.9l-4.06.126v7.844l3.841.127c3.249.107,3.863.246,3.988.9.131.687-.28.769-3.841.769h-3.988v9.229h4.175c3.683,0,4.175.091,4.175.769s-.546.769-5.311.769a44.157,44.157,0,0,1-5.494-.183Zm18.916-.416c-3.449-2.1-4.739-5.129-4.739-11.116,0-6.9,2.872-10.7,8.052-10.669,3.719.023,6.063,1.654,6.842,4.759.27,1.075.19,1.145-1.3,1.145-1.139,0-1.586-.192-1.586-.681a4.543,4.543,0,0,0-2.6-3.636c-4.693-1.636-7.963,4.3-6.651,12.082.851,5.046,2.826,7.324,6.35,7.324a8.882,8.882,0,0,0,3.329-.732c1.826-.911,1.773-.916,1.773.169,0,2.04-6.759,3.008-9.468,1.356Zm13.863-10.5v-11.1h1.084c1.081,0,1.085.014,1.209,4.944l.124,4.944,9.01.25V252.475h2.637v21.872l-1.088.208a2.219,2.219,0,0,1-1.319-.022,34.985,34.985,0,0,1-.23-5.431v-5.2h-9.229v10.768h-2.2Zm19.777.036V252.475h3.084l4.46,9.229c2.453,5.076,4.627,9.229,4.831,9.229s.371-4.153.371-9.229v-9.229h1.978l-.125,10.988c-.094,8.245-.258,11-.659,11.021-.294.019-.9.1-1.342.187-.659.125-1.673-1.605-5.494-9.373l-4.686-9.526-.22,9.413c-.219,9.377-.224,9.413-1.209,9.486l-.989.072V263.609Zm23.861,10.417c-4.133-2.52-5.8-11.175-3.255-16.923,2.283-5.162,8.6-6.578,12.326-2.765,2.012,2.058,2.8,5.23,2.594,10.394-.2,4.869-1.268,7.423-3.836,9.152a8.428,8.428,0,0,1-7.828.142Zm6.643-1.8c1.953-1.715,2.641-4.576,2.385-9.917-.23-4.807-1.2-7.075-3.493-8.2a3.348,3.348,0,0,0-3.3-.22,3.985,3.985,0,0,0-2.7,2.564c-1.282,2.582-1.74,7.977-.986,11.6,1.065,5.119,4.812,7.049,8.093,4.168Zm9.931-8.658v-11.1h2.68l-.137,20.437,3.783.127c3.228.108,3.783.237,3.783.879,0,.666-.577.752-5.054.752H366.8Zm16.8,10.586c-2.884-1.422-4.491-5.169-4.491-10.476,0-5.816,1.9-9.638,5.468-11a6.775,6.775,0,0,1,7.8,1.59c1.858,1.953,2.482,3.728,2.843,8.092.289,3.5-.617,7.874-2.045,9.88C391.4,274.745,386.694,275.685,383.6,274.159Zm6.743-2.124c2.706-2.869,3.227-11.153.977-15.535-2.019-3.931-6.474-3.852-8.475.15-.732,1.465-.879,2.637-.879,7.032,0,5.879.665,8.065,2.8,9.228a4.224,4.224,0,0,0,5.572-.875Zm13.371,2.04c-3.366-1.791-5.167-6.548-4.69-12.388.294-3.6,1.339-6.26,3.007-7.663,3.49-2.936,9.671-2.3,11.816,1.22,1.248,2.047,1.129,2.945-.391,2.945-1.053,0-1.362-.28-1.946-1.767-1.333-3.393-5.451-3.83-7.963-.845-2.211,2.628-2.609,10.058-.762,14.233,1.181,2.671,3.116,3.869,5.865,3.632,3.184-.274,3.421-.649,3.421-5.418V263.9h-2.6c-2.379,0-2.577-.073-2.366-.879s.6-.879,3.914-.879h3.685v11.03l-1.868.848c-2.508,1.138-7.036,1.164-9.126.053Zm20.224-4.544v-4.919l-3.3-5.863c-1.813-3.225-3.3-5.955-3.3-6.068s.559-.205,1.243-.205c1.122,0,1.495.45,3.822,4.615A28.645,28.645,0,0,0,425.3,261.7a28.479,28.479,0,0,0,2.881-4.607c2.284-4.1,2.7-4.608,3.774-4.615.665,0,1.209.077,1.209.179s-1.582,2.838-3.516,6.079l-3.516,5.893v9.816h-2.2ZM93.873,273.384a27.457,27.457,0,0,1-9.666-3.8c-2.5-1.617-6.289-5.255-7.217-6.932a4.163,4.163,0,0,0-.678-.947,24.232,24.232,0,0,1-1.63-3.3c-3.994-9.075-3.941-20.867.13-28.9a32.528,32.528,0,0,1,5.3-7.359c5.529-4.6,8.9-6.242,15.381-7.491,4.093-.788,15.295.06,16.483,1.248.429.429-.46,8.887-1,9.488-.2.221-1.746.058-3.6-.379-7.165-1.687-12.763-.339-17.287,4.164-6.235,6.2-7.62,15.451-3.6,24.05,1.16,2.482,1.1,2.4,3.477,5.089a15.525,15.525,0,0,0,5.075,3.653c3.175,1.527,3.278,1.545,7.948,1.372a36.229,36.229,0,0,0,6.269-.657c3.781-1.184,3.412-1.333,3.731,1.5.159,1.413.443,3.495.631,4.626.4,2.417.3,2.613-1.725,3.314-5.218,1.807-13.065,2.353-18.019,1.253Zm26.809-.967c0-.614,2.658-18.331,3.948-26.314.43-2.659.61-3.822,3.071-19.777.746-4.834,1.459-9.438,1.585-10.23l.23-1.44,6.637.121,6.637.121.838,2.637c.461,1.45,2.9,8.966,5.412,16.7,4.669,14.354,6.362,20.15,6.362,21.773,0,1.669.723.5,1.285-2.085.53-2.434,4.5-15.212,5.3-17.051.21-.483,1.6-4.637,3.083-9.229s2.87-8.746,3.076-9.229.555-1.472.774-2.2l.4-1.318h13.044l.77,4.615c.7,4.21,1.537,9.5,3.954,25.051.47,3.022,1.043,6.68,1.274,8.131s.724,4.615,1.1,7.032.864,5.582,1.1,7.032.543,3.477.693,4.5l.273,1.868h-5.972c-3.528,0-5.972-.173-5.972-.422,0-.232-.6-4.435-1.335-9.339-2.009-13.423-3.849-26.187-4.185-29.044a6.207,6.207,0,0,0-.49-2.357,44.162,44.162,0,0,0-1.284,4.525c-.958,3.795-4.357,15.049-6.089,20.156-.328.967-1.643,5.076-2.923,9.132l-2.327,7.374-11.27-.244-3-9.01c-6.882-20.651-9.272-28.6-9.283-30.9,0-.437-.2-.673-.444-.523a2.708,2.708,0,0,0-.439,1.771c0,.824-.48,5.312-1.067,9.973s-1.623,13.072-2.3,18.692L131.9,273.132h-5.608c-4.887,0-5.608-.092-5.608-.715Zm79.988-28.451V214.8l2.307-.277c1.269-.152,5.67-.275,9.779-.273,7.874,0,13,.645,16.656,2.08a16.642,16.642,0,0,1,7.627,6.839c1.092,2.086,1.192,2.7,1.2,7.33.008,4.7-.078,5.219-1.227,7.4a17.783,17.783,0,0,1-11.365,8.723c-1.823.365-1.9.833-.454,2.674.71.9,4.867,6.634,9.239,12.738l7.948,11.1H228.452l-4.1-6.043c-2.252-3.324-5.858-8.664-8.012-11.866a43.8,43.8,0,0,0-4.3-5.823c-.211,0-.384,5.34-.384,11.866v11.866H200.671Zm18.095-3.331c4.974-.815,8-4.167,7.952-8.822-.054-5.709-3.945-8.548-11.324-8.261l-3.516.137-.119,8.426c-.11,7.752-.057,8.442.659,8.629a17.584,17.584,0,0,0,6.348-.109Zm70.9-3.023c-1.053-.245-1.327-.55-1.363-1.512a3.736,3.736,0,0,1,.055-1.2c.054,0,.94.3,1.967.659,3.686,1.3,6.875.522,7.889-1.925,1.055-2.548-.053-4.139-4.649-6.676-4.017-2.217-5.438-3.832-5.438-6.178,0-3.852,2.29-5.658,7.172-5.658,3.537,0,4.255.259,4.255,1.537,0,1,0,1-2.28.335-2.816-.826-4.964-.383-6.2,1.276-1.7,2.289-.55,3.929,4.973,7.094,4,2.294,5.051,3.631,5.011,6.385a5.212,5.212,0,0,1-3.148,5.147,17.335,17.335,0,0,1-8.249.72Zm54.319-.188c-3.334-1.227-3.972-3.479-3.986-14.065l-.011-7.8h2.637v8.68c0,7.828.086,8.818.858,10.085a4.526,4.526,0,0,0,5.828,1.7c2.473-1.173,2.7-2.112,2.891-11.786l.169-8.68h2.118v8.68c0,9.48-.277,10.771-2.679,12.53-1.437,1.053-5.765,1.416-7.827.657Zm57.934.128c-2.148-.651-3.458-1.869-4.666-4.338-1.06-2.166-1.212-2.995-1.22-6.659-.008-3.781.118-4.439,1.309-6.822,1.727-3.453,3.441-4.615,6.812-4.615,3.1,0,5.014,1.155,6.592,3.973,1.009,1.8,1.1,2.41,1.1,7.454,0,5.247-.056,5.589-1.251,7.622a7.273,7.273,0,0,1-8.676,3.385Zm4.753-2.031c2.165-1.4,3.179-5.58,2.713-11.182-.444-5.34-2.271-7.9-5.632-7.9-3.277,0-5.087,3.68-5.081,10.328,0,3.671.168,4.731,1,6.436,1.571,3.213,4.246,4.1,7,2.32Zm-145.789-8.976V215.557h2.2v21.975h-2.2Zm8.35-.131V215.294l1.48.173c1.455.17,1.558.331,6.043,9.471l4.563,9.3.118-9.5.118-9.5,2.181.417v21.872h-2.911L276.3,228.3c-2.491-5.076-4.7-9.229-4.917-9.229s-.388,4.153-.388,9.229c0,8.936-.028,9.229-.879,9.229s-.879-.293-.879-11.119Zm38.676.791V216.876h-2.637c-2.009,0-2.637-.152-2.637-.637,0-.521,1.163-.661,6.373-.769,5.828-.121,6.373-.067,6.373.637,0,.647-.42.769-2.638.769H310.11v20.656h-2.2Zm10.548-.659V215.557H321.1v21.975h-2.637Zm10.987.659V216.876h-2.637c-2.051,0-2.637-.146-2.637-.659,0-.557,1.025-.659,6.592-.659,5.471,0,6.592.109,6.592.638,0,.474-.689.672-2.67.769l-2.67.131.048,10.218.047,10.218h-2.666Zm33.4,0V216.876h-2.637c-2.218,0-2.637-.122-2.637-.769,0-.7.6-.769,6.373-.769s6.373.072,6.373.769c0,.647-.419.769-2.637.769h-2.637v20.656h-2.2Zm10.548-.769v-11.1h5.274c4.73,0,5.274.079,5.274.769s-.481.769-3.955.769h-3.956v8.35h3.736c3.264,0,3.736.1,3.737.769s-.415.753-3.736.627l-3.737-.142v9.294h4.175c3.882,0,4.175.062,4.175.879s-.293.879-5.494.879H373.4Zm43.51.136V215.609l5.275-.136c4.783-.123,5.275-.064,5.274.633,0,.675-.483.769-3.956.769h-3.955v8.35h3.736c3.028,0,3.736.125,3.736.659s-.708.659-3.736.659h-3.736v10.987h-2.637Z" transform="translate(20.865 56.404)" fill="#9ac112"/>
    <path id="Path_7" data-name="Path 7" d="M263.953,274.4l-.989-.14V254.108h-2.637c-2.344,0-2.637-.1-2.637-.879,0-.84.293-.879,6.625-.879,6.072,0,6.613.064,6.478.769-.117.617-.689.8-2.881.9l-2.734.131-.118,10.2-.118,10.2Zm9.742-.043c-.1-.1-.183-5.094-.183-11.1V252.349h5.526c5.026,0,5.513.07,5.379.769-.125.655-.749.788-4.208.9l-4.06.126v7.844l3.841.127c3.249.107,3.863.246,3.988.9.131.687-.28.769-3.841.769h-3.988v9.229h4.175c3.683,0,4.175.091,4.175.769s-.546.769-5.311.769a44.167,44.167,0,0,1-5.494-.183Zm18.916-.416c-3.449-2.1-4.739-5.13-4.739-11.116,0-6.9,2.872-10.7,8.052-10.669,3.719.023,6.063,1.654,6.842,4.759.27,1.075.19,1.145-1.3,1.145-1.139,0-1.586-.192-1.586-.681a4.543,4.543,0,0,0-2.6-3.636c-4.693-1.636-7.963,4.3-6.651,12.082.851,5.046,2.826,7.324,6.35,7.324a8.882,8.882,0,0,0,3.329-.732c1.826-.911,1.773-.916,1.773.169,0,2.04-6.759,3.008-9.468,1.356Zm13.863-10.5v-11.1h1.084c1.081,0,1.085.014,1.209,4.944l.124,4.944,9.01.25V252.349h2.637v21.872l-1.088.208a2.218,2.218,0,0,1-1.318-.022,34.978,34.978,0,0,1-.23-5.431v-5.2h-9.229v10.768h-2.2Zm19.777.036V252.349h3.084l4.46,9.229c2.453,5.076,4.627,9.229,4.831,9.229s.371-4.153.371-9.229v-9.229h1.978l-.125,10.988c-.094,8.245-.258,11-.659,11.021-.294.018-.9.1-1.342.187-.659.125-1.673-1.605-5.494-9.373l-4.686-9.526-.22,9.413c-.219,9.377-.224,9.414-1.209,9.486l-.989.072V263.483ZM350.113,273.9c-4.133-2.52-5.8-11.175-3.255-16.923,2.283-5.162,8.6-6.578,12.326-2.765,2.012,2.058,2.8,5.23,2.594,10.394-.2,4.869-1.268,7.423-3.836,9.152a8.428,8.428,0,0,1-7.828.142Zm6.643-1.8c1.953-1.715,2.641-4.576,2.385-9.917-.23-4.807-1.2-7.075-3.493-8.2a3.348,3.348,0,0,0-3.3-.22,3.985,3.985,0,0,0-2.7,2.564c-1.282,2.582-1.74,7.977-.986,11.6,1.065,5.119,4.812,7.049,8.093,4.168Zm9.931-8.658v-11.1h2.68l-.137,20.437,3.783.127c3.228.108,3.783.237,3.783.879,0,.666-.577.752-5.054.752h-5.054Zm16.8,10.586c-2.884-1.422-4.491-5.169-4.491-10.476,0-5.816,1.9-9.638,5.468-11a6.775,6.775,0,0,1,7.8,1.59c1.858,1.953,2.482,3.728,2.843,8.092.289,3.5-.617,7.874-2.045,9.88C391.282,274.619,386.58,275.559,383.483,274.033Zm6.743-2.124c2.706-2.869,3.227-11.153.977-15.535-2.019-3.931-6.474-3.852-8.475.15-.732,1.465-.879,2.637-.879,7.032,0,5.879.665,8.065,2.8,9.228a4.224,4.224,0,0,0,5.572-.875Zm13.371,2.04c-3.366-1.791-5.167-6.548-4.69-12.388.294-3.6,1.339-6.26,3.007-7.663,3.489-2.936,9.671-2.3,11.816,1.22,1.248,2.047,1.129,2.945-.391,2.945-1.053,0-1.362-.28-1.946-1.767-1.333-3.393-5.451-3.83-7.963-.845-2.211,2.628-2.609,10.058-.762,14.233,1.181,2.67,3.116,3.869,5.865,3.632,3.184-.274,3.421-.649,3.421-5.418v-4.121h-2.6c-2.379,0-2.577-.073-2.366-.879s.6-.879,3.914-.879h3.685v11.03l-1.868.848c-2.508,1.138-7.037,1.164-9.126.053Zm20.224-4.544v-4.919l-3.3-5.863c-1.813-3.225-3.3-5.955-3.3-6.068s.559-.205,1.243-.205c1.122,0,1.495.45,3.822,4.615a28.649,28.649,0,0,0,2.895,4.615,28.485,28.485,0,0,0,2.881-4.607c2.284-4.1,2.7-4.608,3.774-4.615.665,0,1.209.077,1.209.179s-1.582,2.838-3.516,6.079l-3.516,5.893v9.816h-2.2ZM97.866,273.547c.115-.186-.592-.261-1.57-.168-1.357.129-1.7.037-1.433-.389.232-.375.17-.45-.19-.228-.652.4-3.663-.106-3.375-.571.112-.182-.443-.349-1.235-.372-2.725-.077-8.565-3.8-11.38-7.254-4.473-5.488-6.6-12.076-6.652-20.567-.032-5.537,1.045-11.866,2.019-11.866.23,0,.307-.18.171-.4-.349-.565.207-1.842.676-1.552.214.132.281-.039.15-.38-.289-.754,3.454-6.283,4.149-6.128.272.06.445-.137.384-.439a.347.347,0,0,1,.439-.44.347.347,0,0,0,.439-.439c-.06-.3.152-.5.472-.429s.471-.059.334-.28c-.364-.59.841-1.436,1.62-1.137a.815.815,0,0,0,.958-.207c.181-.292.007-.357-.467-.175-1.623.623-.063-.731,2.365-2.053,5.142-2.8,7.482-3.3,15.391-3.3,5.651,0,7.238.129,7.537.613a.925.925,0,0,0,1.077.345c.394-.151.653-.059.594.211a.643.643,0,0,0,.445.68c.353.13.454-.049.281-.5-.188-.49-.077-.627.369-.456.507.194.57.717.307,2.532-.183,1.258-.459,3.4-.615,4.766l-.283,2.479-2.5-.666c-3.077-.819-13.487-.824-12.982-.007.112.181.024.33-.2.33a10,10,0,0,0-2.316,1.287c-1.054.708-2.1,1.172-2.332,1.031s-.292-.057-.141.187c.274.443-1.7,2.612-2.261,2.479a1.878,1.878,0,0,0-.953.316c-.363.213-.452.392-.2.4a1.9,1.9,0,0,0,1.046-.536c.321-.3.232.007-.2.686-.54.85-.887,1.069-1.113.7-.2-.327-.326-.125-.321.523a16.514,16.514,0,0,1-1.1,3.92,17.491,17.491,0,0,0-.983,11.22,38.746,38.746,0,0,0,1.367,4.839c.727,1.74.77,2.1.212,1.752a.53.53,0,0,0-.707.229c-.164.265.317,1.083,1.068,1.817s1.363,1.164,1.359.954c-.012-.686-.828-1.7-1.369-1.7a.8.8,0,0,1-.7-.514c-.413-1.239,1.289-.145,2.547,1.636a17.152,17.152,0,0,0,5.393,5.075c.687.374,1.13.8.985.944-.4.4,1.554,2.31,2.347,2.294.528-.01.484-.134-.186-.521-.972-.561-2.172-1.663-1.811-1.663.126,0,1.369.3,2.761.659a23.316,23.316,0,0,0,4.856.659c1.279,0,2.325.2,2.325.44,0,.549,1.618.583,1.952.041.135-.219-.15-.3-.633-.169s-.88.014-.88-.261.445-.5.989-.51a19.639,19.639,0,0,0,5.448-1.409c.687-.442.926.349,1.249,4.131.152,1.777.365,3.667.474,4.2.177.863-.127,1.064-2.772,1.839-1.634.478-4.144,1.081-5.578,1.338-3.025.543-7.429.624-7.124.13Zm1.76-.761a1.315,1.315,0,0,0-1.195-.653c-.889.006-.88.041.157.616.6.335,1.142.629,1.195.653s-.018-.254-.157-.616Zm3.105-.271c-.137-.221-.611-.193-1.094.066-1.149.615-1.072.785.241.534.6-.115.985-.385.852-.6Zm-5.9.051a.439.439,0,1,0-.439.44A.441.441,0,0,0,96.83,272.566Zm-3.3-.44c-.149-.242.037-.439.414-.439s.685-.209.685-.465.228-.324.507-.152c.3.184.389.122.219-.153-.313-.507-1.912-.24-2.3.383-.242.391.12,1.265.524,1.265.121,0,.1-.2-.052-.44Zm13.222-.439c1.274,0,.568-.663-.807-.757-1.052-.072-1.254.012-.768.323.547.349.51.427-.22.458l-.879.038.879.35c.483.192.945.178,1.025-.031a.854.854,0,0,1,.769-.381Zm1.823,0a2.717,2.717,0,0,1,1.78-.879c.565,0,.909-.19.766-.423-.163-.264-.661-.271-1.327-.018-1.19.452-3.108,2.2-2.415,2.2a2.485,2.485,0,0,0,1.2-.879Zm-6.137-.879c-.649-1.039-1.187-1.1-2.333-.261-.795.581-.777.6.3.4.632-.121,1.282,0,1.446.261a1.007,1.007,0,0,0,.714.481c.229,0,.17-.4-.132-.879Zm-11.175-.11c-.276-.45-2.787-.42-2.787.033,0,.2.673.348,1.495.33s1.4-.181,1.293-.363Zm7.2.284a.884.884,0,0,0-.842-.035c-.351.14-.246.244.266.266C98.355,271.232,98.615,271.128,98.469,270.982Zm-10.192-1.353c.693-.693.688-.777-.073-1.334-.512-.374-.869-.426-.964-.14-.083.25-.519.455-.968.455a1.407,1.407,0,0,0-1.085.435c-.148.239-.011.354.3.256s1.165-.309,1.889-.47l1.317-.292-1.054.915c-.58.5-.841.914-.579.914a2.456,2.456,0,0,0,1.215-.739Zm11.08-.015a9.714,9.714,0,0,0-2.417,0c-.665.1-.121.183,1.209.183s1.873-.082,1.209-.183Zm6.263-.121a6.206,6.206,0,0,0-2.835.062c-.234.21.829.347,2.417.312l2.835-.062Zm6.913.17a.884.884,0,0,0-.842-.035c-.351.14-.246.244.266.266.463.019.723-.085.577-.231Zm-17.241-1.932c.149-.242.062-.44-.194-.44a.454.454,0,0,0-.465.44c0,.242.087.44.194.44S95.142,267.973,95.292,267.732Zm15.463-.522c-.14-.351-.244-.246-.266.266-.019.463.085.723.231.577a.884.884,0,0,0,.035-.842Zm1.266-1.474a4.21,4.21,0,0,1-.417-2.382c.188-.873.138-.972-.228-.456-.258.363-.471.5-.475.3s-.332-.036-.729.361a1.8,1.8,0,0,1-1.811.449c-1-.251-1.032-.217-.38.436a1.1,1.1,0,0,0,1.262.364c1.062-.663,1.7-.543,1.437.273a.78.78,0,0,0,.421,1.049,1.164,1.164,0,0,1,.672,1.019c0,.522.142.619.452.309s.246-.851-.2-1.719Zm-29.864.661a1.742,1.742,0,0,0-.521-1.209,2.268,2.268,0,0,1-.61-2.762c.312-.583.311-.847,0-.847-.25,0-.455.313-.455.7,0,.958-1,.556-1.533-.614-.54-1.195-.934-1.221-1.232-.081-.127.484-.081.787.1.674.55-.34,2.3,1.565,2.047,2.227a.412.412,0,0,0,.421.614c.361,0,.844.494,1.074,1.1.506,1.331.776,1.409.709.2Zm18.629.644c0-.556-1.305-1.506-2.056-1.5-.675.008-.629.144.3.869,1.1.862,1.758,1.1,1.758.628Zm8.021-.479a1.7,1.7,0,0,0-1.1,0c-.3.122-.055.222.549.222S109.109,266.684,108.807,266.562Zm-12.416-.588a.454.454,0,0,0-.465-.44c-.256,0-.343.2-.194.44s.359.439.465.439S96.392,266.215,96.392,265.974Zm-1.327-1.549c-.306-.368-.67-.556-.81-.416s.037.438.392.663C95.577,265.261,95.7,265.189,95.064,264.425Zm5.393-.061a1.7,1.7,0,0,0-1.1,0c-.3.122-.055.222.549.222S100.759,264.486,100.457,264.364Zm-10.51-3.774c-.11-.181.022-.33.292-.33s.356-.219.191-.486c-.21-.339-.415-.306-.678.11-.343.541-.575.221-.443-.612.029-.181-.146-.33-.387-.33s-.416-.148-.387-.33c.116-.736-.077-1.026-.506-.76-.285.176-.09.868.525,1.864.8,1.3.846,1.532.248,1.3a.881.881,0,0,0-1.032.208c-.176.285-.1.365.175.193a.543.543,0,0,1,.75.147c.176.284.484.248.863-.1C89.881,261.165,90.056,260.771,89.947,260.59Zm-12.893-.11c-.311-.374-.427-.818-.258-.987s.47-.042.67.281c.287.464.536.478,1.185.064s.655-.473.084-.3a1.292,1.292,0,0,1-1.258-.4c-.287-.346-.674-.534-.861-.418-.365.225-1.039-1.469-.875-2.2a3.625,3.625,0,0,0-.17-2.78c-.3-.406-.245-.719.194-1.03.509-.361.482-.4-.138-.2-.574.185-.773,0-.782-.728-.013-.914-.043-.923-.491-.154-.344.592-.343.9,0,1.118a2.144,2.144,0,0,1,.6,1.376,2.4,2.4,0,0,0,.56,1.4c.248.182.1.326-.33.33-.5,0-.781-.344-.8-.982-.019-.544-.139-.727-.267-.407-.251.628,2.906,7.289,3.278,6.917.124-.124-.029-.531-.34-.906Zm5.574-1.621c-.14-.351-.244-.246-.266.266-.019.463.085.723.231.577a.884.884,0,0,0,.035-.842Zm3.335-1.2c.165-.631.047-.779-.465-.583s-.611.069-.409-.458c.152-.4.105-.828-.1-.957-.438-.271-.313,1.575.159,2.337.431.7.563.642.82-.339Zm-2.316-3.769c0-.363-.2-.659-.439-.659s-.439.3-.439.659.2.659.439.659S83.646,254.25,83.646,253.888Zm1.673-1.33c-.135-.135-.381.109-.546.542-.239.626-.188.677.246.246C85.319,253.047,85.454,252.693,85.319,252.557Zm-2.4-2.071c-.433-.7-.924-.29-.924.773,0,1.01.05,1.04.565.334.311-.425.472-.924.359-1.108Zm1.484,1.6a.884.884,0,0,0-.842-.035c-.351.14-.246.244.266.266.463.019.723-.085.577-.231Zm-10.553-5.332c-.1-.668-.186-.226-.19.983s.079,1.755.184,1.215a7.853,7.853,0,0,0,.006-2.2Zm9.793,2.521c0-.242-.087-.439-.194-.439s-.316.2-.465.439-.062.44.194.44A.454.454,0,0,0,83.646,249.273Zm-.233-1.7c-.14-.14-.449.037-.688.392-.3.449-.365-.024-.207-1.551.225-2.176.222-2.18-.214-.458-.554,2.187-.257,3.216.7,2.423.366-.3.55-.666.41-.806Zm-8.7-4.1c-.14-.351-.244-.246-.266.266-.019.463.085.723.231.577a.884.884,0,0,0,.035-.842Zm8.3-1.571c-.146-.146-.508-.024-.8.272-.425.425-.4.625.117.948.467.292.7.213.8-.272A1.216,1.216,0,0,0,83.018,241.906Zm-8.3-.627c-.14-.351-.244-.246-.266.266-.019.463.085.723.231.577a.884.884,0,0,0,.035-.842Zm8.35-1.758c-.14-.351-.244-.246-.266.266-.019.463.085.723.231.577a.884.884,0,0,0,.035-.842Zm.1-1.945c-.643-.775-.955-.548-.582.424.152.4.463.6.691.463.247-.153.2-.511-.109-.887Zm-7.87-1.049c0-.242-.407-.44-.9-.44s-.783.2-.633.44a1.163,1.163,0,0,0,.9.44C75.011,236.967,75.3,236.769,75.3,236.527Zm8.35-.659c0-.363-.2-.659-.439-.659s-.44.3-.44.659.2.659.44.659S83.646,236.231,83.646,235.868Zm-8.755-1.648c.019-.786.134-1.181.256-.879a.859.859,0,0,0,.678.549c.306,0,.312-.181.019-.549a2.318,2.318,0,0,1-.272-1.565c.1-.6-.014-.9-.275-.743a1.465,1.465,0,0,0-.441,1.125c0,.469-.192.853-.426.853s-.311.3-.171.665a1.49,1.49,0,0,1-.287,1.318c-.442.533-.411.654.171.654C74.648,235.648,74.866,235.23,74.891,234.22Zm1.284,1.235c0-.107-.2-.316-.439-.465s-.439-.062-.439.194a.454.454,0,0,0,.439.465C75.977,235.648,76.175,235.561,76.175,235.455Zm9.415-2.536a2.869,2.869,0,0,1,.255-1.758l.489-1.005-.9,1.038a2.373,2.373,0,0,0-.623,2.919c.224.583.356.613.649.146a1.843,1.843,0,0,0,.134-1.339Zm-3.85-4.412c-.122-.3-.222-.055-.222.549s.1.852.222.549a1.7,1.7,0,0,0,0-1.1Zm-4.686.816c0-.1-.3-.287-.659-.426s-.659-.061-.659.173.3.426.659.426S77.054,229.418,77.054,229.323Zm2.637-.487c0-.363-.2-.659-.44-.659s-.439.3-.439.659.2.659.439.659S79.691,229.2,79.691,228.836Zm-.448-2.4c1.109-2.174,1.107-2.363-.018-1.761-.5.267-.82.719-.715,1s-.214.965-.709,1.508c-.774.85-.8.989-.173.989.4,0,1.121-.772,1.615-1.74ZM89.36,228c0-.1-.307-.291-.682-.434-.391-.15-.568-.076-.414.173.258.418,1.1.618,1.1.262Zm4.115-3a.842.842,0,0,0-.651-.341c-.242,0-.3.219-.139.487.2.327-.041.4-.743.224-.574-.145-.788-.146-.476,0,.445.2.453.4.04.895-.373.449-.13.408.826-.141.745-.427,1.259-.931,1.143-1.119Zm-4.554.757c0-.363-.192-.659-.426-.659s-.312.3-.173.659.331.659.426.659S88.92,226.122,88.92,225.76Zm-7.171-1.181c-.14-.351-.244-.246-.266.266-.019.463.085.723.231.577a.884.884,0,0,0,.035-.842Zm28.173-1.3c-.11-.329-.309-.13-.464.464-.191.731-.134.9.192.576a1.125,1.125,0,0,0,.272-1.041ZM82.881,221.71c-.121-.331-.6-.056-1.254.723-1.426,1.695-1.335,2.082.2.834.689-.562,1.165-1.263,1.058-1.557Zm4.391,2.221a1.7,1.7,0,0,0-1.1,0c-.3.122-.055.222.549.222S87.574,224.053,87.272,223.931Zm20.857-2.456c-.1-.544-.19-.1-.19.989s.086,1.533.19.989A6.262,6.262,0,0,0,108.129,221.475Zm-7.5,1.313c-.937-.319-1.406-.272-1.863.186-.522.522-.34.585,1.252.426,1.834-.183,1.843-.192.612-.612Zm-15.788.29a.884.884,0,0,0-.842-.035c-.351.14-.246.244.266.266.463.019.723-.085.577-.231Zm18.9,0a.884.884,0,0,0-.842-.035c-.351.14-.246.244.266.266.463.019.723-.085.577-.231Zm-1.2-1.053a.439.439,0,1,0-.439.44A.441.441,0,0,0,102.545,222.024Zm-15.382-.439c0-.242-.28-.439-.623-.439a.841.841,0,0,1-.778-.465c-.085-.256-.5-.333-.916-.173-1.057.406-.958,1.046.118.765.491-.129.879-.014.879.261s.3.491.659.491.659-.2.659-.439Zm12.086,0a.963.963,0,0,0-.711-.439c-.242,0-.317.2-.168.439a.963.963,0,0,0,.711.439C99.323,222.024,99.4,221.826,99.249,221.585ZM88.243,220.3a.506.506,0,0,0-.194-.685c-.246-.152-.447.032-.447.409C87.6,220.792,87.866,220.906,88.243,220.3Zm15.941-.3a.884.884,0,0,0-.842-.035c-.351.14-.246.244.266.266.463.019.723-.085.577-.231Zm-16.863-1.273c.139-.363.146-.659.016-.659a2.507,2.507,0,0,0-.9.659c-.572.572-.574.659-.016.659A1.062,1.062,0,0,0,87.321,218.728Zm23.574-.879c0-.363-.192-.659-.426-.659s-.312.3-.173.659.331.659.426.659S110.894,218.211,110.894,217.849Zm-21.316-.218c-1.145-.495-1.538-.52-1.538-.1,0,.189.544.374,1.209.411,1.043.058,1.088.015.33-.313Zm5.054,0a.439.439,0,1,0-.439.439A.441.441,0,0,0,94.633,217.628Zm6.034.174a.884.884,0,0,0-.842-.035c-.351.14-.246.244.266.266.463.019.723-.085.577-.231Zm-7.725-1.161a.845.845,0,0,0-1.386.533c0,.2.409.266.908.135.592-.155.758-.387.478-.668Zm1.852-.676c.117-.19-.153-.345-.6-.345s-.718.155-.6.345a.7.7,0,0,0,1.2,0Zm4.568.043A4.789,4.789,0,0,0,97.6,216c-.547.105-.2.2.764.2s1.414-.081.994-.191ZM120.777,271.8a26.1,26.1,0,0,0,.88-5.255c.112-1.259.8-5.838,1.533-10.176s1.329-8.5,1.329-9.249.192-1.361.426-1.361.32-.275.191-.611a65.635,65.635,0,0,1,1.083-8.68c.725-4.438,1.437-8.959,1.583-10.047s.582-4.1.969-6.7l.7-4.725h12.951l4.484,13.661c2.466,7.514,4.372,13.951,4.236,14.307s-.078.54.129.412.814,1.2,1.349,2.944c1.383,4.519,1.479,4.859,1.569,5.594a21.167,21.167,0,0,0,1.217,5.043c.375.723.587.282,1.269-2.637,1.2-5.121,2.128-7.727,2.644-7.408.283.175.342-.064.157-.645-.194-.611,1.286-5.652,4.369-14.888,2.564-7.681,4.874-14.509,5.134-15.174l.471-1.209h12.569l.252,1.209c.908,4.351,2.524,15.658,2.592,18.137.045,1.635.2,2.78.349,2.546.393-.627,2.208,11.287,1.859,12.2-.184.481-.126.668.155.495.528-.327,1.151,5.225.794,7.073-.2,1.032-.17,1.075.219.314.381-.744.427-.66.3.549-.081.786-.022,1.428.131,1.428.248,0,1.4,6.273,2.2,11.976l.292,2.088H179.456l-.073-1.978c-.04-1.088-.09-2.719-.11-3.626a4.777,4.777,0,0,0-.28-1.868c-.485-.439-2.666-15.406-2.377-16.315.185-.583.13-.832-.147-.661s-.557-.8-.735-2.472c-.31-2.919-1.439-11.611-1.768-13.61-.134-.816.043-1.335.559-1.637.626-.367.548-.428-.453-.358-.978.069-1.209.3-1.21,1.2a53.122,53.122,0,0,1-1.476,6.606c-2,7.466-10.108,32.91-10.422,32.719-.139-.084-.238.282-.22.814.032.941-.117.97-5.461,1.082l-5.494.115-2.371-7.367c-1.3-4.052-3.224-9.889-4.267-12.971a34.752,34.752,0,0,1-1.64-5.6c.14,0,.056-.247-.187-.549a58.637,58.637,0,0,1-2.742-8.44c0-.161.181-.18.4-.044s.5,0,.625-.3c.143-.355.235-.3.257.163.04.831,1.353,2.108,1.353,1.316a.453.453,0,0,0-.392-.493c-.216,0-.537-.544-.713-1.209s-.413-.961-.524-.659c-.475,1.291-1.337.449-1.574-1.538a15.8,15.8,0,0,0-.8-3.406c-.523-1.257-.565-1.156-.9,2.2-.191,1.934-.748,6.285-1.237,9.669s-.99,7.142-1.112,8.35-.356,3.087-.52,4.175a13.392,13.392,0,0,0-.216,2.326c.045.191-.316,3.356-.8,7.032s-.884,6.832-.885,7.014-2.5.33-5.544.33h-5.541Zm1.235.034c-.22-.574-.107-.668.515-.43.675.259.712.2.242-.363-.791-.953-1.223-.828-1.1.32s.144,1.209.422,1.209c.113,0,.079-.331-.076-.736Zm3.267.47a.884.884,0,0,0-.842-.035c-.351.14-.246.244.266.266.463.019.723-.085.577-.231Zm32.642.072c0-.464-.843-.659-1.094-.253-.152.246.032.447.409.447s.685-.087.685-.194Zm31.085-.072a.884.884,0,0,0-.842-.035c-.351.14-.246.244.266.266.463.019.723-.085.577-.231Zm-28.823-1.931c.253-.725.638-1.208.856-1.073.463.286.5.083.137-.85-.2-.529-.381-.562-.824-.148a1.1,1.1,0,0,0-.37,1.035.689.689,0,0,1-.275.8,1.191,1.191,0,0,0-.469.923c0,1.047.456.717.945-.685Zm21.27.109c-.166-.665-.409-1.853-.539-2.641-.364-2.2-.991-2.137-.889.092.05,1.1.334,2.078.64,2.2.8.311.673,1.024-.22,1.257-.551.144-.474.215.271.252.922.045,1.006-.087.738-1.158Zm7.612-.7c-.4-.336-1.706-.422-3.9-.256l-3.3.25,3.169.079c2.068.052,3.366.293,3.736.7.324.352.636.428.728.177a1.044,1.044,0,0,0-.44-.946Zm-38.617.593c0-.253,1.634-.477,3.846-.529l3.846-.089-3.736-.143c-2.852-.109-3.866-.316-4.285-.874-.477-.635-.549-.547-.549.672,0,.771.2,1.4.439,1.4a.441.441,0,0,0,.44-.44Zm-25.805-.272c.338-.338-.766-1.486-1.428-1.486-.35,0-.355.246-.016.879C123.679,270.384,124.156,270.585,124.644,270.1Zm5.258-.485a13.982,13.982,0,0,0-2.857,0c-.786.1-.143.177,1.428.177S130.688,269.708,129.9,269.611Zm29.051-1.234c-.349-.909-.593-.8-.593.26,0,.5.189.788.42.645A.774.774,0,0,0,158.953,268.377Zm-33.216-.288a1.244,1.244,0,0,0-.7-.7c-.321-.107-.419.094-.255.522C125.092,268.713,126,268.88,125.737,268.089Zm23.255-.44c-.14-.351-.244-.246-.266.266-.019.463.085.723.231.577a.884.884,0,0,0,.035-.842Zm8.35,0c-.14-.351-.244-.246-.266.266-.019.463.085.723.231.577a.884.884,0,0,0,.035-.842Zm24.435-.375c-.129-.493-.333-.8-.453-.678-.238.238.182,1.575.495,1.575C181.925,268.171,181.906,267.768,181.777,267.275Zm6.947.26c.221.137.4.055.4-.181a5.346,5.346,0,0,1,.261-1.235c.217-.67.181-.694-.213-.146-.412.573-.475.562-.481-.084-.015-1.637-.67-1.021-.722.678-.03,1,.036,1.574.147,1.271s.384-.44.6-.3Zm-65.908-.979c-.518-.891-.643-.606-.219.5.151.393.367.622.48.508s0-.567-.261-1.008Zm37.3.1a1.945,1.945,0,0,0-.769-1.183c-.7-.546-.712-.53-.171.16a1.71,1.71,0,0,1,.335,1.451c-.152.4-.079.574.171.419a1.1,1.1,0,0,0,.434-.848Zm2.16-.907c.014-.242-.168-.143-.4.22a2.715,2.715,0,0,0-.4,1.318c.026.7.758-.706.8-1.538Zm-12.654.363c-.383-.659-.469-.678-.48-.106-.014.74.448,1.407.759,1.1.1-.1-.023-.548-.28-.989Zm.516-1.2c-.434-.581-.871-.977-.97-.882-.181.174,1.264,1.937,1.588,1.937.095,0-.183-.475-.617-1.056Zm-26.007-.559c-.518-.891-.643-.606-.219.5.151.393.367.622.48.508s0-.567-.261-1.008Zm56.8.063c-.349-.909-.593-.8-.593.26,0,.5.189.788.42.645A.774.774,0,0,0,180.929,264.421Zm-20.371.479c0-.107-.2-.316-.44-.465s-.439-.062-.439.194a.454.454,0,0,0,.439.465C160.361,265.094,160.559,265.007,160.559,264.9Zm-35.528-6.4c.2,0,.345-.445.317-.989-.039-.753-.1-.8-.253-.214-.111.426-.385.662-.608.523s-.406.242-.406.845a7.515,7.515,0,0,1-.427,2.22,3.079,3.079,0,0,0-.11,1.9c.216.527.445-.031.718-1.754.22-1.39.567-2.527.769-2.527Zm7.315,3.724c-.135-.135-.381.109-.546.542-.238.626-.188.677.246.246C132.347,262.716,132.482,262.361,132.346,262.226Zm-7.086-.291c-.14-.351-.244-.246-.266.266-.019.463.085.723.231.577a.884.884,0,0,0,.035-.842Zm21.728-.214c-.518-.891-.643-.606-.219.5.151.393.367.622.48.508S147.244,262.162,146.988,261.721Zm1.447-.137c-.285-.285-.433-.136-.433.433s.149.718.433.433A.546.546,0,0,0,148.434,261.585Zm1.876.351c-.14-.351-.244-.246-.266.266-.019.463.085.723.231.577a.884.884,0,0,0,.035-.842Zm12.971-.627c-.382-.683-.435-.63-.375.375.038.645.237,1,.444.794a1.1,1.1,0,0,0-.069-1.169Zm-11.174-.252a1.244,1.244,0,0,0-.7-.7c-.321-.107-.419.094-.255.522C151.462,261.681,152.371,261.848,152.107,261.057Zm1.707-.573c-.279-.6-.8-1.081-1.167-1.064-.45.021-.485.1-.11.253a1.194,1.194,0,0,1,.549,1.064c0,.463.278.842.618.842C154.206,261.578,154.227,261.372,153.814,260.483Zm10.087-.619c-.026-.7-.2-1.184-.376-1.073s-.33-.139-.33-.556-.119-.64-.264-.495c-.236.236.6,3.4.894,3.4a3.406,3.406,0,0,0,.076-1.275Zm-31.063-1.058c.017-.2-.167-.233-.409-.084s-.439-.07-.439-.487-.1-.658-.223-.536a3.479,3.479,0,0,0,.073,1.7c.25,1.248.348,1.345.631.62a6.443,6.443,0,0,0,.367-1.214Zm55.846,1.235c0-.363-.078-.659-.173-.659s-.287.3-.426.659-.061.659.173.659S188.685,260.4,188.685,260.04Zm-41.313-.22a.428.428,0,0,0-.414-.44.942.942,0,0,0-.685.44c-.149.242.037.44.414.44S147.372,260.062,147.372,259.82Zm8.031-.908c-.155-.592-.387-.758-.668-.478a.845.845,0,0,0,.533,1.386c.2,0,.266-.409.135-.908Zm-8.347-.3a.56.56,0,0,1-.288-.757.747.747,0,0,0-.244-.877c-.258-.16-.469-.069-.469.2s-.218.357-.483.193c-.349-.215-.353-.055-.016.576.257.481.356.986.22,1.122s.212.128.773-.019.79-.344.508-.438Zm3.832-.2c0-.71-.13-.837-.489-.478a.845.845,0,0,0-.194.967q.682,1.1.683-.489Zm-1.758-.106a1.163,1.163,0,0,0-.439-.9c-.242-.149-.44.136-.44.633s.2.9.44.9S149.13,258.656,149.13,258.308Zm5.447-.5c.381-.993.345-1.065-.392-.782a1.041,1.041,0,0,0-.659.865C153.525,258.722,154.247,258.665,154.577,257.807Zm11.254-3.091c0-.093-.411.242-.913.744s-1.184.809-1.516.682c-.391-.15-.517-.008-.359.4.134.349.407.533.606.41a.53.53,0,0,1,.673.278c.19.307.543-.052.909-.922a13.106,13.106,0,0,0,.6-1.594Zm-41.7,1.292c-.518-.891-.643-.606-.219.5.151.393.367.622.48.508s0-.567-.261-1.008Zm23.579.214a1.244,1.244,0,0,0-.7-.7c-.321-.107-.419.094-.255.522C147.066,256.847,147.975,257.013,147.711,256.222Zm30.481-.474c-.434-.431-.485-.38-.246.246.165.434.411.677.546.542S178.492,256.046,178.192,255.748Zm-45.171-.561c-.143-.373-.355-.584-.47-.469s-.079.42.08.678c.433.7.687.565.389-.21Zm20.945.239c.8-.519.109-.519-1.1,0-.58.249-.654.386-.22.4A2.71,2.71,0,0,0,153.966,255.425Zm10.409-.961c-.14-.351-.244-.246-.266.266-.019.463.085.723.231.577a.884.884,0,0,0,.035-.842Zm15.521.369a3.308,3.308,0,0,0-.829-1.547c-.715-.825-.865-.859-1.1-.251-.4,1.055-.265,1.87.147.852.333-.824.39-.8.919.33.624,1.338.862,1.508.862.617Zm-55.515-1.248c-.14-.351-.244-.246-.266.266-.019.463.085.723.231.577a.884.884,0,0,0,.035-.842Zm.879,0c-.14-.351-.244-.246-.266.266-.019.463.085.723.231.577a.884.884,0,0,0,.035-.842Zm28.533-.339c-.04-1.108-.137-1.211-.656-.693a1.351,1.351,0,0,0-.343,1.3c.441,1.15,1.05.78,1-.608Zm-20.622-.1c-.14-.351-.244-.246-.266.266-.019.463.085.723.231.577a.884.884,0,0,0,.035-.842Zm25.63.276c0-.377-.2-.561-.447-.409a.506.506,0,0,0-.194.685c.377.61.64.5.64-.276Zm4.083-.194c.126-.483.051-.879-.169-.879s-.4.4-.4.879.076.879.169.879S162.756,253.711,162.882,253.228Zm18.037-1.422c.242-.961.229-.966-.386-.143-.706.945-.852,1.749-.251,1.377A2.471,2.471,0,0,0,180.92,251.806Zm-36.892.024a.578.578,0,0,1,.233-.778c.388-.24.373-.438-.059-.8-.455-.377-.581-.166-.6,1-.014.815.14,1.38.342,1.255a.5.5,0,0,0,.084-.685Zm21.365.325a1.163,1.163,0,0,0-.44-.9c-.242-.149-.439.136-.439.633s.2.9.439.9S165.393,252.5,165.393,252.155ZM133.31,252.1a2.454,2.454,0,0,0-.659-.91c-.716-.716-.805-.609-.392.466C132.509,252.307,133.31,252.645,133.31,252.1Zm33.45-1.857c-.453-.151-.306-.922.5-2.6.256-.536.632-.871.834-.746s.244-.1.092-.491c-.2-.514-.368-.57-.6-.2-.249.4-.4.4-.653-.01s-.418-.394-.707.063a2.451,2.451,0,0,0-.378,1.036c0,.242.184.149.409-.207s.542-.513.7-.351-.087.821-.555,1.463a2.324,2.324,0,0,0-.387,2.647c.433,1.384.486,1.417.822.51.215-.582.184-1.029-.08-1.116Zm-14.038.2c.1-.823-.027-1.465-.282-1.465-.364,0-.543,1.688-.288,2.71.156.626.418.055.569-1.245Zm8.715.534c0-.242-.2-.317-.44-.168a.963.963,0,0,0-.44.711c0,.242.2.317.44.168A.963.963,0,0,0,161.437,250.978Zm-1.6-1.616c.09-.775-.008-1.408-.218-1.408s-.385.346-.388.769a10.046,10.046,0,0,1-.28,1.868c-.2.8-.14.976.224.639a3.74,3.74,0,0,0,.661-1.868Zm18.55.974c-.254-1.013-.178-1.107.721-.883.553.138.759.137.457,0a1.045,1.045,0,0,1-.549-.875.662.662,0,0,0-.692-.623c-.512,0-.662.371-.574,1.428.128,1.547.3,2.088.681,2.088.133,0,.113-.51-.043-1.134Zm8.1.762a2.772,2.772,0,0,0-.879-1.167c-.5-.451-.879-.576-.879-.288a.479.479,0,0,0,.44.508c.242,0,.439.3.439.659s.2.659.439.659a.411.411,0,0,0,.44-.371Zm-9.369-1.03c-.14-.351-.244-.246-.266.266-.019.463.085.723.231.577a.884.884,0,0,0,.035-.842Zm-43.907-2.283c-.051-.621-.33-1.221-.619-1.331-.388-.149-.422.157-.132,1.169.434,1.513.151,2.207-.488,1.2-.347-.549-.41-.536-.416.086-.008.915.979,1.307,1.42.563a3.518,3.518,0,0,0,.235-1.683Zm17.73.75c-.383-.659-.469-.678-.48-.106-.014.74.448,1.407.759,1.1.1-.1-.023-.548-.28-.989Zm14.01.516c.3-.363.41-.659.242-.659a2.309,2.309,0,0,0-.964.659c-.363.363-.472.659-.242.659A1.757,1.757,0,0,0,164.953,249.053Zm-22.361-.956c-.518-.891-.643-.606-.219.5.151.393.367.622.48.508S142.849,248.538,142.592,248.1Zm1.235.241a1.973,1.973,0,0,1-.016-2c.6-1.327.629-2.482.045-2.121a1.41,1.41,0,0,0-.439,1.088,1.057,1.057,0,0,1-.5.982c-.343.114-.271.6.231,1.575a4.189,4.189,0,0,0,.953,1.409c.123,0,0-.421-.276-.935Zm17.61.5a.44.44,0,1,0-.44.44A.441.441,0,0,0,161.437,248.833Zm19.386-1.758c-.177-1.249-.411-1.772-.635-1.42-.305.48.467,3.917.794,3.537a9.123,9.123,0,0,0-.16-2.117Zm2.026-.763c-.1-.668-.186-.226-.19.983s.079,1.755.184,1.215a7.83,7.83,0,0,0,.005-2.2Zm3.452.512c-.435-1.733-.948-1.218-.759.762.139,1.459.261,1.674.6,1.067A2.91,2.91,0,0,0,186.3,246.823Zm-1.718.581c-.122-.3-.222-.055-.222.549s.1.852.222.549a1.7,1.7,0,0,0,0-1.1Zm-32.914-.1c-.05-.6-.252-.93-.449-.733a1.145,1.145,0,0,0-.077,1.091c.405,1.056.631.9.526-.359Zm-26.408-.31c-.14-.351-.244-.246-.266.266-.019.463.085.723.231.577a.884.884,0,0,0,.035-.842Zm52.264-1.118c-.146-.146-.265-.022-.265.274s-.2.416-.44.267-.439.175-.439.731v1l.7-1.005c.387-.553.585-1.124.44-1.27Zm-15.208.981c0-.363-.2-.659-.44-.659s-.439.3-.439.659.2.659.439.659S162.317,247.218,162.317,246.855Zm1.023-3.85c-.31-.2-.467-1.131-.389-2.307.074-1.1-.061-1.974-.305-1.974s-.221-.261.077-.62c.321-.387.354-.72.087-.884-.592-.366-.85,1.071-.414,2.3a4.167,4.167,0,0,1,.1,2.04c-.141.561-.042,1.152.219,1.314.608.376.623,2.439.018,2.439-.264,0-.217.26.11.614.473.513.6.349.789-.989.136-.982.021-1.732-.3-1.937Zm-2.041,1.79c-.14-.351-.244-.246-.266.266-.019.463.085.723.231.577a.884.884,0,0,0,.035-.842Zm4.386-.467c-.122-.3-.222-.055-.222.549s.1.852.222.549A1.7,1.7,0,0,0,165.684,244.328Zm-23.585.11c0-.483-.278-.879-.618-.879-.4,0-.538.308-.388.879.126.483.4.879.618.879S142.1,244.921,142.1,244.438Zm36.039.44c0-.242-.4-.44-.879-.44s-.879.2-.879.44.4.439.879.439S178.139,245.119,178.139,244.877Zm7.069-.2c.781.483.388-.3-.7-1.382-.6-.6-1.1-.906-1.1-.671a1.938,1.938,0,0,0,.585,1.013,1.513,1.513,0,0,1,.472,1.141c-.062.306-.011.352.112.1a.439.439,0,0,1,.626-.2Zm-15.859-1.148a.393.393,0,0,0-.366-.414c-.2,0-.366.288-.366.64s.165.538.366.414A.844.844,0,0,0,169.349,243.533Zm-7.032.026a.44.44,0,1,0-.44.44A.441.441,0,0,0,162.317,243.559Zm19.338-.246c0-.377-.2-.561-.447-.409a.506.506,0,0,0-.194.685c.377.61.64.5.64-.276Zm-14.623-.02a.884.884,0,0,0-.842-.035c-.351.14-.246.244.266.266.463.019.723-.085.577-.231Zm-23.749-1.814c-.111-.428-.21-.184-.219.541s.082,1.075.2.777a2.514,2.514,0,0,0,.016-1.318Zm2.326.651c-.005-.772-.1-.849-.41-.351a1.135,1.135,0,0,0-.187.989C145.392,243.386,145.615,243.147,145.608,242.131Zm4.163-1.347a3.723,3.723,0,0,0-.986-1.712c-.607-.493-.651-.452-.334.312a12.1,12.1,0,0,1,.577,2.121c.131.766.369,1.085.621.833a1.977,1.977,0,0,0,.122-1.553Zm-9.163-.662c-.65-.65-.707-.644-.707.072,0,.458.2.655.487.479.33-.2.394.035.2.743-.256.928-.231.953.22.228.4-.648.363-.961-.2-1.523Zm1.793-.848c-.111-.423-.2-.077-.2.769s.091,1.192.2.769A3.608,3.608,0,0,0,142.4,239.274Zm27.633,1.694a2.543,2.543,0,0,1,.411-1.648,5.769,5.769,0,0,0,.657-1.9c0-.353-.443.24-.987,1.319-.625,1.238-.827,2.08-.549,2.284C170.162,241.462,170.328,241.442,170.035,240.968Zm12.808-1.909c-.105-.547-.2-.2-.2.764s.081,1.414.191.994a4.789,4.789,0,0,0,.008-1.758Zm1.943,1.973c.241-1.415.212-2.307-.065-2.007-.616.667-.945,2.337-.46,2.337a.514.514,0,0,0,.525-.33Zm-22.758-.788c-.143-.373-.355-.584-.47-.469s-.079.42.08.678c.433.7.687.565.389-.209Zm-16.852-.834c0-.107-.2-.316-.439-.465s-.439-.062-.439.194a.454.454,0,0,0,.439.465C144.979,239.6,145.177,239.516,145.177,239.41Zm-18.019-2.1c0-1.66-.219-1.492-.589.451-.173.906-.114,1.35.157,1.183a2.42,2.42,0,0,0,.433-1.633Zm42.774-.163c-.4-1.046-.8-.682-.853.78-.045,1.246.01,1.312.519.616a1.734,1.734,0,0,0,.333-1.4Zm-40.792-.632c.278-1.264-.8-3.455-1.72-3.487-.219-.008-.094.332.278.755.866.986,1.51,2.979.826,2.556a1.238,1.238,0,0,1-.487-.96c0-.363-.211-.529-.468-.37-.31.192-.236.545.22,1.049.76.839.943,2,.248,1.57-.242-.149-.439.061-.439.467,0,1.179,1.207-.06,1.542-1.582Zm1.535.748c.463-.2.409-.248-.183-.176a1.251,1.251,0,0,0-1.022.761c-.116.424-.05.487.183.176A2.912,2.912,0,0,1,130.674,237.26Zm11.727.064c-.14-.351-.244-.246-.266.266-.019.463.085.723.231.577a.884.884,0,0,0,.035-.842Zm6.09-1.542c-.267-1.064-.312-1.079-.88-.3-.329.45-.483,1.005-.342,1.233s.406.033.589-.435c.306-.781.335-.77.364.139.017.544-.179.989-.435.989s-.327.223-.159.5c.5.811,1.179-.856.862-2.12Zm35.213,1.075c-.122-.3-.222-.055-.222.549s.1.852.222.549A1.7,1.7,0,0,0,183.7,236.857Zm-51.273-.989c0-.363-.078-.659-.173-.659s-.287.3-.426.659-.061.659.173.659S132.432,236.23,132.432,235.868Zm3.077-.22c0-.242-.087-.439-.194-.439s-.316.2-.465.439-.062.439.194.439A.454.454,0,0,0,135.508,235.648Zm35.824-.8c-.349-.349-1.1.444-.837.878.183.3.409.25.643-.127.2-.321.286-.659.194-.75Zm-24.966-1.5c-.105-.547-.2-.2-.2.764s.081,1.414.191.994a4.788,4.788,0,0,0,.008-1.758Zm18.448.9c-.14-.351-.244-.246-.266.266-.019.463.085.723.231.577a.884.884,0,0,0,.035-.842Zm2.779-1.676c.128-2.292.032-3.257-.294-2.932a9.1,9.1,0,0,0-.33,2.9C166.93,235.247,167.442,235.274,167.594,232.571Zm15.24,1.676c-.14-.351-.244-.246-.266.266-.019.463.085.723.231.577a.884.884,0,0,0,.035-.842Zm-49.659-1.557c-.111-.428-.21-.184-.219.541s.082,1.075.2.777a2.514,2.514,0,0,0,.016-1.319Zm1.787,1.1a2.788,2.788,0,0,1,.38-1.617,2.08,2.08,0,0,0,.3-1.5c-.347-.562-1.543,2.348-1.264,3.076S135.2,234.516,134.961,233.792Zm35.705-.147c0-.377-.2-.563-.44-.414a.942.942,0,0,0-.439.685.428.428,0,0,0,.439.414C170.468,234.33,170.666,234.021,170.666,233.644Zm-40.645-3.71c.1-.6.073-.753-.057-.33s-.4.769-.592.769c-.482,0-.872,2.194-.542,3.049.258.67.745-.756,1.191-3.488Zm36.094,2.879c-.037-.622-.227-.913-.451-.689a1.106,1.106,0,0,0-.124,1.076c.389,1.013.647.839.575-.388Zm2.947-.037c-.349-.908-.593-.8-.593.26,0,.5.189.788.42.645A.774.774,0,0,0,169.061,232.777ZM127.9,231.171c-.14-.351-.244-.246-.266.266-.019.463.085.723.231.577a.884.884,0,0,0,.035-.842Zm18.966-.094c.736,1.267.606.314-.159-1.164-.369-.713-.948-1.3-1.286-1.3a.985.985,0,0,1-.817-.769c-.159-.609-.212-.574-.252.169a1.061,1.061,0,0,0,.828,1.167c.892.233,1.245,1.191.439,1.191-.242,0-.432.445-.424.989l.016.989.585-1.055c.559-1.008.606-1.018,1.07-.22Zm28.64.616c0-.242-.087-.44-.194-.44s-.316.2-.465.44-.062.439.194.439A.454.454,0,0,0,175.5,231.692Zm-9.507-1.831c-.215-1.845-.6-2.174-.6-.513,0,1.1.284,1.9.675,1.9a5.512,5.512,0,0,0-.073-1.392Zm16.84-.01c-.14-.351-.244-.246-.266.266-.019.463.085.723.231.577a.884.884,0,0,0,.035-.842Zm-13.485.328c0-.107-.2-.316-.439-.465s-.44-.062-.44.194a.454.454,0,0,0,.44.465C169.151,230.373,169.349,230.286,169.349,230.18Zm13.672-2.816c-.5-.7-.789-1.376-.653-1.512s.022-.608-.253-1.049c-.4-.641-.454-.362-.27,1.394a4.21,4.21,0,0,0,1,2.762c1.137.832,1.238-.1.173-1.6Zm-53.667-.067c0-1.943-.65-1.9-.727.042-.037.943.111,1.6.33,1.47a2.249,2.249,0,0,0,.4-1.512Zm39.115.791c0-.71-.13-.837-.489-.478a.845.845,0,0,0-.194.967q.682,1.1.683-.489Zm-1.018-1.752c-.14-.351-.244-.246-.266.266-.019.463.085.723.231.577a.884.884,0,0,0,.035-.842Zm-22.276.082c0-.242-.087-.439-.194-.439s-.316.2-.465.439-.062.44.194.44A.454.454,0,0,0,145.176,226.418Zm0-1.81c0-.242-.2-.317-.439-.168a.963.963,0,0,0-.439.711c0,.242.2.317.439.168A.963.963,0,0,0,145.176,224.608Zm23.671-.388c.172,0,.313-.4.313-.879a2.162,2.162,0,0,0-.093-.879c-.32,0-1.33,2.637-1.1,2.87.156.157.347-.029.425-.413S168.674,224.221,168.847,224.221Zm-30.4-.961c-.14-.351-.244-.246-.266.266-.019.463.085.723.231.577a.884.884,0,0,0,.035-.842Zm4.869.659a4.789,4.789,0,0,0-1.758-.008c-.547.105-.2.2.764.2s1.414-.081.994-.191Zm38.641-1.538c-.14-.351-.244-.246-.266.266-.019.463.085.723.231.577a.884.884,0,0,0,.035-.842Zm-51.87-1.346c-.122-.3-.222-.055-.222.549s.1.852.222.549a1.7,1.7,0,0,0,0-1.1Zm9.959.1c.386-.005.389-.089.012-.33a2.5,2.5,0,0,1-.709-1.422c-.112-.6-.208-.11-.213,1.1s.082,1.851.192,1.428.434-.772.718-.776Zm28.85.657c.192.119.324-.572.292-1.535s-.218-1.752-.415-1.752-.322.346-.279.769c.154,1.518-.031,2.354-.462,2.088-.5-.312-.6.353-.119.833.176.176.391.109.477-.149s.314-.372.506-.254Zm-26.355-1.116c0-.55-.191-.787-.486-.6-.337.208-.4-.109-.194-1.031.172-.782.1-1.45-.173-1.619-.61-.377-.618,2.174-.01,3.309.586,1.1.864,1.078.864-.055Zm39.61-1.41c-.434-.431-.485-.38-.246.246.165.433.411.677.546.542s0-.49-.3-.788Zm-39.309-1.284c-.14-.351-.244-.246-.266.266-.019.463.085.723.231.577a.884.884,0,0,0,.035-.842Zm-6.63-1.674c6.079.088,5.829-.131-.483-.424-3.142-.146-5.807-.2-5.92-.117-.347.247,1.019.937,1.395.7.193-.119.354.042.357.359.005.473.072.472.373,0,.262-.414,1.475-.561,4.278-.52Zm42.479-.327c-1.753-.083-4.62-.083-6.373,0s-.319.152,3.186.152,4.939-.068,3.186-.152Zm21.865,27.9V214.754l9.559-.139c13.78-.2,18.625.664,23.172,4.133,4.737,3.613,6.347,12.292,3.471,18.7-1.371,3.056-4.959,6.7-6.146,6.248-.495-.19-.651-.121-.453.2.342.553-2.83,2.1-5.231,2.55a3.6,3.6,0,0,0-1.519.479,11.533,11.533,0,0,0,1.079,1.782c.594.874.959,1.784.811,2.022s-.071.312.169.164c.587-.363,2.458,2.217,2.068,2.849-.181.293-.112.377.166.205.261-.161.884.284,1.386.989,1.115,1.565,1.175,2.119.143,1.31-.7-.546-.712-.531-.17.161.33.42.757.667.949.548.532-.329,4.48,5.43,4.121,6.01-.189.306-.118.385.179.2s.917.333,1.5,1.2c.553.826,1.678,2.445,2.5,3.6,1.351,1.895,1.425,2.148.769,2.628-.919.672-.946,1.972-.041,1.972.377,0,.557-.207.4-.461a1.5,1.5,0,0,1-.021-1.148c.218-.567.383-.589.942-.125a5.487,5.487,0,0,1,1.109,1.368c.409.764.089.805-6.3.805h-6.733l-.742-1.257c-.408-.691-.616-1.383-.461-1.538s.06-.281-.21-.281-1.094-.876-1.831-1.947c-1.46-2.123-1.712-2.864-.68-2.008.733.609.73.611.875-.758.057-.538-.059-.877-.257-.755s-.236.545-.084.94c.207.54.121.62-.349.322a2.621,2.621,0,0,0-.945-.4c-.621-.012-8.272-11.7-7.974-12.181.169-.274.1-.364-.153-.206-.6.371-2.879-3.1-2.485-3.786.169-.294.145-.387-.053-.208s-.625.106-.949-.164c-.491-.408-.59,1.58-.59,11.87v12.36H200.554Zm31.03,28.32c-.214-.346-2.9-.164-2.9.2a3.77,3.77,0,0,0,1.564.17c.86,0,1.462-.165,1.338-.366Zm-24.33-1.612.21-1.1-6.69.172,2.967.154c2.6.135,2.967.26,2.967,1.013,0,1.2.3,1.071.547-.24Zm2.969.659c0-.242-.3-.44-.659-.44s-.659.2-.659.44.3.44.659.44S210.223,271.489,210.223,271.247Zm19.908-.788a1.66,1.66,0,0,1-1.24-1c-.15-.472-.456-.744-.68-.605-1.147.709.462,2.442,1.892,2.038l1-.281Zm8.091-1.727c-.47-.47-.75-.551-.75-.217a.49.49,0,0,0,.426.534c.234,0,.3.346.155.769-.222.63-.163.669.325.217s.473-.675-.155-1.3Zm-2.188.875a16.368,16.368,0,0,0-3.077,0c-.78.1-.034.175,1.658.173s2.33-.081,1.419-.177Zm-4.715-.532c0-.519-.857-1.073-1.172-.758s.24,1.172.758,1.172A.415.415,0,0,0,231.318,269.075Zm-3.511-.691c.466-.562.408-.644-.374-.524a2.6,2.6,0,0,0-1.268.516c-.188.206-.094.232.208.059s.549-.107.549.149C226.923,269.221,227.157,269.168,227.808,268.384Zm8.822-.85c.688.425.441-.506-.367-1.384-.885-.962-1.868-1.272-1.868-.589s1.513,2.6,1.686,2.127a.355.355,0,0,1,.549-.153ZM235.567,267a1.211,1.211,0,0,1-.293-.747c0-.275.2-.249.52.066.286.286.418.622.293.747A.378.378,0,0,1,235.567,267Zm-2.49-.806c0-.363-.2-.659-.439-.659s-.44.3-.44.659.2.659.44.659S233.076,266.555,233.076,266.193Zm-.8-2.073c-.4-.4-.646-.384-1.069.072-.37.4-.38.5-.03.3a.61.61,0,0,1,.813.185c.162.262.409.361.55.22s.022-.49-.264-.776Zm-7.846-1.04a4.273,4.273,0,0,0-1.744-1.282c-1.247-.592-1.434-.842-1.011-1.352.312-.376.341-.626.073-.626-.245,0-.557.289-.693.643-.235.613,1.568,2.433,2.41,2.433a.431.431,0,0,1,.38.465c0,.256-.2.343-.439.194s-.44-.079-.44.157c0,.616,1.045.892,1.388.366a1.246,1.246,0,0,0,.076-1Zm10.623,1.135a1.394,1.394,0,0,0-1.078-.44,1.193,1.193,0,0,1-1.059-.659c-.139-.363-.068-.659.159-.659s.3-.281.172-.625c-.194-.507-.4-.465-1.085.22-1.061,1.061-1.057,1.11.144,1.518.544.185,1.384.485,1.868.667s.94.35,1.015.374.014-.154-.136-.4Zm-10-2.392a1.978,1.978,0,0,1-.8-1.173c-.027-.479-.084-.487-.265-.036-.252.63,1.161,2.446,1.578,2.029.142-.142-.087-.511-.51-.82ZM232,260.809c-.079-.665-.172-1.406-.207-1.648s-.264-.1-.508.324a1.564,1.564,0,0,0,.029,1.648C231.962,262.342,232.172,262.243,232,260.809Zm-2.864-2.068c-.365-.44-.361-.637.014-.762.332-.111.26-.373-.211-.764-.626-.519-.678-.494-.413.2.2.525.14.692-.181.493-.348-.215-.369.107-.075,1.134.226.789.417,1.534.425,1.657s.221-.134.474-.569a1.069,1.069,0,0,0-.032-1.386Zm-7.236-.574c-.144-.143-.527.1-.853.549-.574.784-.607.783-1.081-.032-.615-1.059-.674-.421-.066.715.439.821.471.819,1.355-.065.5-.5.788-1.023.645-1.167Zm2.934,1.362a1.386,1.386,0,0,1-.584-1.174c-.019-.524-.137-.7-.261-.388-.321.8.164,1.86.831,1.819.441-.027.444-.083.014-.256Zm1.209-1.467c0-.242-.087-.439-.194-.439s-.316.2-.465.439-.062.44.194.44A.454.454,0,0,0,226.044,258.062Zm-6.965-2.337c-.274-.33-.368-.731-.209-.89s.059-.289-.224-.289c-.664,0-.66,1,.007,1.663.694.694,1.059.279.425-.484Zm7.625-.3a1.022,1.022,0,0,0-.8-.433c-.314,0-.26.177.136.433.844.546,1,.546.659,0Zm-8.891-.846c.155-.594.039-.776-.388-.612-.335.129-.61.015-.61-.253a.478.478,0,0,1,.465-.487c.256,0,.333-.215.17-.478-.209-.339-.432-.341-.764-.008s-.3.792.124,1.577c.711,1.329.723,1.332,1,.262Zm-9.826-.157a3.392,3.392,0,0,1-.954-1.195c-.177-.455-.267-.363-.291.3-.03.824.4,1.173,1.723,1.4.121.02-.094-.2-.478-.5Zm18.324-1.722c-.4-.223-.592-.641-.431-.928.2-.362.113-.355-.3.025-.49.455-.445.666.265,1.244.816.665.817.685.024.431-.717-.229-.752-.17-.253.431.526.634.616.629,1-.051.307-.548.225-.857-.306-1.154Zm-6.859.528c0-.242-.087-.44-.194-.44s-.316.2-.465.44-.062.44.194.44A.454.454,0,0,0,219.452,253.228Zm-9.491-.708c.194-.507.083-.636-.392-.453-.429.165-.664,0-.664-.478,0-.591-.107-.625-.549-.176s-.38.682.3,1.187c1.047.773.974.777,1.3-.079Zm9.052-.662c0-.242-.2-.317-.439-.168a.963.963,0,0,0-.44.711c0,.242.2.317.44.168A.963.963,0,0,0,219.012,251.857Zm-3.206-.6c-.291-.315-.678-.484-.859-.374-.528.32-.38-.5.217-1.193.3-.35.184-.316-.258.076-.681.6-.719.851-.248,1.6.306.49.809.794,1.118.675.439-.168.446-.34.032-.789Zm-8.8-1.427c-.111-.428-.21-.184-.219.541s.082,1.075.2.777a2.514,2.514,0,0,0,.016-1.318Zm11.122.98c0-.363-.192-.659-.426-.659s-.312.3-.173.659.331.659.426.659S218.133,251.173,218.133,250.81Zm-7.629-.875c-.12-.312.189-1,.687-1.537.718-.77.981-.848,1.279-.378.253.4.378.422.382.069.014-1.076-1.035-1.129-1.88-.1-.476.582-1.087,1-1.357.918-.338-.1-.331.022.024.383a1.24,1.24,0,0,1,.255,1.2c-.177.462-.087.571.284.342a.785.785,0,0,0,.327-.9Zm13.324-1.214a2.864,2.864,0,0,1-.9-1.554c-.019-.414-.127-.526-.241-.249s-.642.423-1.174.325c-.671-.124-.6-.03.244.3.666.265,1.1.654.975.865a.763.763,0,0,1-.882.135c-.355-.136-.645-.042-.645.208,0,.432,1.063.726,2.729.755.667.012.654-.077-.11-.789ZM210,247.954c.149-.242.062-.439-.194-.439a.454.454,0,0,0-.465.439c0,.242.087.44.194.44S209.853,248.2,210,247.954Zm10.108,0c.149-.242-.037-.439-.414-.439s-.685.2-.685.439a.428.428,0,0,0,.414.44A.942.942,0,0,0,220.111,247.954ZM211.1,246.9c0-.1-.307-.291-.682-.435-.391-.15-.568-.076-.414.173C210.263,247.058,211.1,247.258,211.1,246.9Zm12.509-1.172c-.309-.5-1.522-.553-1.522-.067,0,.19.4.376.889.413s.774-.119.633-.346Zm2.434-.852c0-.242.346-.446.769-.453.922-.017,2.4-1.063,2.03-1.435-.145-.145-.736.046-1.314.425-.845.554-1.179.582-1.708.143-.455-.378-.657-.394-.657-.052,0,.271-.3.493-.659.493s-.659.2-.659.455c0,.314.264.314.85,0,1.2-.643,1.546-.565.908.2-.378.456-.395.659-.054.659a.47.47,0,0,0,.493-.44Zm6.153-2.417c.568-.6.933-1.1.812-1.1a5.2,5.2,0,0,0-1.252,1.1c-.568.6-.933,1.1-.812,1.1A5.2,5.2,0,0,0,232.2,242.46Zm-19.911.014a2.309,2.309,0,0,1,1.282.33,1.56,1.56,0,0,0,.956.316c.5,0,.526-.137.132-.612-.568-.685-2.377-1.289-1.992-.666.135.219-.062.4-.439.4a.64.64,0,0,1-.692-.549q-.006-.549-.433.11c-.506.783-.6,1.773-.1,1.1a1.8,1.8,0,0,1,1.288-.426Zm7.308-.123a2.463,2.463,0,0,0-1.216-.515c-.256.019-.2.142.134.273.475.189.484.309.042.582-.344.213-.109.318.617.276,1.05-.06,1.094-.125.423-.617Zm11.061.335c.154-.249-.022-.323-.414-.173-.761.292-.9.607-.269.607a.935.935,0,0,0,.682-.434Zm-5.792-2.36c.3.172.365.129.155-.1a1.559,1.559,0,0,0-.769-.455c-.222-.03-.612-.08-.868-.11s-.341-.256-.189-.5a.545.545,0,0,1,.753-.152c.266.164.352.093.194-.163s0-.693.349-.982c2.078-1.724,2.993-5.955,1.976-9.137-1.329-4.161-4.612-5.572-12.616-5.424l-2.307.043v8.3c0,6.359-.129,8.3-.549,8.281-1.767-.066-2.08.266-.549.583,3.006.622,8.4.474,10.292-.282,1.282-.513,1.949-.574,2.536-.233.438.255.549.469.247.476a.526.526,0,0,0-.549.471,2.029,2.029,0,0,0,.549,1.053c.451.489.574.366.688-.686.091-.838.318-1.178.659-.983Zm-8.379,1.625a1.7,1.7,0,0,0-1.1,0c-.3.122-.055.222.549.222s.852-.1.549-.222Zm5.823-.148c.346-.56-.672-.56-1.538,0-.536.346-.479.427.3.433a1.625,1.625,0,0,0,1.235-.433Zm-14.9-1.2c-.447-.447-.815.226-.449.819.277.448.38.448.529,0a.9.9,0,0,0-.08-.821Zm14.678.054c0-.1-.3-.173-.659-.173s-.659.192-.659.426.3.312.659.173S222.089,240.751,222.089,240.655Zm10.347.237a.751.751,0,0,1,.883-.242c.4.154.5,0,.319-.486-.2-.532-.088-.642.457-.433.4.154.709.139.684-.034-.125-.837.1-1.439.451-1.221.216.134.494-.019.617-.34a.4.4,0,0,0-.387-.583,1.1,1.1,0,0,0-.867.806c-.141.443-.43.806-.643.806a4.7,4.7,0,0,0-1.573,1.1c-.652.6-.971,1.1-.708,1.1a1.035,1.035,0,0,0,.768-.469Zm-22.872-2.168a.97.97,0,0,0-.029-.926c-.3-.478-1.047.255-1.063,1.036-.01.482.775.4,1.092-.11Zm23.513-.926v-.612c0-.6-.655-.178-.945.6-.25.675-.175.83.308.645.35-.134.637-.421.637-.637Zm-22.114-.475c-.14-.351-.244-.246-.266.266-.019.463.085.723.231.577a.884.884,0,0,0,.035-.842Zm-2.617-.183a.884.884,0,0,0-.842-.035c-.351.14-.246.244.266.266.463.019.723-.085.577-.231Zm19.58-.488c-.119-.311-.014-.565.233-.565a.814.814,0,0,1,.651.549c.161.439.318.439.784,0s.451-.549-.165-.549c-.411,0-.747-.222-.747-.493,0-.347-.189-.336-.64.038a1.08,1.08,0,0,1-1.094.251c-.28-.173-.343.008-.164.474.212.552.133.658-.293.394-.34-.21-.476-.188-.327.053.4.642,2.012.5,1.761-.152Zm7.788-1.17a2.328,2.328,0,0,0-.659-1.592c-.455-.378-.659-.395-.659-.054a.492.492,0,0,0,.487.493c.3,0,.381.422.211,1.1-.159.634-.086,1.1.172,1.1s.448-.47.448-1.045Zm1.319-.325c0-.242-.2-.317-.44-.168a.963.963,0,0,0-.439.711c0,.242.2.317.439.168A.963.963,0,0,0,237.032,235.157Zm-5.713-.314a.673.673,0,1,0-.659.806A.746.746,0,0,0,231.319,234.843Zm-3.3-.073c.149-.242.062-.44-.194-.44a.454.454,0,0,0-.465.44c0,.242.087.439.194.439S227.873,235.011,228.023,234.769Zm1.215-1.142c.4-.4-.149-1.527-.6-1.247a1.125,1.125,0,0,0-.393.876C228.243,233.9,228.766,234.1,229.238,233.628Zm7.676,0a.884.884,0,0,0-.842-.035c-.351.14-.246.244.266.266.463.019.723-.085.577-.231Zm-8.671-2.126c0-.107-.2-.316-.44-.465s-.439-.062-.439.194a.454.454,0,0,0,.439.465C228.045,231.693,228.243,231.606,228.243,231.5Zm1.948-1.158c-.411-.454-.967-.686-1.237-.516-.314.2-.213.364.278.461a.924.924,0,0,1,.769.805c0,.359.211.523.468.364.307-.19.211-.573-.278-1.114Zm1.568-.161c0-.107-.2-.316-.439-.465s-.44-.062-.44.194a.454.454,0,0,0,.44.465C231.561,230.374,231.759,230.287,231.759,230.18Zm-3.076-1.134a3.6,3.6,0,0,0-.637-1.115c-.608-.813-.626-.8-.4.246.186.865.136.958-.235.439-.409-.573-.472-.562-.478.083,0,.473.312.718.872.676C228.287,229.338,228.682,229.19,228.682,229.046Zm-2.123-2.729c-.326-.326-.383-.155-.192.576.155.594.355.793.464.464A1.125,1.125,0,0,0,226.559,226.317Zm4.626-.659c-.111-.428-.21-.184-.219.541s.082,1.075.2.777a2.514,2.514,0,0,0,.016-1.319Zm-3.411.265c-.386-.721-.371-1.015.065-1.285.312-.193-.269-.269-1.295-.17-1.386.133-1.783.041-1.555-.364s.136-.385-.3.025c-.52.484-.52.624.006.948a1.528,1.528,0,0,0,1.178.165c.309-.119.82.2,1.134.7.752,1.2,1.416,1.187.77-.019Zm8.82.542c0-.216-.3-.506-.659-.645-.389-.149-.659-.809-.659-1.611,0-.876.172-1.252.483-1.059.345.213.354.063.032-.523-.525-.956-2.035-2.848-1.621-2.031.379.748-.422.7-1.057-.067-.385-.463-.386-.658-.005-.785.32-.107.215-.4-.286-.812-.639-.519-.72-.524-.421-.027.246.407.1.815-.433,1.2-.442.323-.66.733-.483.909s.5.037.712-.31c.305-.494.493-.361.862.61.378.995.594,1.14,1.085.733.466-.387.692-.381.942.023.2.318-.1.887-.73,1.413-.733.61-.815.792-.267.593.46-.167.683-.111.531.134s.067.922.467,1.533c.721,1.1,1.506,1.475,1.506.719Zm-29.581-3.884c-.111-.428-.21-.184-.219.541s.082,1.075.2.777a2.514,2.514,0,0,0,.016-1.318Zm4.969-.088c0-.225.346-.494.769-.6s.324-.146-.22-.091-.989-.072-.989-.28a.449.449,0,0,0-.493-.379c-.341,0-.324.2.054.659.345.416.374.659.08.659a1,1,0,0,1-.743-.447.51.51,0,0,0-.692-.189.487.487,0,0,0-.163.666c.329.533,2.4.533,2.4,0Zm6.373-.031c-.153-.247.2-.44.794-.44a4.13,4.13,0,0,0,2.114-.813,8.9,8.9,0,0,1,1.707-1.064c.363-.138-.132-.263-1.1-.279-1.247-.02-1.57.091-1.111.381,1.012.64.187,1.061-2.183,1.114-2.322.053-3.117.383-1.975.821.406.156.588.086.433-.165s.04-.434.417-.434.662.148.633.33c-.088.56.041.989.3.989.135,0,.123-.2-.026-.439Zm2.738.174a.884.884,0,0,0-.842-.035c-.351.14-.246.244.266.266.463.019.723-.085.577-.231Zm-8.776-2.673a4.789,4.789,0,0,0-1.758-.008c-.547.105-.2.2.764.2s1.414-.081.994-.191Zm12.85-.577c0-.242-.3-.439-.659-.439s-.659.2-.659.439.3.44.659.44S225.167,219.628,225.167,219.387ZM207.7,219.1a1.7,1.7,0,0,0-1.1,0c-.3.122-.055.222.549.222s.852-.1.549-.222Zm8.121.026a.884.884,0,0,0-.842-.035c-.351.14-.246.244.266.266.463.019.723-.085.577-.231Zm-5.594-.613c0-.242-.407-.439-.9-.439s-.783.2-.633.439a1.162,1.162,0,0,0,.9.44C209.939,218.947,210.224,218.75,210.224,218.508Zm18.459-.7a6.483,6.483,0,0,0-1.334-.555c-.733-.256-1.227-.292-1.1-.08s-.011.475-.315.586.19.187,1.1.17a7.731,7.731,0,0,0,1.648-.121Zm-12.636-.906a1.7,1.7,0,0,0-1.1,0c-.3.122-.055.222.549.222s.852-.1.549-.222Zm-5.054-.908a19.146,19.146,0,0,0-3.3,0c-.906.095-.165.172,1.648.172S211.9,216.085,210.993,215.99Zm9.889.029a1.7,1.7,0,0,0-1.1,0c-.3.122-.055.222.549.222s.852-.1.549-.222Zm68.671,21.467c-1.053-.245-1.327-.55-1.363-1.512a3.736,3.736,0,0,1,.055-1.2c.054,0,.94.3,1.967.659,3.686,1.3,6.875.522,7.889-1.925,1.055-2.548-.053-4.139-4.649-6.676-4.017-2.217-5.438-3.832-5.438-6.178,0-3.852,2.29-5.658,7.172-5.658,3.537,0,4.255.259,4.255,1.537,0,1,0,1-2.28.335-2.816-.826-4.964-.383-6.2,1.276-1.7,2.289-.55,3.929,4.973,7.094,4,2.294,5.051,3.631,5.011,6.385a5.212,5.212,0,0,1-3.148,5.147,17.335,17.335,0,0,1-8.249.72Zm54.319-.188c-3.334-1.227-3.972-3.479-3.986-14.065l-.011-7.8h2.637v8.68c0,7.828.086,8.818.858,10.085a4.526,4.526,0,0,0,5.828,1.7c2.473-1.173,2.7-2.112,2.891-11.786l.169-8.68h2.118v8.68c0,9.48-.277,10.771-2.679,12.53-1.437,1.053-5.765,1.416-7.827.657Zm57.934.128c-2.148-.651-3.458-1.869-4.666-4.338-1.06-2.167-1.212-3-1.22-6.659-.008-3.781.118-4.439,1.309-6.822,1.727-3.453,3.441-4.615,6.812-4.615,3.1,0,5.014,1.155,6.592,3.973,1.009,1.8,1.1,2.41,1.1,7.454,0,5.247-.056,5.589-1.251,7.622a7.273,7.273,0,0,1-8.676,3.385Zm4.753-2.031c2.165-1.4,3.179-5.58,2.713-11.182-.444-5.34-2.271-7.9-5.632-7.9-3.277,0-5.087,3.68-5.081,10.328,0,3.671.168,4.731,1,6.436,1.571,3.213,4.247,4.1,7,2.32ZM260.77,226.419V215.431h2.2v21.975h-2.2Zm8.35-.131V215.168l1.48.173c1.455.17,1.558.331,6.043,9.471l4.563,9.3.118-9.5.118-9.5,2.181.417v21.872h-2.911l-4.529-9.229c-2.491-5.076-4.7-9.229-4.917-9.229s-.388,4.153-.388,9.229c0,8.936-.028,9.229-.879,9.229s-.879-.293-.879-11.119Zm38.676.791V216.75h-2.637c-2.009,0-2.637-.152-2.637-.637,0-.521,1.163-.661,6.373-.769,5.828-.121,6.373-.067,6.373.637,0,.647-.42.769-2.638.769h-2.637v20.656h-2.2Zm10.548-.659V215.432h2.637v21.975h-2.637Zm10.987.659V216.75h-2.637c-2.051,0-2.637-.146-2.637-.659,0-.557,1.025-.659,6.592-.659,5.471,0,6.592.109,6.592.638,0,.474-.689.672-2.67.769l-2.67.131.048,10.218L332,237.406h-2.666Zm33.4,0V216.75H360.1c-2.218,0-2.637-.122-2.637-.769,0-.7.6-.769,6.373-.769s6.373.072,6.373.769c0,.647-.419.769-2.637.769h-2.637v20.656h-2.2Zm10.548-.769v-11.1h5.274c4.73,0,5.274.079,5.274.769s-.481.769-3.956.769h-3.955v8.35h3.736c3.264,0,3.736.1,3.737.769s-.415.753-3.736.627l-3.737-.142v9.294h4.175c3.882,0,4.175.062,4.175.879s-.293.879-5.494.879h-5.494Zm43.51.136V215.483l5.275-.136c4.783-.123,5.275-.064,5.274.633,0,.675-.483.769-3.956.769h-3.956v8.35h3.736c3.028,0,3.736.125,3.736.659s-.708.659-3.736.659h-3.736v10.987h-2.637Z" transform="translate(20.979 56.53)" fill="#97bd10"/>
    <path id="Path_8" data-name="Path 8" d="M213.473,274.294l-.989-.14V254h-2.637c-2.344,0-2.637-.1-2.637-.879,0-.84.293-.879,6.625-.879,6.072,0,6.613.064,6.478.769-.117.617-.689.8-2.881.9l-2.734.131-.118,10.2-.118,10.2Zm9.742-.043c-.1-.1-.183-5.094-.183-11.1V252.239h5.526c5.026,0,5.513.07,5.379.769-.125.655-.749.788-4.207.9l-4.06.126v7.844l3.841.127c3.249.107,3.863.246,3.988.9.131.687-.28.769-3.841.769h-3.988V272.9h4.175c3.683,0,4.175.091,4.175.769s-.546.769-5.311.769a44.168,44.168,0,0,1-5.494-.183Zm18.916-.416c-3.449-2.1-4.739-5.129-4.739-11.116,0-6.9,2.872-10.7,8.052-10.669,3.719.023,6.063,1.654,6.842,4.759.27,1.075.19,1.145-1.3,1.145-1.139,0-1.586-.192-1.586-.681a4.543,4.543,0,0,0-2.6-3.636c-4.693-1.636-7.963,4.3-6.651,12.082.851,5.046,2.826,7.324,6.35,7.324a8.881,8.881,0,0,0,3.329-.732c1.826-.911,1.773-.916,1.773.169,0,2.04-6.759,3.008-9.468,1.356Zm13.863-10.5v-11.1h1.084c1.081,0,1.085.014,1.209,4.944l.124,4.944,9.01.251V252.239h2.637v21.872l-1.088.208a2.219,2.219,0,0,1-1.318-.022,34.979,34.979,0,0,1-.23-5.431v-5.2h-9.229v10.768h-2.2Zm19.777.036V252.239h3.084l4.46,9.229c2.453,5.076,4.627,9.229,4.831,9.229s.371-4.153.371-9.229v-9.229H290.5l-.125,10.988c-.094,8.245-.258,11-.659,11.021-.294.018-.9.1-1.342.186-.659.125-1.673-1.605-5.494-9.373l-4.686-9.526-.22,9.413c-.219,9.377-.224,9.414-1.209,9.486l-.989.072V263.373Zm23.861,10.417c-4.133-2.52-5.8-11.175-3.255-16.923,2.283-5.162,8.6-6.578,12.326-2.765,2.012,2.058,2.8,5.23,2.594,10.394-.2,4.869-1.268,7.423-3.836,9.152a8.428,8.428,0,0,1-7.828.142Zm6.643-1.8c1.953-1.715,2.641-4.576,2.385-9.917-.23-4.807-1.2-7.075-3.493-8.2a3.348,3.348,0,0,0-3.3-.22,3.985,3.985,0,0,0-2.7,2.564c-1.282,2.582-1.74,7.977-.986,11.6,1.065,5.119,4.812,7.049,8.093,4.168Zm9.931-8.658v-11.1h2.68l-.137,20.437,3.783.127c3.228.108,3.783.237,3.783.879,0,.666-.577.752-5.054.752h-5.054ZM333,273.923c-2.884-1.422-4.491-5.169-4.491-10.476,0-5.816,1.9-9.638,5.468-11a6.775,6.775,0,0,1,7.8,1.59c1.858,1.953,2.482,3.728,2.843,8.092.289,3.5-.617,7.874-2.045,9.88C340.8,274.509,336.1,275.449,333,273.923Zm6.743-2.124c2.706-2.869,3.227-11.153.977-15.535-2.019-3.931-6.474-3.852-8.475.15-.732,1.465-.879,2.637-.879,7.032,0,5.879.665,8.065,2.8,9.228a4.224,4.224,0,0,0,5.572-.875Zm13.371,2.04c-3.366-1.791-5.167-6.548-4.69-12.388.294-3.6,1.339-6.26,3.007-7.663,3.489-2.936,9.671-2.3,11.816,1.22,1.248,2.047,1.129,2.945-.391,2.945-1.053,0-1.362-.28-1.946-1.767-1.333-3.393-5.451-3.83-7.963-.845-2.211,2.628-2.609,10.058-.762,14.233,1.181,2.67,3.116,3.868,5.865,3.632,3.184-.274,3.421-.649,3.421-5.418v-4.121h-2.6c-2.379,0-2.577-.073-2.366-.879s.6-.879,3.914-.879h3.685v11.03l-1.868.848c-2.508,1.138-7.036,1.164-9.126.053Zm20.224-4.544v-4.919l-3.3-5.863c-1.813-3.225-3.3-5.955-3.3-6.068s.559-.205,1.243-.205c1.122,0,1.495.45,3.822,4.615a28.648,28.648,0,0,0,2.895,4.615,28.482,28.482,0,0,0,2.881-4.607c2.284-4.1,2.7-4.608,3.774-4.615.665,0,1.209.077,1.209.179s-1.582,2.838-3.516,6.079l-3.516,5.893v9.816h-2.2ZM239.074,237.376c-1.053-.245-1.327-.55-1.363-1.512a3.734,3.734,0,0,1,.055-1.2c.054,0,.94.3,1.967.659,3.686,1.3,6.875.522,7.889-1.925,1.055-2.548-.053-4.139-4.648-6.676-4.017-2.217-5.438-3.832-5.438-6.178,0-3.852,2.29-5.658,7.172-5.658,3.537,0,4.255.259,4.255,1.537,0,1,0,1-2.28.335-2.816-.826-4.964-.383-6.2,1.276-1.7,2.289-.55,3.929,4.973,7.094,4,2.294,5.051,3.631,5.011,6.385a5.212,5.212,0,0,1-3.148,5.147,17.336,17.336,0,0,1-8.249.72Zm54.319-.188c-3.334-1.227-3.972-3.479-3.986-14.065l-.011-7.8h2.637V224c0,7.828.086,8.818.858,10.085a4.526,4.526,0,0,0,5.828,1.7c2.473-1.173,2.7-2.112,2.891-11.786l.169-8.68H303.9V224c0,9.48-.277,10.771-2.679,12.53-1.437,1.053-5.765,1.416-7.827.657Zm57.934.128c-2.148-.651-3.458-1.869-4.666-4.338-1.06-2.166-1.212-2.995-1.22-6.659-.008-3.781.118-4.439,1.309-6.822,1.727-3.453,3.441-4.615,6.812-4.615,3.1,0,5.014,1.155,6.592,3.973,1.009,1.8,1.1,2.41,1.1,7.454,0,5.247-.056,5.589-1.251,7.622a7.273,7.273,0,0,1-8.676,3.385Zm4.753-2.031c2.165-1.4,3.179-5.58,2.713-11.182-.444-5.34-2.271-7.9-5.632-7.9-3.277,0-5.087,3.68-5.081,10.328,0,3.671.168,4.731,1,6.436,1.571,3.213,4.246,4.1,7,2.32Zm-145.789-8.976V215.322h2.2V237.3h-2.2Zm8.35-.131V215.059l1.48.173c1.455.17,1.558.331,6.043,9.471l4.563,9.3.118-9.5.118-9.5,2.181.417V237.3h-2.911l-4.529-9.229c-2.491-5.076-4.7-9.229-4.917-9.229s-.388,4.153-.388,9.229c0,8.936-.028,9.229-.879,9.229s-.879-.293-.879-11.119Zm38.676.791V216.641h-2.637c-2.009,0-2.637-.152-2.637-.637,0-.521,1.163-.661,6.373-.769,5.828-.121,6.373-.067,6.373.637,0,.647-.419.769-2.638.769h-2.637V237.3h-2.2Zm10.548-.659V215.322H270.5V237.3h-2.637Zm10.987.659V216.641h-2.637c-2.051,0-2.637-.146-2.637-.659,0-.557,1.025-.659,6.592-.659,5.471,0,6.592.109,6.592.638,0,.474-.689.672-2.67.769l-2.67.131.048,10.218.047,10.218h-2.666Zm33.4,0V216.641h-2.637c-2.218,0-2.637-.122-2.637-.769,0-.7.6-.769,6.373-.769s6.373.072,6.373.769c0,.647-.419.769-2.637.769h-2.637V237.3h-2.2ZM322.8,226.2V215.1h5.274c4.73,0,5.274.079,5.274.769s-.481.769-3.955.769H325.44v8.35h3.736c3.264,0,3.736.1,3.737.769s-.415.753-3.736.627l-3.737-.142v9.294h4.175c3.882,0,4.175.062,4.175.879s-.293.879-5.494.879H322.8Zm43.51.136V215.374l5.275-.136c4.783-.123,5.275-.064,5.274.633,0,.675-.482.769-3.956.769H368.95v8.35h3.736c3.028,0,3.736.125,3.736.659s-.708.659-3.736.659H368.95V237.3h-2.637Z" transform="translate(71.459 56.639)" fill="#6d6d6d"/>
  </g>
</svg>
