<svg xmlns="http://www.w3.org/2000/svg" width="896.052" height="727.408" viewBox="0 0 896.052 727.408">
  <g id="twitter" transform="translate(0.27 0.5)">
    <path id="twitter-2" data-name="twitter" d="M802.454,229.116c.568,7.945.568,15.891.568,23.836,0,242.324-184.438,521.538-521.538,521.538C177.629,774.49,81.154,744.411,0,692.2a379.2,379.2,0,0,0,44.265,2.269,367.1,367.1,0,0,0,227.57-78.315A183.628,183.628,0,0,1,100.448,489.034a231.17,231.17,0,0,0,34.619,2.837,193.871,193.871,0,0,0,48.238-6.242,183.329,183.329,0,0,1-146.986-179.9V303.46a184.607,184.607,0,0,0,82.855,23.266A183.578,183.578,0,0,1,62.424,81.564,521.036,521.036,0,0,0,440.383,273.381a206.928,206.928,0,0,1-4.54-41.994c0-101.017,81.722-183.3,183.3-183.3a182.864,182.864,0,0,1,133.932,57.886A360.892,360.892,0,0,0,869.418,61.7a182.809,182.809,0,0,1-80.586,101.015c36.888-3.971,72.641-14.188,105.556-28.374a394.031,394.031,0,0,1-91.934,94.772Z" transform="translate(0 -48.082)" fill="#1da1f2" stroke="#1da1f2" stroke-width="1"/>
  </g>
</svg>
