<svg xmlns="http://www.w3.org/2000/svg" width="945.593" height="665.166" viewBox="0 0 945.593 665.166">
  <g id="youtube" transform="translate(0.5 0.5)">
    <path id="youtube-2" data-name="youtube" d="M939.788,167.92a118.689,118.689,0,0,0-83.512-84.053C782.612,64,487.23,64,487.23,64S191.849,64,118.183,83.866A118.692,118.692,0,0,0,34.671,167.92C14.933,242.062,14.933,396.754,14.933,396.754s0,154.692,19.738,228.835c10.864,40.9,42.872,71.778,83.512,82.711,73.665,19.866,369.046,19.866,369.046,19.866s295.381,0,369.046-19.866c40.64-10.933,72.648-41.806,83.512-82.711,19.738-74.143,19.738-228.835,19.738-228.835s0-154.692-19.738-228.835ZM390.623,537.2v-280.9L637.5,396.758,390.623,537.2Z" transform="translate(-14.933 -64)" fill="red" stroke="red" stroke-width="1"/>
  </g>
</svg>
